<svg width="996" height="443" viewBox="0 0 996 443" fill="none" xmlns="http://www.w3.org/2000/svg">
<rect opacity="0.1" width="996" height="443" rx="12" fill="#E9B5AC"/>
<mask id="mask0_46_7" style="mask-type:alpha" maskUnits="userSpaceOnUse" x="0" y="0" width="996" height="443">
<rect width="996" height="443" rx="12" transform="matrix(-1 0 0 1 996 0)" fill="#E9B5AC"/>
</mask>
<g mask="url(#mask0_46_7)">
<path opacity="0.2" fill-rule="evenodd" clip-rule="evenodd" d="M1005.38 552.602C1028.11 558.399 1008.78 505.515 1002.58 482.893C998.028 466.258 960.692 450.221 974.537 439.939C1006.73 416.028 1059.88 441.407 1091.56 416.813C1107.11 404.736 1096.67 364.742 1077.58 359.931C1041.92 350.944 1005.1 401.466 971.483 386.555C949.772 376.925 987.543 338.623 979.312 316.343C973.636 300.977 952.067 286.729 936.77 292.588C917.301 300.045 924.445 341.349 903.958 345.208C878.46 350.01 860.292 312.235 834.348 311.877C812.58 311.577 782.464 322.199 777.824 343.469C772.335 368.629 813.143 385.993 812.564 411.738C812.064 433.976 773.63 444.045 775.061 466.242C776.357 486.339 806.014 491.632 818.721 507.255C830.579 521.835 834.767 541.332 847.43 555.218C861.345 570.478 881.513 606.747 896.345 592.377C928.394 561.326 896.936 481.928 938.858 466.636C973.188 454.113 969.975 543.568 1005.38 552.602Z" fill="#E9B5AC"/>
<path opacity="0.2" fill-rule="evenodd" clip-rule="evenodd" d="M712.14 20.5253C734.72 14.183 691.534 -21.9492 674.859 -38.4436C662.597 -50.5719 622.244 -45.7921 629.093 -61.6194C645.02 -98.4243 703.74 -103.021 718.874 -140.159C726.306 -158.394 697.269 -187.811 678.326 -182.43C642.95 -172.382 636.326 -110.22 599.757 -106.324C576.139 -103.809 589.699 -155.865 571.431 -171.044C558.832 -181.514 533.028 -183.068 522.71 -170.346C509.579 -154.153 536.418 -121.955 520.604 -108.369C500.924 -91.4619 466.302 -115.092 443.655 -102.43C424.654 -91.8056 403.883 -67.549 410.5 -46.8083C418.327 -22.2746 462.349 -27.6416 474.72 -5.05552C485.406 14.453 457.156 42.3893 469.494 60.8972C480.664 77.6541 508.994 67.4093 527.811 74.5861C545.37 81.2831 558.745 96.0747 576.655 101.769C596.336 108.026 631.937 129.352 637.596 109.492C649.826 66.5768 582.884 13.5444 611.543 -20.6596C635.012 -48.6699 676.957 30.4072 712.14 20.5253Z" fill="#E9B5AC"/>
</g>
</svg>
