<svg width="125" height="334" viewBox="0 0 125 334" fill="none" xmlns="http://www.w3.org/2000/svg">
<path opacity="0.2" fill-rule="evenodd" clip-rule="evenodd" d="M-155.143 200.824C-166.625 221.276 -110.538 216.288 -87.0839 216.16C-69.8376 216.066 -44.6835 184.152 -38.335 200.186C-23.5719 237.473 -61.8427 282.245 -46.2841 319.207C-38.6445 337.356 2.68796 337.625 12.2779 320.426C30.1876 288.305 -9.08376 239.666 14.0204 211.054C28.9417 192.575 56.1623 238.972 79.8132 236.788C96.1255 235.282 115.471 218.136 113.77 201.843C111.606 181.108 69.86 177.319 71.4356 156.53C73.3965 130.659 114.587 122.887 121.647 97.9195C127.571 76.9707 125.106 45.1317 105.761 35.1446C82.8786 23.331 55.545 58.2546 30.8266 51.0315C9.47623 44.7927 9.69785 5.0631 -12.1134 0.7002C-31.861 -3.24993 -44.6493 24.0267 -63.0296 32.2575C-80.1811 39.9379 -100.098 38.9365 -116.788 47.5738C-135.13 57.0659 -175.383 67.1596 -165.341 85.2052C-143.643 124.198 -58.8087 114.363 -54.8877 158.813C-51.6768 195.215 -137.253 168.959 -155.143 200.824Z" fill="#8B7DAB"/>
</svg>
