<svg width="16" height="16" viewBox="0 0 16 16" fill="none" xmlns="http://www.w3.org/2000/svg">
<path d="M11.1402 1.81118C12.1268 2.64599 12.8351 3.6916 13.5518 4.77938C14.2686 5.87559 14.9854 7.01397 15.0865 8.21137C15.1877 9.40877 14.6734 10.6652 13.9229 11.6939C13.1724 12.7311 12.1942 13.5406 11.1065 14.1899C10.0187 14.8392 8.82128 15.3367 7.55642 15.4632C6.28313 15.5981 4.94238 15.3705 3.99795 14.6368C3.06195 13.9032 2.52228 12.6552 1.80553 11.4916C1.08034 10.3279 0.178075 9.24012 0.0262921 8.05958C-0.133923 6.88748 0.456344 5.61419 1.29958 4.66133C2.14282 3.70847 3.23903 3.07604 4.33524 2.30869C5.43146 1.54978 6.5361 0.664375 7.71663 0.521024C8.89717 0.377673 10.1536 0.984806 11.1402 1.81118Z" fill="#E9B5AC"/>
</svg>
