<svg width="78" height="78" viewBox="0 0 78 78" fill="none" xmlns="http://www.w3.org/2000/svg">
<g opacity="0.28">
<mask id="mask0_30_433" style="mask-type:alpha" maskUnits="userSpaceOnUse" x="0" y="0" width="78" height="78">
<rect width="56.7856" height="56.7856" transform="matrix(-0.866025 0.5 0.5 0.866025 49.1777 0)" fill="#D9D9D9"/>
</mask>
<g mask="url(#mask0_30_433)">
<path d="M54.302 30.1688C55.7363 29.3406 56.6628 28.1455 57.0814 26.5833C57.4999 25.0211 57.2952 23.5229 56.4671 22.0885C55.6389 20.6542 54.4438 19.7277 52.8816 19.3091C51.3194 18.8905 49.8211 19.0953 48.3868 19.9234C46.9524 20.7515 46.026 21.9467 45.6074 23.5089C45.1888 25.071 45.3936 26.5693 46.2217 28.0037C47.0498 29.438 48.245 30.3645 49.8072 30.7831C51.3693 31.2017 52.8676 30.9969 54.302 30.1688ZM40.349 27.2961C41.7834 26.468 42.7098 25.2728 43.1284 23.7107C43.547 22.1485 43.3422 20.6502 42.5141 19.2159C41.686 17.7815 40.4908 16.855 38.9286 16.4365C37.3665 16.0179 35.8682 16.2226 34.4338 17.0508C32.9995 17.8789 32.073 19.074 31.6544 20.6362C31.2358 22.1984 31.4406 23.6967 32.2687 25.131C33.0969 26.5654 34.292 27.4918 35.8542 27.9104C37.4164 28.329 38.9147 28.1242 40.349 27.2961ZM28.0546 34.3943C29.4889 33.5662 30.4154 32.371 30.834 30.8089C31.2526 29.2467 31.0478 27.7484 30.2197 26.3141C29.3915 24.8797 28.1964 23.9532 26.6342 23.5346C25.072 23.1161 23.5738 23.3208 22.1394 24.149C20.7051 24.9771 19.7786 26.1722 19.36 27.7344C18.9414 29.2966 19.1462 30.7949 19.9743 32.2292C20.8024 33.6636 21.9976 34.59 23.5598 35.0086C25.122 35.4272 26.6202 35.2224 28.0546 34.3943ZM23.5659 47.9142C25.0002 47.0861 25.9267 45.891 26.3453 44.3288C26.7639 42.7666 26.5591 41.2683 25.731 39.834C24.9029 38.3996 23.7077 37.4732 22.1455 37.0546C20.5833 36.636 19.0851 36.8408 17.6507 37.6689C16.2164 38.497 15.2899 39.6922 14.8713 41.2543C14.4527 42.8165 14.6575 44.3148 15.4856 45.7491C16.3137 47.1835 17.5089 48.11 19.0711 48.5286C20.6333 48.9471 22.1315 48.7424 23.5659 47.9142ZM61.7268 53.203C63.2636 52.3157 64.2127 50.9823 64.574 49.2027C64.9354 47.4231 64.6527 45.7308 63.726 44.1257C62.7007 42.3498 61.1974 41.1459 59.2161 40.514C57.2347 39.882 55.2718 39.2622 53.3272 38.6546C51.7256 38.1677 50.2064 37.508 48.7695 36.6756C47.3327 35.8431 45.8036 35.1664 44.1823 34.6453C42.9183 34.1912 41.6235 33.9597 40.2979 33.9509C38.9724 33.9422 37.729 34.273 36.5679 34.9434C35.4067 35.6137 34.4887 36.508 33.8138 37.6263C33.1389 38.7445 32.6821 39.9644 32.4434 41.2862C32.1181 42.9311 31.9531 44.5973 31.9484 46.2848C31.9437 47.9723 31.7616 49.6484 31.4022 51.313C30.9561 53.3009 30.5114 55.3107 30.068 57.3426C29.6246 59.3745 29.9156 61.2783 30.9409 63.0542C31.8676 64.6593 33.1919 65.7503 34.9137 66.3271C36.6356 66.9039 38.2649 66.7487 39.8017 65.8615C41.6459 64.7967 43.3842 63.5882 45.0168 62.2358C46.6494 60.8834 48.3877 59.6749 50.2319 58.6102C52.076 57.5454 53.9919 56.6442 55.9793 55.9066C57.9668 55.1689 59.8826 54.2677 61.7268 53.203Z" fill="#E9B5AC"/>
</g>
</g>
</svg>
