<svg width="74" height="74" viewBox="0 0 74 74" fill="none" xmlns="http://www.w3.org/2000/svg">
<g clip-path="url(#clip0_30_715)">
<path d="M60.2966 42.3176L24.8032 44.3106L14.4482 63.0073C17.8903 69.2789 22.6574 70.2281 26.3115 66.0483C27.7954 68.584 32.3202 70.4291 37.6735 70.4291C41.9979 70.4291 45.7815 69.225 47.8588 67.4258C48.469 68.3495 49.283 69.1504 50.3552 69.751C57.2082 73.5898 59.9518 60.1545 64.5461 53.8972L60.2966 42.3176Z" fill="#B1B9C6"/>
<path d="M53.2098 61.7221C53.1085 61.7221 53.0056 61.7024 52.9063 61.6607C52.5063 61.493 52.3176 61.0335 52.4848 60.6331C52.5638 60.4438 54.4815 55.9441 59.7114 51.2613C60.0349 50.9717 60.5318 50.9991 60.8216 51.3227C61.1112 51.6462 61.0838 52.1431 60.7602 52.4329C58.1767 54.746 56.4593 57.0161 55.4735 58.513C54.4034 60.1381 53.9398 61.2293 53.9352 61.2402C53.8088 61.5409 53.5169 61.7221 53.2098 61.7221Z" fill="#678490"/>
<path d="M52.6874 71.2152C51.8054 71.2152 50.8967 70.9555 49.9721 70.4375C48.3825 69.547 47.1894 68.191 46.4259 66.4069C46.2551 66.0077 46.4402 65.5456 46.8395 65.3749C47.2385 65.2039 47.7007 65.3891 47.8715 65.7884C48.4952 67.2462 49.4605 68.3488 50.7404 69.0658C51.7635 69.6388 52.6854 69.7831 53.5589 69.5074C56.0793 68.7109 58.0984 64.5103 60.0512 60.4481C61.2527 57.9485 62.4952 55.364 63.9132 53.4325C64.1702 53.0826 64.6622 53.0073 65.0122 53.264C65.3623 53.521 65.4376 54.013 65.1807 54.363C63.849 56.1767 62.6387 58.6944 61.4684 61.1292C59.2743 65.6938 57.2018 70.0053 54.0327 71.0066C53.5924 71.1457 53.1433 71.2152 52.6874 71.2152Z" fill="#678490"/>
<path d="M60.3664 6.48707C56.826 3.71485 47.4693 10.6799 43.3794 14.0023C41.143 13.9044 38.2975 14.0989 35.0613 14.5074C31.8211 14.8869 29.0117 15.3808 26.8639 16.0121C22.0946 13.7656 11.3418 9.25146 8.57119 12.7899C5.8195 16.304 10.4432 24.4695 12.7465 28.0783C11.0206 32.0119 10.7163 36.127 11.1374 39.5875C11.5015 42.5798 12.2218 45.525 13.3022 48.4263C15.4114 54.0889 20.5683 58.0068 26.5917 58.4823C31.2431 58.8477 35.8387 58.7543 40.3783 58.2017C44.918 57.6493 49.4019 56.638 53.8299 55.1677C59.5635 53.2616 63.6301 48.2213 64.3198 42.218C64.6729 39.1422 64.6657 36.1102 64.3016 33.118C63.8806 29.6584 62.599 25.7373 59.9812 22.3331C61.3478 18.2815 63.8816 9.23962 60.3664 6.48707Z" fill="#B1B9C6"/>
<path d="M38.5359 16.2523C39.1386 21.2053 38.1858 25.3933 36.4146 25.6089C34.6397 25.8249 32.7102 21.9877 32.1076 17.0347C32.025 16.3558 31.9712 15.6927 31.9473 15.053C34.0254 14.7039 36.1152 14.4495 38.2169 14.2937C38.347 14.9206 38.4538 15.5772 38.5359 16.2523Z" fill="#91A2B5"/>
<path d="M31.4359 15.465C32.0382 20.4142 31.0895 24.6055 29.3145 24.8215C27.6078 25.0293 25.75 21.4644 25.0791 16.7735C26.1476 16.3509 27.2643 16.0074 28.4181 15.7476C29.4074 15.5272 30.3989 15.3256 31.3937 15.1507C31.4105 15.2563 31.4229 15.3587 31.4359 15.465Z" fill="#91A2B5"/>
<path d="M45.2918 14.2715C45.7753 19.0043 44.8294 22.9334 43.1152 23.1421C41.3403 23.3581 39.414 19.5168 38.8119 14.5673C38.7989 14.4611 38.7865 14.3588 38.7773 14.2521C39.9339 14.1729 41.0983 14.1274 42.2623 14.109C43.2878 14.0918 44.2994 14.1496 45.2918 14.2715Z" fill="#91A2B5"/>
<path d="M57.5954 14.5567C57.5954 14.5567 58.2486 15.6549 58.4903 16.9456C58.7163 18.1381 58.1035 19.144 57.2021 19.6425C54.9354 17.6207 52.2526 16.0689 49.3199 15.1211C49.2671 14.4655 49.4622 13.7913 49.9345 13.245C51.8301 11.0477 54.5227 8.59936 56.712 9.19512C60.5257 10.2358 57.5954 14.5567 57.5954 14.5567Z" fill="white"/>
<path d="M13.1941 19.9596C13.1941 19.9596 12.8233 21.1825 12.8981 22.4934C12.9647 23.7053 13.8007 24.5349 14.7955 24.8025C16.5112 22.2961 18.7436 20.1463 21.3633 18.5228C21.2573 17.8737 20.9063 17.2659 20.3167 16.8489C17.9495 15.1704 14.7483 13.4392 12.7658 14.5426C9.3131 16.4676 13.1941 19.9596 13.1941 19.9596Z" fill="white"/>
<path d="M65.0827 33.0231C64.7681 30.4388 63.7984 26.1626 60.8586 22.1836C62.5132 17.1571 64.542 8.7584 60.85 5.86734C59.0187 4.43329 56.0256 4.89152 51.7005 7.269C48.5306 9.0112 45.322 11.4236 43.1134 13.2075C40.9732 13.1403 38.2483 13.3129 34.9704 13.7268C31.6827 14.112 28.9938 14.5982 26.9312 15.1771C24.3552 13.9743 20.658 12.401 17.1686 11.4711C12.4005 10.2006 9.38533 10.4731 7.95128 12.3044C5.05622 16.0018 9.04379 23.6651 11.859 28.1457C9.95883 32.7138 10.0429 37.0981 10.3574 39.6826C10.7278 42.726 11.4708 45.7602 12.5659 48.7009C13.6539 51.6219 15.5348 54.1551 18.0049 56.0264C20.4795 57.901 23.4275 59.0214 26.5306 59.2663C28.3912 59.4123 30.2524 59.4854 32.1077 59.4854C34.921 59.4854 37.7198 59.3175 40.4737 58.9824C45.044 58.4263 49.621 57.3938 54.0784 55.914C57.0318 54.932 59.6251 53.1373 61.5779 50.7239C63.5271 48.315 64.7454 45.4047 65.1014 42.3078C65.4593 39.1907 65.453 36.0668 65.0827 33.0231ZM63.5394 42.1284C63.2177 44.9282 62.1169 47.5585 60.3557 49.7349C58.5922 51.9141 56.2501 53.5349 53.5828 54.4218C49.2248 55.8687 44.7504 56.8779 40.2839 57.4215C35.8172 57.965 31.2315 58.0582 26.654 57.6988C23.8515 57.4775 21.189 56.4659 18.9545 54.7731C16.7228 53.0825 15.0231 50.7929 14.0394 48.1522C12.9874 45.3272 12.2737 42.4138 11.9183 39.4927C11.524 36.2521 11.5124 29.9768 15.8651 24.3596C16.131 24.0164 16.0684 23.5226 15.7251 23.2567C15.3819 22.9906 14.888 23.0534 14.6222 23.3966C13.8443 24.4007 13.1977 25.4233 12.6584 26.4468C8.88044 20.202 7.58164 15.327 9.18917 13.274C10.7426 11.2901 16.6357 12.3111 24.758 15.9151C24.7571 15.9154 24.7563 15.9158 24.7556 15.9161C23.4063 16.484 22.127 17.1319 20.9537 17.8413C20.5821 18.066 20.4631 18.5494 20.6877 18.9209C20.8355 19.1652 21.0951 19.3003 21.3612 19.3003C21.4997 19.3003 21.6401 19.2637 21.7672 19.1868C22.8755 18.5166 24.0862 17.9038 25.365 17.3655C27.403 16.5096 30.6962 15.8107 35.1603 15.2877C39.6125 14.7256 42.9771 14.6143 45.1604 14.9565C46.5316 15.1725 47.8538 15.4771 49.0903 15.8619C49.5052 15.991 49.9456 15.7594 50.0745 15.3449C50.2037 14.9303 49.9721 14.4896 49.5575 14.3606C48.2485 13.9532 46.8514 13.6311 45.4043 13.4034C45.4028 13.4031 45.4009 13.4029 45.3993 13.4027C52.4175 7.95393 57.8936 5.54948 59.8806 7.10565C61.9301 8.71047 61.8394 13.7546 59.6745 20.7254C58.9055 19.8612 58.0326 19.0233 57.0366 18.2352C56.6962 17.9659 56.2018 18.0234 55.9323 18.3639C55.6629 18.7043 55.7204 19.1988 56.061 19.4683C61.6338 23.8777 63.1275 29.9725 63.5218 33.2133C63.8773 36.1343 63.8832 39.1339 63.5394 42.1284Z" fill="#678490"/>
<path d="M52.2546 36.981C52.0542 35.3341 50.5566 34.1615 48.9099 34.3618C47.263 34.5623 46.0904 36.0598 46.2909 37.7067C46.4913 39.3536 47.9888 40.5261 49.6356 40.3257C51.2825 40.1253 52.4551 38.6277 52.2546 36.981Z" fill="#605C5D"/>
<path d="M29.7244 39.7228C29.524 38.0759 28.0265 36.9033 26.3797 37.1036C24.7328 37.3041 23.5603 38.8016 23.7606 40.4485C23.961 42.0954 25.4585 43.268 27.1054 43.0675C28.7522 42.8671 29.9247 41.3695 29.7244 39.7228Z" fill="#605C5D"/>
<path d="M52.633 42.1785C52.2054 42.1785 51.8357 41.8594 51.7827 41.4244C51.7255 40.9542 52.0604 40.5267 52.5306 40.4694L57.2423 39.8961C57.7131 39.8394 58.1401 40.1739 58.1973 40.6439C58.2545 41.1141 57.9197 41.5417 57.4494 41.5989L52.7377 42.1723C52.7025 42.1764 52.6674 42.1785 52.633 42.1785Z" fill="#91A2B5"/>
<path d="M57.0288 46.136C56.963 46.136 56.8962 46.1284 56.8295 46.1124L52.8008 45.1537C52.34 45.044 52.0554 44.5816 52.1651 44.1208C52.2748 43.6602 52.7368 43.375 53.198 43.4851L57.2267 44.4438C57.6875 44.5535 57.9721 45.0159 57.8624 45.4767C57.7686 45.8707 57.4168 46.136 57.0288 46.136Z" fill="#91A2B5"/>
<path d="M19.7219 46.1834C19.2943 46.1834 18.9245 45.8643 18.8716 45.4293C18.8144 44.9591 19.1492 44.5315 19.6194 44.4743L24.331 43.9009C24.8005 43.8439 25.2287 44.1785 25.286 44.6488C25.3432 45.119 25.0084 45.5465 24.5382 45.6038L19.8266 46.1771C19.7913 46.1813 19.7564 46.1834 19.7219 46.1834Z" fill="#91A2B5"/>
<path d="M21.1193 50.5057C20.8084 50.5057 20.5084 50.3361 20.3562 50.0408C20.1392 49.6197 20.3047 49.1025 20.7257 48.8855L24.407 46.9885C24.828 46.7715 25.3453 46.937 25.5621 47.358C25.7791 47.779 25.6136 48.2963 25.1926 48.5133L21.5113 50.4102C21.3858 50.4751 21.2515 50.5057 21.1193 50.5057Z" fill="#91A2B5"/>
<path d="M44.3536 34.1224C43.9617 34.1224 43.6227 33.83 43.5742 33.4312C43.5217 33.0002 43.8286 32.6082 44.2596 32.5558L46.7313 32.255C47.1626 32.201 47.5544 32.5093 47.6067 32.9403C47.6592 33.3713 47.3524 33.7633 46.9214 33.8157L44.4496 34.1166C44.4173 34.1204 44.3851 34.1224 44.3536 34.1224Z" fill="white"/>
<path d="M27.4836 31.1763C27.0917 31.1763 26.7527 30.8839 26.7041 30.485C26.6517 30.054 26.9586 29.6621 27.3896 29.6096L29.8613 29.3089C30.2915 29.2565 30.6842 29.5634 30.7367 29.9944C30.7891 30.4253 30.4822 30.8172 30.0512 30.8697L27.5794 31.1705C27.5473 31.1745 27.5152 31.1763 27.4836 31.1763Z" fill="white"/>
<path d="M31.8858 43.11C31.445 39.4877 34.6171 41.0661 38.2395 40.6252C41.8618 40.1844 44.5629 37.8913 45.0037 41.5136C45.4445 45.136 42.8653 48.4299 39.2429 48.8706C35.6206 49.3116 32.3266 46.7325 31.8858 43.11Z" fill="white"/>
<path d="M45.785 41.4187C45.6443 40.2625 45.2667 39.4961 44.6308 39.076C43.6359 38.4186 42.3599 38.7881 40.8827 39.2161C40.2793 39.3909 39.6168 39.5822 38.9222 39.7191L38.7147 38.0144L39.2576 37.9484C39.6886 37.896 39.9954 37.504 39.9429 37.073C39.8906 36.642 39.4984 36.3359 39.0676 36.3875L36.421 36.7096C35.99 36.762 35.6832 37.154 35.7357 37.585C35.7842 37.9839 36.1233 38.2762 36.515 38.2762C36.5467 38.2762 36.5788 38.2744 36.611 38.2704L37.1539 38.2043L37.3613 39.909C36.6541 39.9427 35.9651 39.9159 35.3375 39.8909C33.801 39.8297 32.4735 39.7769 31.6651 40.6539C31.1485 41.2142 30.9656 42.0488 31.1064 43.2051C31.562 46.9501 34.7588 49.7058 38.4404 49.7058C38.7371 49.7058 39.037 49.688 39.3389 49.6512C41.2994 49.4125 43.0494 48.4249 44.2669 46.87C45.4844 45.3151 46.0235 43.3791 45.785 41.4187ZM43.0289 45.9007C42.0703 47.1249 40.6923 47.9026 39.1487 48.0903C38.9109 48.1193 38.6752 48.1334 38.4414 48.1334C35.5431 48.1331 33.0259 45.9635 32.6671 43.0151C32.5889 42.3722 32.6436 41.9121 32.821 41.7195C33.0319 41.4907 33.5648 41.4332 34.223 41.4332C34.5506 41.4332 34.9095 41.4475 35.2749 41.462C36.1925 41.4987 37.2323 41.5401 38.3354 41.4058C39.4385 41.2716 40.4381 40.982 41.3202 40.7265C42.3771 40.4203 43.3753 40.1313 43.764 40.3881C43.9826 40.5324 44.1459 40.966 44.2241 41.6088C44.4119 43.1522 43.9874 44.6764 43.0289 45.9007Z" fill="#678490"/>
<path d="M18.5256 63.008C22.9672 63.008 26.5678 59.4074 26.5678 54.9658C26.5678 50.5242 22.9672 46.9236 18.5256 46.9236C14.084 46.9236 10.4834 50.5242 10.4834 54.9658C10.4834 59.4074 14.084 63.008 18.5256 63.008Z" fill="#DACDF7"/>
<path d="M16.8993 58.0556C19.1957 58.0556 21.0573 56.194 21.0573 53.8976C21.0573 51.6011 19.1957 49.7395 16.8993 49.7395C14.6028 49.7395 12.7412 51.6011 12.7412 53.8976C12.7412 56.194 14.6028 58.0556 16.8993 58.0556Z" fill="#C3B3E4"/>
<path d="M18.5257 63.7941C16.1675 63.7941 13.9505 62.8758 12.283 61.2083C10.6156 59.5409 9.69727 57.3239 9.69727 54.9657C9.69727 52.6075 10.6156 50.3905 12.283 48.723C13.9505 47.0556 16.1676 46.1373 18.5257 46.1373C20.8838 46.1373 23.1007 47.0556 24.7683 48.723C28.2105 52.1652 28.2105 57.7662 24.7683 61.2083C23.1007 62.8758 20.8838 63.7941 18.5257 63.7941ZM18.5257 47.713C16.6675 47.713 14.8095 48.4203 13.3948 49.8348C10.5657 52.664 10.5657 57.2673 13.3948 60.0964C14.7654 61.467 16.5875 62.2217 18.5257 62.2217C20.4639 62.2217 22.286 61.4668 23.6564 60.0964C26.4856 57.2673 26.4856 52.664 23.6564 49.8348C22.2419 48.4203 20.3837 47.713 18.5257 47.713Z" fill="#8B7DAB"/>
<path d="M8.58663 57.3525C10.6781 55.2538 14.0747 55.2478 16.1735 57.3393C18.2722 59.4307 18.2782 62.8274 16.1867 64.9261C14.0953 67.0248 11.6709 66.055 9.57215 63.9637C7.47357 61.8723 6.49533 59.4513 8.58663 57.3525Z" fill="#B1B9C6"/>
<path d="M28.0656 63.5154C27.694 63.2904 27.2108 63.4091 26.9858 63.7805C25.4577 66.3023 23.6396 67.6916 21.7279 67.798C20.0892 67.8902 18.4453 67.0166 16.9416 65.2724C17.9755 64.1356 18.5406 62.6753 18.5379 61.1284C18.5349 59.4853 17.8925 57.9418 16.7286 56.7821C15.5675 55.625 14.0261 54.9883 12.3872 54.9883C12.3837 54.9883 12.3798 54.9883 12.3761 54.9883C10.733 54.9911 9.18958 55.6337 8.02987 56.7974C6.86674 57.9647 6.42063 59.3585 6.74005 60.8278C7.00227 62.0334 7.76837 63.2757 9.01738 64.5203C10.2664 65.765 11.5114 66.5269 12.7179 66.7847C13.0221 66.8497 13.3225 66.882 13.6186 66.882C14.3601 66.882 15.072 66.678 15.734 66.2795C17.4796 68.312 19.4515 69.377 21.4883 69.377C21.597 69.377 21.7061 69.374 21.8151 69.3679C24.2683 69.2313 26.5213 67.581 28.3304 64.5952C28.5555 64.2239 28.437 63.7404 28.0656 63.5154ZM13.0468 65.247C12.1535 65.0562 11.1441 64.4197 10.1273 63.4064C9.11054 62.3932 8.47056 61.386 8.27654 60.4935C8.07039 59.5457 8.354 58.6997 9.14364 57.9072C10.0069 57.0409 11.1558 56.5626 12.3788 56.5604C12.3817 56.5604 12.3844 56.5604 12.3871 56.5604C13.6069 56.5604 14.7543 57.0345 15.6187 57.8958C16.4849 58.759 16.9633 59.9079 16.9654 61.1309C16.9676 62.3538 16.4934 63.5046 15.63 64.3708C14.8403 65.1632 13.9952 65.4498 13.0468 65.247Z" fill="#678490"/>
<path d="M63.1608 73.0006C61.3494 73.281 59.6608 72.0197 59.4156 70.2033L50.4507 3.81348C50.3063 2.74479 51.044 1.75713 52.1097 1.59222C53.1754 1.4273 54.177 2.14575 54.3626 3.20802L65.8854 69.2021C66.2005 71.0076 64.972 72.7203 63.1608 73.0006Z" fill="#F5DDD9"/>
<path d="M62.6498 73.8267C61.7813 73.8268 60.94 73.5486 60.2301 73.0185C59.3493 72.3607 58.7832 71.3984 58.636 70.3089L49.6712 3.91893C49.471 2.43652 50.5107 1.04427 51.9891 0.815579C53.4674 0.586034 54.8794 1.59951 55.1367 3.07308L66.6596 69.0671C66.8486 70.1501 66.6 71.2386 65.9591 72.1318C65.3184 73.0252 64.3672 73.6097 63.2809 73.7779C63.0698 73.8106 62.8589 73.8267 62.6498 73.8267ZM52.41 2.35548C52.3504 2.35548 52.29 2.36005 52.2295 2.36932C51.5915 2.46804 51.1429 3.0688 51.2293 3.7085L60.1943 70.0985C60.2844 70.766 60.6312 71.3556 61.1709 71.7586C61.7106 72.1618 62.3749 72.3271 63.0401 72.224C63.7058 72.121 64.2886 71.7628 64.6812 71.2155C65.0738 70.6681 65.2261 70.0012 65.1103 69.3376L53.5874 3.34371C53.4872 2.76821 52.9787 2.35548 52.41 2.35548Z" fill="#E9B5AC"/>
<path d="M63.1671 60.631C60.2248 60.979 57.5575 58.8758 57.2095 55.9336C56.8616 52.9913 58.9647 50.3239 61.907 49.976C64.8493 49.628 66.1488 51.8929 66.4967 54.8352C66.8447 57.7775 66.1096 60.2831 63.1671 60.631Z" fill="#B1B9C6"/>
<path d="M62.5329 61.4548C59.4614 61.4548 56.7987 59.1499 56.4292 56.0259C56.2362 54.3944 56.6901 52.7851 57.7075 51.495C58.7248 50.2049 60.1835 49.3881 61.815 49.1952C63.4518 49.0022 64.8231 49.5119 65.7811 50.6707C66.5671 51.6217 67.0709 52.9917 67.2779 54.7428C67.737 58.6246 66.2724 61.0553 63.2599 61.4117C63.0157 61.4408 62.773 61.4548 62.5329 61.4548ZM62.4877 50.7267C62.3312 50.7267 62.1685 50.7367 61.9998 50.7566C60.7853 50.9003 59.6995 51.5083 58.9422 52.4686C58.185 53.429 57.8471 54.6266 57.9908 55.8411C58.2659 58.1663 60.248 59.8819 62.5342 59.8822C62.7131 59.8822 62.8934 59.8718 63.0753 59.8503C65.1847 59.6007 66.0734 57.9444 65.7166 54.9275C65.548 53.502 65.1513 52.3766 64.5693 51.6725C64.045 51.0385 63.3609 50.7267 62.4877 50.7267Z" fill="#678490"/>
</g>
<defs>
<clipPath id="clip0_30_715">
<rect width="73.0435" height="73.0435" fill="white" transform="translate(0.478516 0.783203)"/>
</clipPath>
</defs>
</svg>
