<svg width="74" height="74" viewBox="0 0 74 74" fill="none" xmlns="http://www.w3.org/2000/svg">
<g clip-path="url(#clip0_30_917)">
<path d="M68.0822 2.36867C64.2941 -1.41932 52.2262 5.47116 46.9113 8.81176C44.2806 8.37421 40.8874 8.19474 37.0015 8.21214C33.1149 8.19474 29.7214 8.37435 27.0906 8.8119C21.7737 5.46873 9.70679 -1.41718 5.9208 2.36867C2.16091 6.12855 6.45379 16.4506 8.6585 21.0498C6.05119 25.4535 5.0992 30.2763 5.0992 34.4293C5.0992 38.0204 5.52705 41.6071 6.38731 45.194C8.06688 52.1943 13.6016 57.5699 20.6566 58.9989C21.1337 59.0953 21.6107 59.1861 22.0879 59.2741C19.3872 60.7457 17.767 62.6241 17.767 64.671C17.767 69.3911 26.3785 73.2173 37.0015 73.2173C47.6245 73.2173 56.2361 69.3909 56.2361 64.671C56.2361 62.6241 54.6158 60.7457 51.9151 59.2741C52.3921 59.1861 52.8692 59.0953 53.3463 58.9989C60.4012 57.5697 65.936 52.1943 67.6156 45.194C68.4758 41.6073 68.9037 38.0206 68.9037 34.4293C68.9037 30.2773 67.9523 25.4558 65.3464 21.0531C67.5455 16.4584 71.8432 6.12984 68.0822 2.36867Z" fill="#B1B9C6"/>
<path d="M40.8585 10.7754C40.8585 16.7198 39.1288 21.5353 37.0033 21.5353C34.8732 21.5353 33.1436 16.7198 33.1436 10.7754C33.1436 9.96066 33.1754 9.16874 33.2391 8.40863C35.747 8.29479 38.255 8.29479 40.7629 8.41305C40.8267 9.17316 40.8585 9.96523 40.8585 10.7754Z" fill="#91A2B5"/>
<path d="M32.5749 8.8228C32.5749 14.7627 30.8499 19.5827 28.7198 19.5827C26.6715 19.5827 24.9874 15.0994 24.8691 9.45537C26.1936 9.10941 27.5636 8.86374 28.9656 8.72265C30.1672 8.60424 31.3687 8.50866 32.5704 8.44489C32.5749 8.57228 32.5749 8.69526 32.5749 8.8228Z" fill="#91A2B5"/>
<path d="M49.1337 9.40529C49.0244 15.072 47.3404 19.5826 45.2829 19.5826C43.1528 19.5826 41.4277 14.7624 41.4277 8.82266C41.4277 8.69512 41.4277 8.57228 41.4323 8.44489C42.8114 8.51764 44.1951 8.63149 45.5742 8.77715C46.7896 8.90455 47.9775 9.11854 49.1337 9.40529Z" fill="#91A2B5"/>
<path d="M63.6444 11.5129C63.6444 11.5129 64.2588 12.9058 64.359 14.4669C64.4546 15.9097 63.5853 17.0112 62.4473 17.4708C60.0577 14.7535 57.1083 12.5324 53.7764 10.9894C53.8082 10.2064 54.136 9.43719 54.7732 8.85926C57.3311 6.53342 60.8677 4.02541 63.3712 5.04502C67.7317 6.82474 63.6444 11.5129 63.6444 11.5129Z" fill="white"/>
<path d="M10.3554 11.5129C10.3554 11.5129 9.74099 12.9058 9.64084 14.4669C9.54526 15.9097 10.4146 17.0112 11.5525 17.4708C13.9421 14.7535 16.8916 12.5324 20.2234 10.9894C20.1915 10.2064 19.8638 9.43719 19.2267 8.85926C16.6687 6.53342 13.132 4.02541 10.6286 5.04502C6.26815 6.82474 10.3554 11.5129 10.3554 11.5129Z" fill="white"/>
<path d="M68.8439 1.60429C66.8393 -0.40027 63.1837 -0.29898 57.6677 1.91358C53.6814 3.51255 49.5528 5.89174 46.6812 7.68316C44.1595 7.30025 40.921 7.1155 37.0066 7.13277C33.0857 7.11508 29.8432 7.30025 27.3195 7.68373C24.4433 5.89088 20.3106 3.51027 16.3309 1.91372C10.8157 -0.298837 7.16052 -0.399985 5.15624 1.60429C3.23999 3.52054 2.85252 6.90037 4.00452 11.6499C4.83168 15.06 6.282 18.5295 7.43871 20.9959C4.55064 26.1312 4.02022 31.3246 4.02022 34.4293C4.02022 38.0932 4.46361 41.7996 5.33814 45.4458C6.21095 49.0833 8.08426 52.3736 10.7556 54.961C13.432 57.553 16.7817 59.3152 20.443 60.0569C22.6045 60.4939 24.7962 60.8498 26.9574 61.1147C27.0019 61.1202 27.0463 61.1229 27.0901 61.1229C27.6277 61.1229 28.093 60.7219 28.1601 60.1747C28.2326 59.5831 27.8117 59.0447 27.2201 58.9721C25.1139 58.7139 22.9779 58.3669 20.8711 57.9411C17.6154 57.2815 14.6368 55.7148 12.2573 53.4102C9.88082 51.1087 8.21394 48.1803 7.437 44.9422C6.60199 41.4609 6.17871 37.9239 6.17871 34.4293C6.17871 30.562 7.06265 23.1812 12.9827 17.2009C13.4022 16.7772 13.3986 16.0939 12.975 15.6746C12.5516 15.2553 11.8681 15.2586 11.4487 15.6823C10.4435 16.6976 9.57166 17.7492 8.81541 18.8166C5.35825 11.0623 4.54993 5.26331 6.68259 3.13064C8.7368 1.07672 15.3749 3.077 24.2591 8.34911C22.6887 8.81063 21.1823 9.36259 19.7789 9.99387C19.2352 10.2384 18.9928 10.8774 19.2374 11.4209C19.4819 11.9645 20.121 12.2069 20.6644 11.9625C22.0658 11.3321 23.5792 10.7839 25.1617 10.3336C27.6823 9.61824 31.6647 9.26672 37.0065 9.29126C42.3404 9.26743 46.3212 9.61824 48.8408 10.3334C50.4246 10.7842 51.938 11.3323 53.3388 11.9626C53.4826 12.0273 53.633 12.0579 53.7811 12.0579C54.1928 12.0579 54.5861 11.821 54.766 11.4211C55.0106 10.8775 54.7682 10.2385 54.2245 9.99387C52.8207 9.3623 51.3133 8.81006 49.7407 8.34797C58.6222 3.07343 65.2606 1.07358 67.3175 3.1305C69.4465 5.25946 68.6393 11.0583 65.1878 18.8162C64.4316 17.7488 63.5598 16.6975 62.5547 15.6821C62.1354 15.2586 61.4519 15.255 61.0284 15.6744C60.6047 16.0939 60.6012 16.7772 61.0207 17.2008C66.9407 23.1811 67.8247 30.5619 67.8247 34.4292C67.8247 37.924 67.4013 41.4611 66.5664 44.942C65.7895 48.1803 64.1226 51.1087 61.7462 53.4102C59.3668 55.7148 56.3883 57.2815 53.1328 57.9409C50.9542 58.3813 48.7452 58.7371 46.567 58.9982C45.9753 59.0691 45.5528 59.6065 45.6239 60.1984C45.6897 60.7467 46.1555 61.1494 46.6943 61.1494C46.7371 61.1494 46.7805 61.1469 46.8241 61.1416C49.0594 60.8735 51.3259 60.5086 53.5611 60.0566C57.222 59.3151 60.5718 57.5529 63.2481 54.9608C65.9194 52.3735 67.7929 49.0833 68.6655 45.4456C69.5401 41.7999 69.9835 38.0935 69.9835 34.4293C69.9835 31.3247 69.453 26.1318 66.5654 20.9968C67.7217 18.527 69.1713 15.0541 69.9964 11.6499C71.1475 6.89994 70.7598 3.52025 68.8439 1.60429Z" fill="#678490"/>
<path d="M59.5779 40.3444H53.9231C53.3271 40.3444 52.8438 39.8612 52.8438 39.2651C52.8438 38.669 53.327 38.1857 53.9231 38.1857H59.5779C60.1739 38.1857 60.6573 38.6689 60.6573 39.2651C60.6571 39.8611 60.1739 40.3444 59.5779 40.3444Z" fill="#91A2B5"/>
<path d="M58.5498 45.6565C58.4253 45.6565 58.2987 45.6348 58.1751 45.589L53.5485 43.8755C52.9895 43.6685 52.7042 43.0475 52.9112 42.4884C53.1184 41.9294 53.7392 41.6441 54.2983 41.8511L58.9249 43.5646C59.4838 43.7716 59.7692 44.3926 59.5622 44.9517C59.4008 45.3871 58.9884 45.6565 58.5498 45.6565Z" fill="#91A2B5"/>
<path d="M20.0808 40.3444H14.4261C13.83 40.3444 13.3467 39.8612 13.3467 39.2651C13.3467 38.669 13.8299 38.1857 14.4261 38.1857H20.0808C20.6768 38.1857 21.1602 38.6689 21.1602 39.2651C21.1602 39.8611 20.6768 40.3444 20.0808 40.3444Z" fill="#91A2B5"/>
<path d="M15.4548 45.6565C15.0161 45.6565 14.6038 45.3871 14.4425 44.9517C14.2355 44.3928 14.5208 43.7716 15.0797 43.5646L19.7063 41.8511C20.2654 41.6442 20.8863 41.9294 21.0934 42.4884C21.3004 43.0473 21.0151 43.6683 20.4561 43.8755L15.8296 45.5892C15.7059 45.6348 15.5792 45.6565 15.4548 45.6565Z" fill="#91A2B5"/>
<path d="M48.2481 25.7998H45.2815C44.6855 25.7998 44.2021 25.3166 44.2021 24.7204C44.2021 24.1243 44.6853 23.641 45.2815 23.641H48.2481C48.8441 23.641 49.3275 24.1242 49.3275 24.7204C49.3275 25.3166 48.8443 25.7998 48.2481 25.7998Z" fill="white"/>
<path d="M28.7217 25.7998H25.7552C25.1591 25.7998 24.6758 25.3166 24.6758 24.7204C24.6758 24.1243 25.159 23.641 25.7552 23.641H28.7217C29.3178 23.641 29.8011 24.1242 29.8011 24.7204C29.801 25.3166 29.3178 25.7998 28.7217 25.7998Z" fill="white"/>
<path d="M43.2689 33.7762C42.6904 33.6313 42.1043 33.9821 41.9591 34.5602C41.7395 35.4347 40.9549 36.0456 40.0511 36.0456C38.9649 36.0456 38.0811 35.1626 38.0811 34.0774V33.4942H38.5898C39.1858 33.4942 39.6692 33.011 39.6692 32.4148C39.6692 31.8188 39.186 31.3354 38.5898 31.3354H35.4137C34.8176 31.3354 34.3343 31.8186 34.3343 32.4148C34.3343 33.0109 34.8175 33.4942 35.4137 33.4942H35.9224V34.0774C35.9224 35.1626 35.0395 36.0456 33.9542 36.0456C33.0493 36.0456 32.264 35.4348 32.0444 34.5602C31.8992 33.982 31.3128 33.6312 30.7348 33.7761C30.1566 33.9213 29.8056 34.5075 29.9507 35.0857C30.4116 36.9218 32.058 38.2042 33.9542 38.2042C35.16 38.2042 36.2468 37.6844 37.0021 36.857C37.7576 37.6844 38.8449 38.2042 40.0512 38.2042C41.9464 38.2042 43.5919 36.9218 44.0529 35.0859C44.198 34.5078 43.8469 33.9215 43.2689 33.7762Z" fill="#678490"/>
<path d="M26.7259 34.1161C26.4497 34.1161 26.1735 34.0106 25.9626 33.7999C25.1608 32.998 24.0946 32.5563 22.9603 32.5563C21.8261 32.5563 20.7598 32.998 19.9578 33.8001C19.5364 34.2215 18.853 34.2213 18.4313 33.7999C18.0099 33.3784 18.0099 32.695 18.4314 32.2734C19.6412 31.0638 21.2496 30.3976 22.9603 30.3976C24.6711 30.3976 26.2795 31.0638 27.4891 32.2734C27.9105 32.695 27.9105 33.3784 27.4891 33.7999C27.2784 34.0106 27.0021 34.1161 26.7259 34.1161Z" fill="#605C5D"/>
<path d="M54.8081 34.1161C54.5319 34.1161 54.2557 34.0108 54.0448 33.8001C52.3892 32.1445 49.6954 32.1445 48.0398 33.8001C47.6183 34.2215 46.9349 34.2213 46.5133 33.7999C46.0919 33.3783 46.0919 32.695 46.5133 32.2734C49.0105 29.7765 53.0738 29.7765 55.571 32.2734C55.9924 32.695 55.9926 33.3783 55.571 33.7999C55.3606 34.0106 55.0842 34.1161 54.8081 34.1161Z" fill="#605C5D"/>
<path d="M18.4492 64.2212C20.5287 52.5263 25.5407 41.9826 31.4525 43.7203C37.3642 45.4579 29.3963 65.5065 29.3963 65.5065L18.4492 64.2212Z" fill="#B1B9C6"/>
<path d="M55.5535 64.2212C53.474 52.5263 48.462 41.9826 42.5502 43.7203C36.6385 45.4579 44.6065 65.5063 44.6065 65.5063L55.5535 64.2212Z" fill="#B1B9C6"/>
<path d="M29.3955 66.5859C29.2629 66.5859 29.128 66.5612 28.9972 66.5093C28.4433 66.2892 28.1726 65.6617 28.3928 65.1078C30.0404 60.9601 33.9165 49.375 32.0903 45.6271C31.7874 45.0054 31.4072 44.8321 31.1476 44.7557C30.127 44.4556 29.129 44.6205 28.097 45.2596C24.5605 47.4496 21.1906 54.9667 19.5113 64.4101C19.4068 64.997 18.846 65.3874 18.2597 65.2838C17.6728 65.1794 17.2816 64.619 17.386 64.0322C18.8039 56.0581 22.0638 46.4568 26.9606 43.4244C28.5223 42.4573 30.1358 42.2083 31.7563 42.6847C32.7501 42.9769 33.5368 43.6675 34.0308 44.682C35.1593 46.9984 34.8739 51.3078 33.1827 57.4907C31.9602 61.96 30.4618 65.7462 30.3986 65.9051C30.2307 66.3281 29.8247 66.5859 29.3955 66.5859Z" fill="#678490"/>
<path d="M44.6075 66.5859C44.1782 66.5859 43.7725 66.3281 43.6041 65.9049C43.5409 65.746 42.0427 61.96 40.8201 57.4905C39.1288 51.3078 38.8435 46.9982 39.9719 44.6818C40.4661 43.6673 41.2526 42.9767 42.2466 42.6845C43.8674 42.2085 45.4806 42.4571 47.0423 43.4242C51.9392 46.4567 55.1991 56.0579 56.6169 64.0321C56.7212 64.619 56.33 65.1794 55.7432 65.2836C55.1566 65.3881 54.596 64.9967 54.4916 64.41C52.8125 54.9665 49.4423 47.4495 45.906 45.2595C44.8738 44.6205 43.8762 44.4556 42.8554 44.7556C42.5959 44.8318 42.2157 45.0052 41.9127 45.627C40.0866 49.3749 43.9627 60.96 45.6103 65.1076C45.8304 65.6616 45.5598 66.2891 45.0058 66.5091C44.875 66.5613 44.74 66.5859 44.6075 66.5859Z" fill="#678490"/>
</g>
<defs>
<clipPath id="clip0_30_917">
<rect width="73.0435" height="73.0435" fill="white" transform="translate(0.478516 0.173828)"/>
</clipPath>
</defs>
</svg>
