<svg width="74" height="74" viewBox="0 0 74 74" fill="none" xmlns="http://www.w3.org/2000/svg">
<path d="M28.8644 35.7832C19.1923 35.7832 8.18066 36.6208 8.18066 42.4157C8.18066 48.2105 28.0012 49.8661 25.5412 55.1642C23.0814 60.4621 21.208 64.7368 28.8643 66.7735C36.5205 68.8102 66.2934 62.1179 64.6377 54.502C62.9821 46.886 54.8913 48.2082 57.1983 43.5736C59.5054 38.9387 44.25 35.7832 28.8644 35.7832Z" fill="white"/>
<path d="M7.42528 55.9142C16.0655 57.8405 23.1255 55.7853 23.1255 55.7853L15.655 48.312C14.5233 47.1803 11.8231 48.0452 9.62418 50.2441C7.63356 52.2349 6.7334 54.6389 7.42528 55.9142Z" fill="white"/>
<path d="M15.0635 57.5287C12.7539 57.5287 10.0928 57.3128 7.25452 56.6802C7.03312 56.6308 6.84382 56.488 6.73554 56.2884C5.85236 54.6603 6.812 51.9467 9.06925 49.6893C11.6553 47.1032 14.7251 46.2725 16.2098 47.7572L23.6803 55.2306C23.8763 55.4266 23.9543 55.7118 23.8854 55.9803C23.8165 56.2489 23.6109 56.4612 23.3447 56.5386C23.1449 56.5969 19.8631 57.5287 15.0635 57.5287ZM8.00903 55.2378C14.0176 56.495 19.2175 55.8 21.5691 55.3382L15.1002 48.8667C14.3946 48.1614 12.1404 48.8378 10.179 50.799C8.51803 52.46 7.81445 54.276 8.00903 55.2378Z" fill="#E3E3E3"/>
<path d="M5.90019 51.8524C5.14269 51.0949 5.72202 49.2873 7.19423 47.8151C8.66644 46.3429 10.474 45.7634 11.2315 46.5209C11.4137 46.7031 12.0785 47.3678 12.2605 47.5499C13.018 48.3074 12.4387 50.115 10.9663 51.5872C9.49413 53.0594 7.68653 53.6387 6.92903 52.8812C6.74714 52.6992 6.08222 52.0344 5.90019 51.8524Z" fill="#F5DDD9"/>
<path d="M7.84972 53.9974C7.26598 53.9974 6.7537 53.8155 6.37437 53.4362L5.34539 52.4072C4.24723 51.3089 4.80359 49.0963 6.63943 47.2603C7.43816 46.4615 8.36215 45.8665 9.24148 45.5846C10.298 45.2458 11.2017 45.3815 11.7863 45.9661L12.8153 46.9951C13.3999 47.5797 13.5354 48.4836 13.1968 49.5399C12.9149 50.4193 12.3199 51.3432 11.5211 52.142C10.3194 53.3439 8.95617 53.9974 7.84972 53.9974ZM10.3177 46.9718C9.76817 46.9718 8.7526 47.3664 7.74901 48.3699C6.43957 49.6793 6.16695 51.0096 6.45497 51.2975L7.48395 52.3264C7.77212 52.6146 9.10225 52.3418 10.4115 51.0324C11.0278 50.4161 11.4984 49.6976 11.7024 49.061C11.8743 48.5248 11.8117 48.2107 11.7057 48.1048L10.6767 47.0758C10.6096 47.0085 10.4853 46.9718 10.3177 46.9718Z" fill="#E9B5AC"/>
<path d="M65.3995 42.468L65.2577 42.518C61.85 43.717 58.1324 43.6994 54.7363 42.468L60.0664 37.138C60.8228 36.3814 62.6318 36.9591 64.1036 38.4308C65.5753 39.9056 66.1558 41.7115 65.3995 42.468Z" fill="#F5DDD9"/>
<path d="M60.0677 44.1866C58.1698 44.1866 56.2725 43.8596 54.4693 43.2057C54.2171 43.1143 54.0291 42.9003 53.9709 42.6384C53.9127 42.3765 53.9923 42.103 54.1818 41.9132L59.5121 36.5832C60.0962 35.999 60.9997 35.8635 62.0563 36.2016C62.9364 36.4832 63.8606 37.0779 64.6589 37.8761C66.4938 39.7146 67.0507 41.9269 65.9548 43.0228C65.8718 43.106 65.7711 43.1693 65.6604 43.2083L65.5186 43.2582C63.7591 43.8772 61.9131 44.1866 60.0677 44.1866ZM56.2056 42.1088C59.0595 42.8756 62.1034 42.776 64.9096 41.8085C65.0727 41.382 64.7371 40.1761 63.5485 38.9851C62.9334 38.3699 62.2148 37.8999 61.578 37.696C61.0759 37.5356 60.7358 37.5785 60.6216 37.6926L56.2056 42.1088Z" fill="#E9B5AC"/>
<path d="M67.4525 49.6616C69.5555 49.6616 71.2604 48.5578 71.2604 47.1962C71.2604 45.8346 69.5555 44.7308 67.4525 44.7308C65.3494 44.7308 63.6445 45.8346 63.6445 47.1962C63.6445 48.5578 65.3494 49.6616 67.4525 49.6616Z" fill="#777677"/>
<path d="M33.6871 61.9021C33.6871 59.7351 31.9304 57.9785 29.7635 57.9785C27.5965 57.9785 25.8398 59.7351 25.8398 61.9021C25.8398 61.9021 28.9536 63.1272 33.6871 61.9021Z" fill="#777677"/>
<path d="M29.5455 63.2324C27.1196 63.2324 25.6438 62.6681 25.553 62.6323C25.2528 62.5142 25.0557 62.2246 25.0557 61.9022C25.0557 59.3062 27.1678 57.194 29.7639 57.194C32.36 57.194 34.4721 59.3062 34.4721 61.9022C34.4721 62.2599 34.2303 62.5721 33.8841 62.6619C32.2336 63.0888 30.7686 63.2324 29.5455 63.2324ZM26.6765 61.3332C27.654 61.5758 29.8752 61.9419 32.8441 61.2965C32.5611 59.8545 31.2875 58.7631 29.7637 58.7631C28.2272 58.7632 26.9449 59.8731 26.6765 61.3332Z" fill="#605C5D"/>
<path d="M14.3463 40.729C14.3463 38.5621 12.5896 36.8054 10.4226 36.8054C8.25569 36.8054 6.49902 38.5621 6.49902 40.729C6.49902 40.729 9.61292 41.954 14.3463 40.729Z" fill="#777677"/>
<path d="M10.2047 42.0592C7.77879 42.0592 6.30302 41.4948 6.21214 41.4592C5.91199 41.341 5.71484 41.0514 5.71484 40.729C5.71484 38.133 7.82701 36.0208 10.4231 36.0208C13.0191 36.0208 15.1313 38.133 15.1313 40.729C15.1313 41.0867 14.8895 41.399 14.5433 41.4887C12.8929 41.9158 11.4279 42.0592 10.2047 42.0592ZM7.3357 40.16C8.31318 40.4025 10.5343 40.7687 13.5033 40.1233C13.2203 38.6814 11.9466 37.5899 10.4229 37.5899C8.88652 37.59 7.60418 38.6999 7.3357 40.16Z" fill="#605C5D"/>
<path d="M56.5413 5.71834C54.1011 3.27835 46.3279 7.71681 42.9043 9.86849C41.2098 9.58675 39.0241 9.47105 36.521 9.48232C34.0175 9.47105 31.8316 9.58689 30.137 9.86864C26.7123 7.71524 18.9395 3.27977 16.5009 5.71834C14.079 8.14021 16.8443 14.7891 18.2643 17.7515C16.5848 20.5881 15.9717 23.6946 15.9717 26.3697C15.9717 28.6829 16.2473 30.9932 16.8014 33.3035C17.8744 37.7759 21.391 41.2174 25.8826 42.1714L25.3362 42.5897C23.2232 50.5173 28.2835 53.8828 31.757 53.0752C32.287 52.8885 32.7342 52.5348 33.107 52.0433C34.1478 52.4811 35.3029 52.727 36.5209 52.727C37.7387 52.727 38.8938 52.4812 39.9346 52.0433C40.3074 52.5348 40.7546 52.8885 41.2846 53.0752C44.7581 53.8828 49.8186 50.5173 47.7054 42.5897L47.1592 42.1714C51.6509 41.2175 55.1676 37.7761 56.2407 33.3035C56.7948 30.9932 57.0704 28.6829 57.0704 26.3697C57.0704 23.6952 56.4575 20.5895 54.779 17.7535C56.1956 14.794 58.964 8.14107 56.5413 5.71834Z" fill="#B1B9C6"/>
<path d="M39.0057 11.1335C39.0057 14.9624 37.8916 18.0644 36.5223 18.0644C35.1503 18.0644 34.0361 14.9625 34.0361 11.1335C34.0361 10.6086 34.0567 10.0985 34.0976 9.6089C35.7131 9.53558 37.3285 9.53558 38.9439 9.61176C38.9852 10.1014 39.0057 10.6115 39.0057 11.1335Z" fill="#91A2B5"/>
<path d="M33.6698 9.87563C33.6698 13.7017 32.5586 16.8066 31.1864 16.8066C29.8671 16.8066 28.7822 13.9188 28.7061 10.2832C29.5591 10.0604 30.4418 9.90217 31.3448 9.81115C32.1187 9.73498 32.8927 9.67335 33.6668 9.63226C33.6698 9.71429 33.6698 9.79346 33.6698 9.87563Z" fill="#91A2B5"/>
<path d="M44.3358 10.2508C44.2655 13.901 43.1806 16.8065 41.8554 16.8065C40.4834 16.8065 39.3721 13.7017 39.3721 9.87551C39.3721 9.79334 39.3721 9.71417 39.3751 9.63214C40.2634 9.67908 41.1547 9.75226 42.0432 9.84613C42.8259 9.92844 43.5911 10.0661 44.3358 10.2508Z" fill="#91A2B5"/>
<path d="M53.6825 11.6085C53.6825 11.6085 54.0784 12.5057 54.1429 13.5113C54.2045 14.4407 53.6444 15.1501 52.9115 15.4463C51.3722 13.696 49.4723 12.2653 47.3262 11.2713C47.3467 10.767 47.5578 10.2715 47.9683 9.89921C49.6159 8.40103 51.894 6.78559 53.5066 7.44238C56.3152 8.58877 53.6825 11.6085 53.6825 11.6085Z" fill="white"/>
<path d="M19.357 11.6085C19.357 11.6085 18.9612 12.5057 18.8967 13.5113C18.8351 14.4407 19.3951 15.1501 20.1281 15.4463C21.6674 13.696 23.5673 12.2653 25.7134 11.2713C25.6928 10.767 25.4817 10.2715 25.0713 9.89921C23.4236 8.40103 21.1455 6.78559 19.5329 7.44238C16.7242 8.58877 19.357 11.6085 19.357 11.6085Z" fill="white"/>
<path d="M57.0947 5.16285C54.5233 2.59147 47.9219 5.81351 42.7355 9.04866C41.1112 8.80458 39.0338 8.68632 36.5242 8.69759C34.0116 8.68732 31.931 8.80529 30.3048 9.04923C25.1164 5.8155 18.5133 2.59418 15.9446 5.16271C13.3388 7.76847 15.6328 13.9851 17.3777 17.7133C15.5276 21.0252 15.1867 24.3679 15.1867 26.3697C15.1867 28.7367 15.4731 31.1311 16.038 33.4867C17.1859 38.2712 21.032 41.9917 25.8368 42.965C29.381 43.6816 32.9756 44.0448 36.5206 44.0448C40.0656 44.0448 43.6601 43.6816 47.2047 42.965C52.0092 41.9917 55.8554 38.2712 57.0032 33.4867C57.5683 31.1311 57.8546 28.7368 57.8546 26.3698C57.8546 24.3682 57.5136 21.0255 55.6638 17.7139C57.4061 13.9843 59.6968 7.7649 57.0947 5.16285ZM55.4775 33.1206C54.4715 37.314 51.102 40.5744 46.8936 41.4269C43.4516 42.1228 39.9616 42.4756 36.5208 42.4756C33.0799 42.4756 29.59 42.1228 26.1481 41.4269C21.9395 40.5744 18.5699 37.3139 17.5639 33.1206C17.0277 30.8849 16.7558 28.6135 16.7558 26.3697C16.7558 23.8923 17.3218 19.1647 21.1126 15.3351C21.4175 15.0271 21.4149 14.5304 21.1069 14.2255C20.7989 13.9207 20.302 13.9231 19.9973 14.2311C19.3862 14.8485 18.8529 15.4867 18.3845 16.1344C16.26 11.3058 15.7412 7.58487 17.054 6.27215C18.335 4.99138 22.4972 6.24518 28.0949 9.54482C27.1493 9.83142 26.2395 10.1661 25.39 10.5484C24.9947 10.7262 24.8185 11.1906 24.9964 11.5858C25.1742 11.9811 25.6385 12.1576 26.0338 11.9794C26.9323 11.5752 27.9031 11.2236 28.9185 10.9346C30.5341 10.4761 33.0913 10.251 36.5241 10.2665C39.9515 10.25 42.5072 10.4759 44.1221 10.9344C45.1381 11.2236 46.1087 11.5751 47.0073 11.9794C47.1117 12.0265 47.2211 12.0487 47.3287 12.0487C47.628 12.0487 47.914 11.8764 48.0447 11.5858C48.2226 11.1906 48.0463 10.7262 47.6511 10.5484C46.801 10.1659 45.8906 9.83099 44.9438 9.54411C50.5399 6.2429 54.7023 4.98938 55.9849 6.27215C57.3169 7.60398 56.8126 11.2453 54.6571 16.135C54.1885 15.487 53.6551 14.8485 53.0438 14.2309C52.7389 13.9228 52.2421 13.9205 51.9342 14.2254C51.6262 14.5302 51.6236 15.027 51.9286 15.335C55.7195 19.1644 56.2855 23.8922 56.2855 26.3696C56.2855 28.6135 56.0137 30.8849 55.4775 33.1206Z" fill="#678490"/>
<path d="M45.23 30.5006C46.5031 30.5006 47.5352 29.1632 47.5352 27.5135C47.5352 25.8638 46.5031 24.5264 45.23 24.5264C43.9569 24.5264 42.9248 25.8638 42.9248 27.5135C42.9248 29.1632 43.9569 30.5006 45.23 30.5006Z" fill="#605C5D"/>
<path d="M30.1172 27.5135C30.1172 25.8638 29.0851 24.5264 27.812 24.5264C26.539 24.5264 25.5068 25.8638 25.5068 27.5135C25.5068 29.1632 26.539 30.5006 27.812 30.5006C29.0851 30.5006 30.1172 29.1632 30.1172 27.5135Z" fill="#605C5D"/>
<path d="M51.0628 32.3216H47.4204C46.987 32.3216 46.6357 31.9704 46.6357 31.537C46.6357 31.1036 46.987 30.7524 47.4204 30.7524H51.0628C51.4962 30.7524 51.8474 31.1036 51.8474 31.537C51.8474 31.9704 51.496 32.3216 51.0628 32.3216Z" fill="#91A2B5"/>
<path d="M50.4006 35.7434C50.3101 35.7434 50.218 35.7277 50.1282 35.6943L47.1481 34.5905C46.7417 34.44 46.5344 33.9885 46.6847 33.5823C46.8352 33.1758 47.2867 32.9683 47.693 33.1189L50.6731 34.2226C51.0796 34.3731 51.2868 34.8246 51.1365 35.2309C51.0192 35.5476 50.7193 35.7434 50.4006 35.7434Z" fill="#91A2B5"/>
<path d="M25.6214 32.3216H21.9789C21.5456 32.3216 21.1943 31.9704 21.1943 31.537C21.1943 31.1036 21.5456 30.7524 21.9789 30.7524H25.6214C26.0548 30.7524 26.406 31.1036 26.406 31.537C26.406 31.9704 26.0548 32.3216 25.6214 32.3216Z" fill="#91A2B5"/>
<path d="M22.6413 35.7433C22.3225 35.7433 22.0228 35.5475 21.9055 35.2311C21.755 34.8248 21.9624 34.3733 22.3688 34.2228L25.3489 33.119C25.7548 32.9688 26.2067 33.176 26.3572 33.5824C26.5077 33.9887 26.3003 34.4402 25.8939 34.5907L22.9138 35.6944C22.8239 35.7276 22.7318 35.7433 22.6413 35.7433Z" fill="#91A2B5"/>
<path d="M43.7654 22.3528C43.6556 22.3528 43.5441 22.3296 43.4379 22.2808L41.527 21.4013C41.1334 21.2201 40.9612 20.7541 41.1424 20.3605C41.3236 19.9669 41.7892 19.7947 42.1832 19.9759L44.0941 20.8554C44.4877 21.0365 44.6599 21.5026 44.4787 21.8962C44.3463 22.1833 44.0623 22.3528 43.7654 22.3528Z" fill="white"/>
<path d="M29.2774 22.3528C28.9805 22.3528 28.6965 22.1835 28.5643 21.896C28.3831 21.5024 28.5553 21.0364 28.9489 20.8552L30.8597 19.9757C31.2532 19.7947 31.7194 19.9666 31.9006 20.3603C32.0817 20.7539 31.9095 21.22 31.516 21.4011L29.6051 22.2806C29.4987 22.3295 29.3871 22.3528 29.2774 22.3528Z" fill="white"/>
<path d="M33.6709 34.3823C33.6709 34.5112 33.6739 34.6373 33.6797 34.7576C33.7999 37.0357 35.0256 37.6103 36.5207 37.6103C38.0161 37.6103 39.2445 37.0357 39.3646 34.7606C39.3704 34.6403 39.3734 34.5144 39.3734 34.3824C39.3734 31.7906 38.0951 29.6914 36.5207 29.6914C34.9462 29.6913 33.6709 31.7906 33.6709 34.3823Z" fill="#678490"/>
<path d="M33.6797 34.7576C33.7998 37.0357 35.0255 37.6103 36.5207 37.6103C38.016 37.6103 39.2444 37.0357 39.3645 34.7606C38.7049 33.6553 37.6758 32.9457 36.5207 32.9457C35.3656 32.9457 34.3393 33.6553 33.6797 34.7576Z" fill="#F5DDD9"/>
<path d="M37.3053 29.0307V27.9092H37.5435C37.9769 27.9092 38.3281 27.558 38.3281 27.1246C38.3281 26.6912 37.9769 26.34 37.5435 26.34H35.4977C35.0643 26.34 34.713 26.6912 34.713 27.1246C34.713 27.558 35.0643 27.9092 35.4977 27.9092H35.736V29.0307C34.0868 29.5574 32.8848 31.719 32.8848 34.3824C32.8848 37.0079 34.142 38.3955 36.5206 38.3955C38.8992 38.3955 40.1564 37.0079 40.1564 34.3824C40.1564 31.719 38.9545 29.5574 37.3053 29.0307ZM36.5206 36.8263C35.2447 36.8263 34.454 36.4174 34.454 34.3824C34.454 32.0804 35.5432 30.4761 36.5206 30.4761C37.4981 30.4761 38.5872 32.0804 38.5872 34.3824C38.5872 35.8911 38.2415 36.8263 36.5206 36.8263Z" fill="#678490"/>
<path d="M41.2837 53.0754C39.1689 52.3304 38.37 48.9313 38.38 44.6859C38.39 40.4403 39.7061 37.313 41.3198 37.7009C42.9334 38.0888 44.2336 41.8448 44.2236 46.0904C44.2208 47.335 44.1055 48.4835 43.9035 49.4756L41.2837 53.0754Z" fill="#B1B9C6"/>
<path d="M31.7563 53.0754C33.8712 52.3304 34.6701 48.9313 34.6601 44.6859C34.6501 40.4403 33.334 37.313 31.7202 37.7009C30.1066 38.0888 28.8065 41.8448 28.8165 46.0904C28.8195 47.335 28.9346 48.4835 29.1366 49.4756L31.7563 53.0754Z" fill="#B1B9C6"/>
<path d="M42.3395 53.9797C41.9247 53.9797 41.5116 53.9337 41.1066 53.8396C41.0785 53.833 41.0508 53.825 41.0235 53.8155C38.7368 53.0101 37.5835 49.9378 37.5958 44.6842C37.6039 41.2108 38.4373 38.4019 39.7707 37.3535C40.3008 36.9368 40.9003 36.7929 41.5036 36.9381C43.7928 37.4883 45.0181 42.0652 45.0085 46.0924C45.0055 47.3617 44.8925 48.5528 44.6725 49.6324C44.586 50.0571 44.1707 50.3308 43.7471 50.2447C43.3224 50.1582 43.0484 49.7439 43.1349 49.3192C43.3312 48.355 43.4364 47.2379 43.4391 46.0888C43.4437 44.1211 43.1597 42.2094 42.6393 40.7058C42.1153 39.1917 41.5023 38.5518 41.1367 38.464C41.0772 38.4497 40.9532 38.4199 40.7404 38.5872C39.6656 39.4322 39.1703 42.3419 39.1647 44.6879C39.1547 48.9749 40.0074 51.7515 41.5057 52.3213C42.9317 52.6339 44.5777 52.0838 45.7125 50.9121C46.7078 49.8845 48.1915 47.4629 46.9465 42.7923C46.8349 42.3736 47.0839 41.9436 47.5026 41.8321C47.9215 41.7208 48.3512 41.9695 48.4628 42.3882C49.9067 47.8054 48.0656 50.738 46.8398 52.0039C45.6092 53.2747 43.9644 53.9795 42.3395 53.9797Z" fill="#678490"/>
<path d="M30.7011 53.9797C29.0761 53.9797 27.4316 53.2747 26.2005 52.0036C24.9745 50.7377 23.1335 47.8051 24.5775 42.3879C24.689 41.9692 25.1187 41.7204 25.5377 41.8318C25.9564 41.9433 26.2053 42.3733 26.0938 42.792C24.8488 47.4627 26.3326 49.8842 27.3277 50.9119C28.4624 52.0835 30.1081 52.6336 31.5345 52.321C33.0329 51.7512 33.8855 48.9746 33.8755 44.6876C33.87 42.3416 33.3747 39.4319 32.2999 38.5869C32.087 38.4194 31.9632 38.4495 31.9036 38.4637C31.538 38.5515 30.9251 39.1915 30.401 40.7055C29.8806 42.2091 29.5966 44.1208 29.6011 46.0885C29.6038 47.2373 29.7091 48.3543 29.9054 49.3191C29.9919 49.7436 29.7177 50.1579 29.2931 50.2444C28.8687 50.3314 28.4543 50.0568 28.3677 49.6321C28.1477 48.5522 28.0349 47.3611 28.0318 46.0921C28.0223 42.065 29.2476 37.488 31.5368 36.9378C32.14 36.7926 32.7394 36.9362 33.2697 37.3532C34.6031 38.4016 35.4365 41.2105 35.4446 44.6839C35.4569 49.9375 34.3036 53.0098 32.017 53.8152C31.9899 53.8248 31.9621 53.8329 31.9341 53.8393C31.5293 53.9337 31.1158 53.9797 30.7011 53.9797Z" fill="#678490"/>
<path d="M54.6343 53.1527C54.6343 50.9857 52.8777 49.2291 50.7107 49.2291C48.5438 49.2291 46.7871 50.9857 46.7871 53.1527C46.7871 53.1527 49.901 54.3778 54.6343 53.1527Z" fill="#777677"/>
<path d="M50.4927 54.483C48.0669 54.483 46.5912 53.9186 46.5002 53.8828C46.2001 53.7647 46.0029 53.4751 46.0029 53.1527C46.0029 50.5566 48.1151 48.4445 50.7112 48.4445C53.3072 48.4445 55.4192 50.5566 55.4192 53.1527C55.4192 53.5103 55.1774 53.8226 54.8312 53.9123C53.1808 54.3394 51.7159 54.483 50.4927 54.483ZM47.6238 52.5838C48.6011 52.8263 50.8226 53.1923 53.7914 52.5471C53.5084 51.1051 52.2347 50.0137 50.7112 50.0137C49.1746 50.0137 47.8923 51.1235 47.6238 52.5838Z" fill="#605C5D"/>
<path d="M50.2408 56.655C50.2408 54.023 48.0523 51.8895 45.3528 51.8895C42.6532 51.8895 40.4648 54.0232 40.4648 56.655C40.4648 56.655 44.344 58.1429 50.2408 56.655Z" fill="#777677"/>
<path d="M45.0772 58.1033C42.1011 58.1033 40.2957 57.4302 40.1842 57.3876C39.881 57.2712 39.6807 56.9799 39.6807 56.655C39.6807 53.5946 42.2254 51.1049 45.3532 51.1049C48.4811 51.1049 51.026 53.5946 51.026 56.655C51.026 57.0144 50.7819 57.3278 50.4334 57.4158C48.3928 57.9305 46.5848 58.1033 45.0772 58.1033ZM41.2915 56.0864C41.7255 56.2001 42.4067 56.3472 43.293 56.4401C44.6631 56.5834 46.7985 56.6209 49.4087 56.0456C49.1055 54.1387 47.4024 52.6739 45.3532 52.6739C43.2894 52.6739 41.5766 54.1596 41.2915 56.0864Z" fill="#605C5D"/>
</svg>
