<svg width="74" height="74" viewBox="0 0 74 74" fill="none" xmlns="http://www.w3.org/2000/svg">
<g clip-path="url(#clip0_30_494)">
<path d="M56.1911 34.0432H19.5068V67.7193H56.1911V34.0432Z" fill="#B1B9C6"/>
<path d="M18.5622 51.7238C21.6079 27.3546 7.70955 6.51877 7.50098 6.20734C7.7124 6.32189 17.7045 11.7702 23.0501 28.4853L18.5622 51.7238Z" fill="#F5DDD9"/>
<path d="M27.0973 51.9176C30.1432 27.5513 16.2446 6.71534 16.0391 6.40405C16.2505 6.51861 26.2396 11.9641 31.5881 28.6792L27.0973 51.9176Z" fill="#F5DDD9"/>
<path d="M19.341 51.821L17.7808 51.626C20.7428 27.9353 7.52931 7.67076 6.85594 6.65728C6.76178 6.52204 6.7147 6.36382 6.71484 6.20561C6.71499 6.00488 6.79131 5.80416 6.94425 5.65122C7.20931 5.3863 7.61519 5.34878 7.91863 5.5408C8.75464 6.00588 18.5182 11.7365 23.7993 28.2445L22.3018 28.7235C20.7981 24.0235 17.9242 17.2467 12.7719 11.6541C11.8135 10.6136 10.9171 9.76705 10.1332 9.09225C13.9529 16.0113 21.7146 32.8368 19.341 51.821Z" fill="#E9B5AC"/>
<path d="M71.7713 8.97526C71.5663 9.01891 63.0861 10.8518 54.3882 20.9424C57.6295 11.7712 61.588 5.83639 61.6985 5.67133C61.4871 5.78588 51.495 11.2342 46.1494 27.9493L48.968 42.5437L48.2992 49.5111C48.5777 47.8083 48.9339 46.1474 49.3512 44.5279L50.6373 51.1877C50.2173 47.8268 50.1209 44.5339 50.265 41.3521C56.5048 21.734 71.5169 9.18683 71.7713 8.97526Z" fill="#F5DDD9"/>
<path d="M71.9493 8.91607C71.7424 8.4935 71.2605 8.2845 70.8097 8.41903C69.8496 8.7055 68.1011 9.31966 65.8851 10.5028C62.6419 12.2341 59.4591 14.6219 56.5312 17.503C59.2343 10.9058 61.9818 6.66813 62.3331 6.13756C62.4354 5.99975 62.4864 5.83626 62.4866 5.67276C62.4867 5.47118 62.4095 5.26946 62.2555 5.11524C61.9981 4.85802 61.6056 4.81764 61.3046 4.99183C60.6518 5.35006 50.7371 11.0263 45.4004 27.7085L46.8979 28.1876C49.6222 19.6721 53.584 14.205 56.4278 11.1181C57.3859 10.0781 58.2822 9.23149 59.0659 8.5567C55.9391 14.2204 50.1728 26.5215 49.485 41.2121C48.6286 43.919 47.969 46.6677 47.5256 49.384L49.0775 49.6372C49.2024 48.8723 49.3469 48.1043 49.5065 47.3355C49.5783 48.6397 49.693 49.9568 49.859 51.2849L51.4192 51.0898C51.0096 47.8136 50.91 44.6034 51.043 41.5002C56.5632 24.2329 68.9307 12.536 71.7256 10.0549C72.048 9.76876 72.1389 9.30325 71.9493 8.91607ZM68.4315 11.0007C64.298 15.0921 56.5943 23.7352 51.5865 35.5341C52.3091 30.307 53.6092 25.5061 55.0637 21.3637C60.1868 15.4493 65.2136 12.4537 68.4315 11.0007Z" fill="#E9B5AC"/>
<path d="M27.8779 52.0159L26.3178 51.8207C29.2803 28.1265 16.0664 7.86536 15.3929 6.85202C15.2989 6.71692 15.2518 6.55871 15.252 6.4005C15.2521 6.19963 15.3284 5.99904 15.4814 5.84611C15.7461 5.58118 16.152 5.54352 16.4556 5.73569C17.2906 6.20005 27.055 11.9304 32.3364 28.4394L30.8389 28.9184C29.3352 24.2184 26.4614 17.4418 21.309 11.8489C20.3509 10.8089 19.4545 9.96236 18.6709 9.28771C22.4908 16.2069 30.2517 33.0303 27.8779 52.0159Z" fill="#E9B5AC"/>
<path d="M57.4107 17.7122C54.9663 15.2679 47.1791 19.7142 43.7493 21.8699C42.0517 21.5875 39.8622 21.4717 37.3546 21.483C34.8465 21.4717 32.6568 21.5877 30.9591 21.87C27.5282 19.7127 19.7415 15.2693 17.2986 17.7122C14.8723 20.1384 17.6425 26.7993 19.0652 29.767C17.3827 32.6087 16.7684 35.7207 16.7684 38.4007C16.7684 40.7181 17.0445 43.0325 17.5996 45.3469C18.6834 49.8642 22.255 53.3329 26.8075 54.2552C30.3233 54.966 33.8389 55.3215 37.3547 55.3215C40.8704 55.3215 44.3861 54.9661 47.9019 54.2552C52.4544 53.3331 56.026 49.8642 57.1098 45.3469C57.6649 43.0325 57.941 40.7179 57.941 38.4007C57.941 35.7215 57.327 32.6101 55.6455 29.7691C57.0645 26.8042 59.8377 20.1392 57.4107 17.7122Z" fill="#B1B9C6"/>
<path d="M39.8446 23.1369C39.8446 26.9727 38.7285 30.0802 37.3568 30.0802C35.9823 30.0802 34.8662 26.9727 34.8662 23.1369C34.8662 22.6112 34.8868 22.1002 34.9278 21.6097C36.5462 21.5362 38.1646 21.5362 39.783 21.6125C39.8242 22.1032 39.8446 22.6142 39.8446 23.1369Z" fill="#91A2B5"/>
<path d="M34.4989 21.8769C34.4989 25.7098 33.3857 28.8201 32.0111 28.8201C30.6894 28.8201 29.6027 25.9271 29.5264 22.285C30.3811 22.0618 31.2651 21.9033 32.1698 21.8122C32.9451 21.7359 33.7205 21.6741 34.4959 21.6331C34.4989 21.7154 34.4989 21.7947 34.4989 21.8769Z" fill="#91A2B5"/>
<path d="M45.1836 22.2529C45.1131 25.9096 44.0263 28.8203 42.6987 28.8203C41.3241 28.8203 40.2109 25.7099 40.2109 21.877C40.2109 21.7947 40.2109 21.7155 40.2139 21.6332C41.1039 21.6801 41.9968 21.7536 42.8867 21.8476C43.6709 21.9298 44.4376 22.0677 45.1836 22.2529Z" fill="#91A2B5"/>
<path d="M54.5474 23.6129C54.5474 23.6129 54.9439 24.5117 55.0085 25.519C55.0702 26.4501 54.5092 27.1608 53.7749 27.4574C52.2329 25.7039 50.3296 24.2707 48.1797 23.2749C48.2002 22.7698 48.4117 22.2735 48.823 21.9004C50.4736 20.3996 52.7557 18.7812 54.3711 19.4392C57.185 20.5876 54.5474 23.6129 54.5474 23.6129Z" fill="white"/>
<path d="M20.1608 23.6129C20.1608 23.6129 19.7642 24.5117 19.6997 25.519C19.6381 26.4501 20.199 27.1608 20.9333 27.4574C22.4754 25.7039 24.3786 24.2707 26.5286 23.2749C26.508 22.7698 26.2964 22.2735 25.8853 21.9004C24.2347 20.3996 21.9525 18.7812 20.337 19.4392C17.5232 20.5876 20.1608 23.6129 20.1608 23.6129Z" fill="white"/>
<path d="M57.9657 17.1554C55.3895 14.5792 48.7764 17.807 43.5808 21.0483C41.9527 20.8035 39.8704 20.6846 37.3583 20.6966C34.8408 20.6848 32.7564 20.8036 31.1273 21.0486C25.9297 17.809 19.3148 14.5821 16.7417 17.1554C14.1312 19.7662 16.4292 25.9938 18.1774 29.7286C16.324 33.0464 15.9825 36.3953 15.9825 38.4005C15.9825 40.772 16.2694 43.1709 16.8353 45.5303C17.9853 50.3235 21.8384 54.0505 26.6515 55.0256C26.7042 55.0363 26.7567 55.0415 26.8085 55.0415C27.1747 55.0415 27.5025 54.7841 27.5781 54.4112C27.6643 53.9856 27.3893 53.5708 26.9637 53.4846C22.7477 52.6305 19.3722 49.3642 18.3643 45.1635C17.8271 42.9241 17.5548 40.6488 17.5548 38.4005C17.5548 35.9188 18.1219 31.1825 21.9194 27.3463C22.2249 27.0377 22.2224 26.54 21.9137 26.2344C21.6053 25.9289 21.1074 25.9312 20.8019 26.2401C20.1898 26.8585 19.6556 27.4978 19.1864 28.1466C17.0583 23.3096 16.5384 19.5823 17.8537 18.2671C19.1366 16.9842 23.3061 18.24 28.9138 21.5455C27.9666 21.8325 27.0553 22.1678 26.2043 22.5507C25.8084 22.7289 25.6316 23.1942 25.8098 23.5901C25.9879 23.986 26.4534 24.1626 26.8494 23.9846C27.7496 23.5796 28.722 23.2275 29.7392 22.9379C31.3576 22.4785 33.9198 22.2541 37.3584 22.2686C40.7893 22.2516 43.3523 22.4785 44.9701 22.9377C45.9878 23.2273 46.9602 23.5796 47.8604 23.9846C47.9651 24.0317 48.0745 24.0539 48.1824 24.0539C48.4823 24.0538 48.7689 23.8813 48.8998 23.59C49.078 23.1941 48.9013 22.7286 48.5054 22.5505C47.6538 22.1673 46.7419 21.8318 45.7936 21.5446C51.3993 18.2378 55.5691 16.9821 56.8539 18.2669C58.1882 19.6013 57.6832 23.2487 55.5238 28.1471C55.0545 27.4979 54.5202 26.8585 53.9077 26.2398C53.6023 25.9311 53.1044 25.9286 52.796 26.2341C52.4874 26.5395 52.4848 27.0373 52.7903 27.3459C56.588 31.1822 57.1549 35.9183 57.1549 38.4001C57.1549 40.6479 56.8826 42.9234 56.3454 45.163C55.3375 49.3639 51.9621 52.6302 47.746 53.4842C47.3204 53.5703 47.0454 53.9852 47.1315 54.4108C47.2072 54.7837 47.535 55.041 47.9012 55.041C47.953 55.041 48.0055 55.0359 48.0581 55.0252C52.8713 54.0501 56.7245 50.323 57.8744 45.5297C58.4403 43.17 58.7272 40.7713 58.7272 38.4C58.7272 36.3947 58.3857 33.0461 56.5326 29.7285C58.2778 25.9928 60.5725 19.7625 57.9657 17.1554Z" fill="#678490"/>
<path d="M51.9234 44.3633H48.2745C47.8402 44.3633 47.4883 44.0113 47.4883 43.5771C47.4883 43.1428 47.8402 42.7909 48.2745 42.7909H51.9234C52.3577 42.7909 52.7096 43.1428 52.7096 43.5771C52.7095 44.0113 52.3575 44.3633 51.9234 44.3633Z" fill="#91A2B5"/>
<path d="M26.4361 44.3633H22.7872C22.3529 44.3633 22.001 44.0113 22.001 43.5771C22.001 43.1428 22.3529 42.7909 22.7872 42.7909H26.4361C26.8704 42.7909 27.2223 43.1428 27.2223 43.5771C27.2223 44.0113 26.8702 44.3633 26.4361 44.3633Z" fill="#91A2B5"/>
<path d="M44.6126 37.9149H42.6983C42.2641 37.9149 41.9121 37.563 41.9121 37.1287C41.9121 36.6944 42.2641 36.3425 42.6983 36.3425H44.6126C45.0467 36.3425 45.3988 36.6944 45.3988 37.1287C45.3988 37.563 45.0468 37.9149 44.6126 37.9149Z" fill="white"/>
<path d="M32.012 37.9149H30.0977C29.6635 37.9149 29.3115 37.563 29.3115 37.1287C29.3115 36.6944 29.6635 36.3425 30.0977 36.3425H32.012C32.4463 36.3425 32.7982 36.6944 32.7982 37.1287C32.7982 37.563 32.4463 37.9149 32.012 37.9149Z" fill="white"/>
<path d="M39.322 41.41C38.6706 41.41 38.1405 40.8804 38.1405 40.2296V39.943H38.379C38.8133 39.943 39.1652 39.5911 39.1652 39.1568C39.1652 38.7227 38.8133 38.3706 38.379 38.3706H36.3295C35.8952 38.3706 35.5433 38.7225 35.5433 39.1568C35.5433 39.5911 35.8952 39.943 36.3295 39.943H36.5682V40.2296C36.5682 40.8804 36.0386 41.41 35.3878 41.41C34.9535 41.41 34.6016 41.762 34.6016 42.1962C34.6016 42.6305 34.9535 42.9824 35.3878 42.9824C36.1576 42.9824 36.8545 42.6649 37.3545 42.1539C37.8549 42.6649 38.552 42.9824 39.3221 42.9824C39.7564 42.9824 40.1084 42.6305 40.1084 42.1962C40.1082 41.762 39.7563 41.41 39.322 41.41Z" fill="#678490"/>
<path d="M48.3892 41.0158H43.7706C43.3363 41.0158 42.9844 40.6639 42.9844 40.2296C42.9844 39.7955 43.3363 39.4434 43.7706 39.4434H48.3892C48.8234 39.4434 49.1754 39.7953 49.1754 40.2296C49.1752 40.6637 48.8233 41.0158 48.3892 41.0158Z" fill="#605C5D"/>
<path d="M30.9391 41.0158H26.3204C25.8861 41.0158 25.5342 40.6639 25.5342 40.2296C25.5342 39.7955 25.8861 39.4434 26.3204 39.4434H30.9391C31.3734 39.4434 31.7253 39.7953 31.7253 40.2296C31.7253 40.6637 31.3732 41.0158 30.9391 41.0158Z" fill="#605C5D"/>
<path d="M34.6081 54.4829C33.9181 55.1729 32.8487 57.8563 32.1297 61.1608C31.058 54.399 28.4402 47.8422 24.911 44.1876C24.3024 43.5575 22.5764 43.176 22.3507 42.5483C16.8232 27.1715 7.45537 22.2017 7.45537 22.2017C7.45537 22.2017 13.7398 31.5263 17.0176 45.0193C12.963 37.2516 7.67293 31.4595 1.26465 29.2429C1.26465 29.2429 8.66715 37.833 12.6524 50.2967L11.9808 48.903C9.44951 46.8406 6.25543 45.3741 2.28455 45.3741C2.28455 45.3741 12.8379 53.2757 11.907 67.7196H32.6634V67.7192H36.6372C34.2877 63.8631 34.6081 54.4829 34.6081 54.4829Z" fill="#F5DDD9"/>
<path d="M72.7353 29.2431C66.3265 31.4577 61.0368 37.2497 56.9836 45.0184C60.2586 31.5253 66.5439 22.2 66.5439 22.2C66.5439 22.2 56.5167 27.5249 51.0889 44.1844C44.9892 50.5456 43.1064 56.6865 42.701 61.1009C41.8341 56.3252 40.2831 52.2608 39.3236 51.3014C39.3236 51.3014 39.7211 62.9362 36.8066 67.7192H43.1888L43.189 67.7195C43.189 67.7195 57.9162 67.9823 61.8811 67.7197L61.8329 65.2171V65.1818C62.1824 52.3526 71.5019 45.3769 71.5019 45.3769C67.5308 45.3769 64.3382 46.8425 61.8093 48.9102C65.8772 37.1997 72.7353 29.2431 72.7353 29.2431Z" fill="#F5DDD9"/>
<path d="M73.3861 28.8012C73.1866 28.5071 72.8142 28.3833 72.4788 28.4997C67.6585 30.1669 63.1997 33.9175 59.3868 39.4658C59.7801 38.2613 60.1822 37.1258 60.5804 36.0733C63.6605 27.9315 67.1603 22.6915 67.1954 22.6394C67.3969 22.3402 67.3689 21.9422 67.1275 21.6741C66.8861 21.4061 66.4934 21.3367 66.1748 21.5057C65.9754 21.6115 61.2355 24.1785 56.4684 31.1993C53.9737 34.8736 51.9365 39.0974 50.398 43.7718C45.8125 48.5951 43.6134 53.3011 42.6073 57.1408C41.7594 54.0254 40.7099 51.5752 39.8792 50.7445C39.6509 50.5163 39.3062 50.4508 39.01 50.5792C38.7139 50.7079 38.5266 51.0044 38.5374 51.3271C38.541 51.4319 38.838 61.0459 36.7363 66.107C36.1492 64.5649 35.7364 62.3558 35.5279 59.6101C35.3188 56.8559 35.3941 54.5312 35.3948 54.508C35.4058 54.1856 35.2188 53.8893 34.923 53.7605C34.6274 53.6318 34.2829 53.6966 34.0544 53.9241C33.5001 54.4759 32.9189 55.7374 32.4107 57.2079C31.8348 54.5145 31.0248 52.0578 29.9916 49.903C28.2193 46.2071 25.8355 43.5313 22.9853 41.9981C17.5869 27.2316 8.64422 21.9675 7.87455 21.5376C7.57097 21.3463 7.1658 21.384 6.90102 21.6485C6.74809 21.8014 6.67176 22.002 6.67147 22.2027C6.67133 22.3612 6.71855 22.5199 6.81314 22.6552C7.04625 23.0051 10.4451 28.1682 13.4732 36.2188C13.853 37.2283 14.2362 38.3142 14.6118 39.4644C10.7979 33.9138 6.3395 30.1636 1.5212 28.4996C1.18551 28.3836 0.81373 28.5073 0.614145 28.8013C0.414702 29.0952 0.4371 29.4865 0.668927 29.7557C0.705877 29.7987 4.40299 34.1253 7.91179 40.9491C8.81442 42.7044 9.75599 44.7311 10.6315 46.9747C8.08498 45.3907 5.28664 44.5878 2.28444 44.5878C1.94619 44.5878 1.64631 44.8044 1.53917 45.1252C1.43203 45.4461 1.54245 45.7996 1.81266 46.0029C1.83834 46.0222 4.40656 47.9748 6.8247 51.6177C8.96593 54.8433 11.4125 60.0799 11.1591 66.933H8.30739C7.87313 66.933 7.52118 67.2849 7.52118 67.7192C7.52118 68.1535 7.87313 68.5054 8.30739 68.5054H36.6386H36.8059H65.1803C65.6146 68.5054 65.9665 68.1535 65.9665 67.7192C65.9665 67.2851 65.6146 66.933 65.1803 66.933H62.6289C62.3755 60.0799 64.8221 54.8432 66.9633 51.6177C69.3814 47.9749 71.9497 46.0223 71.9746 46.0035C72.2457 45.8006 72.3562 45.4469 72.2494 45.1258C72.1425 44.8047 71.8419 44.588 71.5034 44.588C68.6065 44.588 65.8999 45.3371 63.4255 46.8125C67.4358 36.6733 73.2683 29.8291 73.3312 29.756C73.5632 29.4865 73.5857 29.0951 73.3861 28.8012ZM51.3691 45.9279C52.899 40.7655 55.031 36.1388 57.706 32.176C59.937 28.8709 62.1822 26.5816 63.897 25.1035C62.586 27.4801 60.8087 31.0331 59.1255 35.4748C56.2875 42.9646 53.2415 54.4333 54.6011 66.933H48.4864C48.5484 59.2467 49.5155 52.1824 51.3691 45.9279ZM49.3294 47.4011C47.7813 53.3122 46.9698 59.868 46.9136 66.933H44.1135C44.063 65.0016 43.8326 63.0002 43.4912 61.0851C43.8228 57.6401 45.1534 52.7046 49.3294 47.4011ZM40.108 54.5013C41.2034 57.3958 42.4171 62.1651 42.5408 66.9329H38.0887C39.6238 63.4095 40.0212 57.9591 40.108 54.5013ZM33.8498 57.8581C33.9574 60.5717 34.3102 64.3294 35.3747 66.933H33.4432C33.4149 64.7988 33.2726 62.7414 33.0191 60.7815C33.2807 59.6666 33.568 58.6829 33.8498 57.8581ZM28.5737 50.5832C30.6497 54.9128 31.7849 60.5524 31.8709 66.933H27.1192C27.3672 58.1675 25.4371 51.6756 23.7437 47.7318C22.8372 45.6207 21.9103 44.0063 21.1782 42.8836C24.2033 44.1215 26.7328 46.744 28.5737 50.5832ZM10.0915 25.0944C13.0422 27.6369 17.5848 32.6111 20.9723 41.131C20.4325 40.9529 19.8791 40.8114 19.3128 40.7073C18.9812 40.646 18.6485 40.803 18.4843 41.097C18.3201 41.391 18.3613 41.7568 18.5867 42.0069C18.6623 42.0907 26.0286 50.4608 25.5464 66.933H19.3974C20.7486 54.5103 17.7453 43.1107 14.9448 35.6654C13.2467 31.151 11.4269 27.5146 10.0915 25.0944ZM9.28991 40.1911C7.27194 36.2726 5.2263 33.1976 3.79296 31.2223C8.47702 33.7761 12.7409 38.5654 16.2554 45.2569C17.7705 51.5436 18.7021 59.035 17.8175 66.9329H15.8879C16.2546 56.1645 12.5292 46.4811 9.28991 40.1911ZM8.09882 50.694C6.82612 48.786 5.52989 47.3284 4.53224 46.3332C7.04169 46.7271 9.37209 47.7916 11.4841 49.5124L11.5354 49.4494C13.2743 54.5503 14.5416 60.5518 14.3161 66.933H12.7319C12.9862 59.6643 10.3803 54.1143 8.09882 50.694ZM69.2558 46.3332C68.2583 47.3284 66.962 48.786 65.6893 50.694C63.4079 54.1143 60.802 59.6643 61.0562 66.9329H59.6865C59.4848 61.2704 60.4218 55.369 62.4778 49.375C64.5437 47.736 66.8148 46.7164 69.2558 46.3332ZM61.0856 48.5914C61.078 48.6089 61.071 48.6269 61.0648 48.645C58.8998 54.8775 57.9102 61.025 58.1131 66.933H56.181C55.2969 59.0395 56.2263 51.5511 57.7438 45.2555C61.2551 38.5717 65.5164 33.7847 70.1992 31.2277C67.8454 34.4657 63.8588 40.6402 61.0856 48.5914Z" fill="#E9B5AC"/>
<path d="M45.355 46.2703C44.6174 48.1921 44.6939 50.0089 46.6157 50.7464C48.5375 51.484 50.6935 50.5239 51.431 48.6021C52.1686 46.6803 51.2086 44.5243 49.2867 43.7868C47.3648 43.0491 46.0926 44.3483 45.355 46.2703Z" fill="#B1B9C6"/>
<path d="M47.9526 51.7825C47.4062 51.7825 46.8591 51.682 46.3337 51.4803C45.3325 51.0961 43.1611 49.7917 44.6207 45.9884C46.0805 42.1851 48.5669 42.6683 49.5681 43.0526C51.8915 43.9443 53.0564 46.5601 52.1647 48.8837C51.7328 50.0093 50.8883 50.8992 49.787 51.3897C49.1998 51.6512 48.5768 51.7825 47.9526 51.7825ZM46.0887 46.5519C45.035 49.2979 46.4365 49.8357 46.8972 50.0124C48.4111 50.5935 50.1158 49.8345 50.6969 48.3203C51.2778 46.8062 50.5188 45.1017 49.0048 44.5206C48.5441 44.3439 47.1426 43.8059 46.0887 46.5519Z" fill="#678490"/>
<path d="M32.379 49.6648C31.5008 47.73 30.1098 46.4695 28.175 47.3479C26.2402 48.2261 25.3837 50.5068 26.262 52.4415C27.1403 54.3763 29.4207 55.2329 31.3557 54.3545C33.2905 53.4763 33.2574 51.5995 32.379 49.6648Z" fill="#B1B9C6"/>
<path d="M29.7672 55.4873C29.2173 55.4873 28.6663 55.3881 28.136 55.189C26.9773 54.7538 26.0576 53.8936 25.546 52.7665C24.49 50.4401 25.5234 47.6882 27.85 46.632C29.9658 45.6718 31.8777 46.6586 33.0949 49.3398C33.6351 50.5301 33.8386 51.6011 33.6996 52.523C33.5268 53.6683 32.8286 54.5493 31.6805 55.0704C31.0692 55.3479 30.4191 55.4873 29.7672 55.4873ZM29.3661 47.8445C28.9829 47.8445 28.6749 47.9843 28.5 48.0638C26.9631 48.7614 26.2801 50.5797 26.9779 52.1166C27.3159 52.8611 27.9235 53.4295 28.689 53.717C29.4545 54.0043 30.2861 53.9766 31.0305 53.6386C31.4999 53.4256 32.9282 52.7772 31.6631 49.9897C30.8692 48.241 30.0112 47.8445 29.3661 47.8445Z" fill="#678490"/>
</g>
<defs>
<clipPath id="clip0_30_494">
<rect width="73.0435" height="73.0435" fill="white" transform="translate(0.478516 0.173828)"/>
</clipPath>
</defs>
</svg>
