<svg width="74" height="74" viewBox="0 0 74 74" fill="none" xmlns="http://www.w3.org/2000/svg">
<g clip-path="url(#clip0_30_878)">
<path d="M67.7139 2.35542C63.9707 -1.38777 52.0458 5.4211 46.7938 8.72204C44.1943 8.28977 40.8413 8.1123 37.0014 8.12956C33.1609 8.1123 29.8074 8.28992 27.2078 8.72219C21.9538 5.41868 10.0299 -1.38563 6.28887 2.35542C2.57364 6.07079 6.81558 16.2706 8.99405 20.8153C6.41769 25.1668 5.47697 29.9325 5.47697 34.0363C5.47697 37.5849 5.89983 41.1292 6.74981 44.6734C8.40941 51.5909 13.8787 56.9026 20.8501 58.3149C21.0207 58.3494 21.1913 58.3818 21.3621 58.4151C21.0904 59.2948 20.9466 60.2113 20.9466 61.153C20.9466 67.8161 28.1343 73.2174 37.0009 73.2174C45.8675 73.2174 53.0552 67.8159 53.0552 61.153C53.0552 60.2113 52.9114 59.2949 52.64 58.4153C52.8109 58.3819 52.9818 58.3494 53.1527 58.3149C60.1241 56.9026 65.5933 51.5909 67.2529 44.6734C68.1029 41.1292 68.5258 37.5849 68.5258 34.0363C68.5258 29.9335 67.5856 25.1691 65.0107 20.8186C67.1834 16.2782 71.4304 6.07208 67.7139 2.35542Z" fill="#B1B9C6"/>
<path d="M40.8139 10.6625C40.8139 16.5363 39.1048 21.295 37.0044 21.295C34.8995 21.295 33.1904 16.5365 33.1904 10.6625C33.1904 9.85741 33.222 9.07476 33.2849 8.32364C35.7631 8.21122 38.2413 8.21122 40.7196 8.32806C40.7825 9.07932 40.8139 9.86183 40.8139 10.6625Z" fill="#91A2B5"/>
<path d="M32.6282 8.73291C32.6282 14.6023 30.9235 19.3654 28.8186 19.3654C26.7947 19.3654 25.1305 14.9352 25.0137 9.35806C26.3225 9.01624 27.6762 8.77342 29.0616 8.6339C30.249 8.51692 31.4364 8.42247 32.6237 8.35956C32.6282 8.48553 32.6282 8.60694 32.6282 8.73291Z" fill="#91A2B5"/>
<path d="M48.9906 9.3087C48.8826 14.9082 47.2186 19.3654 45.1855 19.3654C43.0805 19.3654 41.376 14.6025 41.376 8.73291C41.376 8.60694 41.376 8.48553 41.3804 8.35956C42.7433 8.43146 44.1105 8.54388 45.4734 8.68783C46.6743 8.8138 47.8482 9.02522 48.9906 9.3087Z" fill="#91A2B5"/>
<path d="M63.3291 11.3913C63.3291 11.3913 63.9363 12.7675 64.0353 14.3103C64.1298 15.7361 63.2708 16.8245 62.1463 17.2787C59.785 14.5936 56.8705 12.3988 53.5781 10.874C53.6097 10.1003 53.9335 9.34021 54.5631 8.76912C57.0908 6.47082 60.5854 3.99248 63.0592 5.00011C67.3681 6.75872 63.3291 11.3913 63.3291 11.3913Z" fill="white"/>
<path d="M10.6718 11.3913C10.6718 11.3913 10.0647 12.7675 9.96566 14.3103C9.87122 15.7361 10.7302 16.8245 11.8547 17.2787C14.216 14.5936 17.1305 12.3988 20.4229 10.874C20.3913 10.1003 20.0675 9.34021 19.4379 8.76912C16.9101 6.47082 13.4154 3.99248 10.9416 5.00011C6.63291 6.75872 10.6718 11.3913 10.6718 11.3913Z" fill="white"/>
<path d="M68.4756 1.59106C66.4908 -0.393672 62.874 -0.294522 57.418 1.89393C53.4799 3.47364 49.4015 5.82358 46.5636 7.59375C44.0711 7.21583 40.8712 7.03351 37.0065 7.05034C33.1335 7.03508 29.9312 7.21697 27.4378 7.5946C24.5952 5.82301 20.5123 3.47135 16.5805 1.89407C11.1254 -0.294664 7.50888 -0.393815 5.5243 1.59106C3.62745 3.48805 3.2434 6.83192 4.38299 11.5298C5.19988 14.8978 6.63165 18.3243 7.77452 20.7615C4.92212 25.8366 4.39811 30.9681 4.39811 34.0363C4.39811 37.6577 4.83638 41.3213 5.70077 44.9251C6.56374 48.5219 8.41608 51.7755 11.0575 54.3339C13.704 56.8969 17.0162 58.6393 20.6362 59.3727C20.7085 59.3874 20.7807 59.3944 20.8516 59.3944C21.3545 59.3944 21.8046 59.041 21.9083 58.5292C22.0267 57.9448 21.6491 57.3753 21.0647 57.257C17.85 56.6058 14.9087 55.0587 12.5592 52.7833C10.2128 50.5106 8.56687 47.6191 7.79963 44.4216C6.97475 40.9825 6.55661 37.4884 6.55661 34.0363C6.55661 30.2168 7.42956 22.9273 13.2763 17.0209C13.6958 16.5972 13.6922 15.9139 13.2686 15.4946C12.8452 15.0753 12.1617 15.0786 11.7423 15.5023C10.7542 16.5005 9.89663 17.5339 9.15193 18.5832C5.74557 10.9359 4.94908 5.21912 7.05079 3.11741C9.07432 1.09402 15.6176 3.06548 24.3785 8.26112C22.8359 8.71579 21.3565 9.25862 19.9778 9.87878C19.4342 10.1233 19.1917 10.7623 19.4362 11.3058C19.6161 11.7057 20.0093 11.9427 20.4212 11.9427C20.5693 11.9427 20.7196 11.912 20.8634 11.8474C22.2474 11.2248 23.7422 10.6834 25.3057 10.2383C27.7949 9.53168 31.7339 9.18458 37.0065 9.20883C42.2777 9.18373 46.2085 9.53168 48.6971 10.2381C50.2617 10.6835 51.7565 11.2249 53.1401 11.8474C53.6833 12.0918 54.3226 11.8497 54.5673 11.3058C54.8118 10.7623 54.5694 10.1233 54.0257 9.87864C52.6465 9.25819 51.1661 8.71508 49.6214 8.25998C58.3797 3.06191 64.9231 1.09102 66.949 3.11741C69.0472 5.21555 68.252 10.9322 64.851 18.5828C64.1063 17.5338 63.2489 16.5003 62.261 15.5023C61.8415 15.0784 61.158 15.0753 60.7346 15.4946C60.311 15.914 60.3075 16.5974 60.7269 17.0209C66.5735 22.9272 67.4466 30.2167 67.4466 34.0362C67.4466 37.4885 67.0283 40.9826 66.2036 44.4215C65.4364 47.619 63.7906 50.5105 61.4439 52.7831C59.0946 55.0586 56.1534 56.6056 52.9385 57.2569C52.3543 57.3752 51.9767 57.9448 52.0949 58.529C52.1987 59.0409 52.6486 59.3943 53.1516 59.3943C53.2225 59.3943 53.2949 59.3873 53.3671 59.3726C56.987 58.6393 60.2992 56.8968 62.9457 54.3337C65.5872 51.7753 67.4396 48.5219 68.3025 44.9249C69.1667 41.3214 69.6051 37.6578 69.6051 34.0362C69.6051 30.9681 69.0811 25.8369 66.229 20.762C67.3714 18.3213 68.8025 14.8918 69.6175 11.5295C70.7565 6.83135 70.3722 3.48762 68.4756 1.59106Z" fill="#678490"/>
<path d="M52.862 39.3375C54.243 37.9564 54.243 35.7174 52.862 34.3364C51.481 32.9554 49.2419 32.9554 47.8609 34.3364C46.4799 35.7174 46.4799 37.9564 47.8609 39.3375C49.2419 40.7185 51.481 40.7185 52.862 39.3375Z" fill="#605C5D"/>
<path d="M27.1781 36.837C27.1781 34.8839 25.5949 33.3006 23.6418 33.3006C21.6887 33.3006 20.1055 34.8839 20.1055 36.837C20.1055 38.79 21.6887 40.3733 23.6418 40.3733C25.5949 40.3731 27.1781 38.7899 27.1781 36.837Z" fill="#605C5D"/>
<path d="M59.31 43.033H53.7223C53.1313 43.033 52.6523 42.5539 52.6523 41.963C52.6523 41.3721 53.1313 40.893 53.7223 40.893H59.31C59.9011 40.893 60.38 41.3721 60.38 41.963C60.38 42.5539 59.9009 43.033 59.31 43.033Z" fill="#91A2B5"/>
<path d="M58.294 48.2822C58.1706 48.2822 58.0451 48.2607 57.9226 48.2153L53.3509 46.522C52.7968 46.3168 52.5141 45.7012 52.7192 45.1471C52.9245 44.593 53.5398 44.3102 54.0943 44.5153L58.666 46.2086C59.2201 46.4139 59.5028 47.0295 59.2977 47.5836C59.1376 48.0153 58.7289 48.2822 58.294 48.2822Z" fill="#91A2B5"/>
<path d="M20.2808 43.033H14.693C14.102 43.033 13.623 42.5539 13.623 41.963C13.623 41.3721 14.102 40.893 14.693 40.893H20.2808C20.8719 40.893 21.3508 41.3721 21.3508 41.963C21.3508 42.5539 20.8718 43.033 20.2808 43.033Z" fill="#91A2B5"/>
<path d="M15.709 48.2822C15.2742 48.2822 14.8655 48.0152 14.7055 47.5836C14.5004 47.0295 14.7831 46.4139 15.3374 46.2086L19.9092 44.5154C20.463 44.3101 21.0786 44.5928 21.2842 45.1471C21.4894 45.7012 21.2065 46.3168 20.6523 46.5221L16.0805 48.2153C15.958 48.2607 15.8324 48.2822 15.709 48.2822Z" fill="#91A2B5"/>
<path d="M48.116 30.0102C48.0619 30.0102 48.0072 30.0061 47.9523 29.9977L45.021 29.5479C44.437 29.4583 44.0362 28.912 44.1258 28.328C44.2155 27.744 44.7607 27.3433 45.3457 27.4327L48.277 27.8826C48.8611 27.9722 49.2618 28.5184 49.1722 29.1025C49.0909 29.6315 48.6352 30.0102 48.116 30.0102Z" fill="white"/>
<path d="M25.887 30.0102C25.3677 30.0102 24.9121 29.6315 24.8309 29.1025C24.7413 28.5184 25.1422 27.9722 25.7261 27.8826L28.6574 27.4327C29.2429 27.343 29.7876 27.744 29.8773 28.328C29.9669 28.912 29.566 29.4583 28.9821 29.5479L26.0508 29.9977C25.9957 30.0061 25.9411 30.0102 25.887 30.0102Z" fill="white"/>
<path d="M42.6799 38.7458H31.3227C29.5459 38.7458 28.1055 40.1861 28.1055 41.963C28.1055 43.7397 29.5458 45.1802 31.3227 45.1802H42.6799C44.4567 45.1802 45.8971 43.7399 45.8971 41.963C45.8971 40.1863 44.4568 38.7458 42.6799 38.7458Z" fill="white"/>
<path d="M42.6804 37.6665H38.081V36.2736H38.5709C39.1671 36.2736 39.6503 35.7904 39.6503 35.1942C39.6503 34.5981 39.1671 34.1148 38.5709 34.1148H35.4322C34.836 34.1148 34.3528 34.598 34.3528 35.1942C34.3528 35.7902 34.836 36.2736 35.4322 36.2736H35.9223V37.6665H31.3229C28.9539 37.6665 27.0264 39.5939 27.0264 41.963C27.0264 44.332 28.9539 46.2596 31.3229 46.2596H42.6802C45.0493 46.2596 46.9768 44.3322 46.9768 41.963C46.9769 39.5939 45.0494 37.6665 42.6804 37.6665ZM42.6804 44.1008H31.3231C30.1443 44.1008 29.1853 43.1418 29.1853 41.963C29.1853 40.7842 30.1443 39.8252 31.3231 39.8252H42.6804C43.8592 39.8252 44.8182 40.7842 44.8182 41.963C44.8183 43.1418 43.8592 44.1008 42.6804 44.1008Z" fill="#678490"/>
<path d="M30.9309 58.8847C30.3635 58.3173 29.7669 57.812 29.1547 57.3673C29.1459 56.9725 29.0895 56.5727 28.9802 56.1746L28.3678 53.9447C27.6508 51.3336 24.9529 49.7986 22.342 50.5156L22.0204 50.6039C21.1201 48.1884 19.3506 46.8262 17.595 47.3084C15.4969 47.8848 15.3892 50.348 16.5878 55.0001C16.4638 55.6954 16.4834 56.4273 16.6828 57.1539L17.2953 59.384C17.4244 59.8538 17.6184 60.2882 17.8636 60.6814C18.014 63.0969 19.3274 65.8766 21.6331 68.1821C25.5182 72.0673 30.7491 73.1354 33.3165 70.568C35.8841 68.0007 34.816 62.7698 30.9309 58.8847Z" fill="#B1B9C6"/>
<path d="M35.6016 65.0051C35.1097 62.5929 33.7223 60.1482 31.6951 58.121C31.2112 57.6369 30.7086 57.1951 30.1969 56.7994C30.1616 56.4945 30.1036 56.1903 30.0208 55.8887L29.4084 53.6588C28.9852 52.118 27.9874 50.8343 26.5986 50.0441C25.3888 49.3556 24.0084 49.1138 22.654 49.3428C21.4436 46.9174 19.3789 45.697 17.3102 46.2695C16.2879 46.5497 15.0194 47.3387 14.7808 49.5054C14.6376 50.8078 14.8626 52.5707 15.4857 55.0356C15.3764 55.817 15.4201 56.6322 15.6419 57.4399L16.2545 59.6699C16.3859 60.1485 16.5731 60.6022 16.8099 61.024C17.0612 63.7294 18.5274 66.5995 20.8714 68.9437C22.8968 70.9714 25.3403 72.3596 27.7516 72.8528C28.3943 72.9843 29.0163 73.0493 29.6119 73.0493C31.4009 73.0493 32.9484 72.4629 34.079 71.3324C35.5857 69.8256 36.1265 67.5786 35.6016 65.0051ZM23.6462 51.4183C24.3006 51.4183 24.9469 51.5879 25.5311 51.9201C26.4186 52.4252 27.0563 53.2458 27.3268 54.2304L27.9392 56.4604C28.2097 57.4452 28.0806 58.4762 27.5756 59.3637C27.0705 60.2512 26.2501 60.8891 25.2654 61.1594L23.0353 61.772C22.0505 62.0424 21.0196 61.9133 20.132 61.4082C19.2445 60.9032 18.6068 60.0826 18.3363 59.098L17.7237 56.8681C17.1653 54.8353 18.365 52.7273 20.3978 52.1689L22.6279 51.5564C22.9643 51.4641 23.3064 51.4183 23.6462 51.4183ZM17.8836 48.3507C18.7902 48.0996 19.7802 48.7175 20.4988 49.9026L19.826 50.0874C18.7099 50.3939 17.7552 50.9998 17.0226 51.7937C16.5862 48.7099 17.4593 48.467 17.8836 48.3507ZM32.5525 69.806C31.5754 70.7832 30.0235 71.114 28.1843 70.7378C26.183 70.3285 24.1284 69.1496 22.3985 67.4176C21.2457 66.2648 20.3313 64.9451 19.7307 63.6104C20.4594 63.9144 21.2325 64.0699 22.0136 64.0699C22.5453 64.0699 23.0805 63.9983 23.6071 63.8536L25.8372 63.2412C27.378 62.818 28.6617 61.8201 29.4519 60.4314C29.6403 60.1003 29.7943 59.7561 29.9154 59.4034C30.0001 59.4841 30.0852 59.5636 30.1688 59.6473C31.9 61.3786 33.0785 63.4346 33.4867 65.4365C33.8619 67.2765 33.5302 68.8283 32.5525 69.806Z" fill="#678490"/>
<path d="M56.408 47.3084C54.6524 46.8262 52.8829 48.1884 51.9826 50.6039L51.661 50.5156C49.0502 49.7986 46.3524 51.3336 45.6352 53.9447L45.0228 56.1746C44.9135 56.5727 44.8571 56.9725 44.8483 57.3673C44.236 57.812 43.6395 58.3173 43.0721 58.8847C39.187 62.7698 38.1189 68.0007 40.6863 70.568C43.2538 73.1356 48.4845 72.0673 52.3696 68.1821C54.6752 65.8766 55.9887 63.0969 56.1391 60.6814C56.3843 60.288 56.5783 59.8538 56.7075 59.384L57.3199 57.1539C57.5195 56.4274 57.5389 55.6956 57.4151 55.0001C58.614 50.348 58.5063 47.8848 56.408 47.3084Z" fill="#B1B9C6"/>
<path d="M59.2222 49.5054C58.9837 47.3387 57.7151 46.5497 56.6955 46.2703C54.624 45.6963 52.5593 46.9171 51.3489 49.3428C49.9947 49.1138 48.6143 49.3556 47.4044 50.044C46.0156 50.8342 45.0178 52.118 44.5947 53.6586L43.9822 55.8886C43.8995 56.1901 43.8414 56.4943 43.8062 56.7992C43.2944 57.1951 42.792 57.6368 42.3079 58.1209C40.2807 60.1481 38.8934 62.5929 38.4014 65.0051C37.8767 67.5784 38.4174 69.8254 39.9242 71.3322C41.0548 72.4628 42.602 73.049 44.3912 73.049C44.9867 73.049 45.609 72.9841 46.2516 72.8525C48.6628 72.3593 51.1064 70.9711 53.1313 68.9438C55.4773 66.5977 56.944 63.7252 57.1937 61.0185C57.4281 60.6019 57.6165 60.1509 57.7486 59.6697L58.3611 57.4398C58.5829 56.632 58.6266 55.8168 58.5173 55.0355C59.1404 52.5707 59.3653 50.8078 59.2222 49.5054ZM56.1221 48.3516C56.5443 48.4673 57.4169 48.7101 56.9804 51.7939C56.2478 51 55.2933 50.3941 54.1771 50.0875L53.5045 49.9027C54.2237 48.7178 55.2149 48.1003 56.1221 48.3516ZM46.0638 56.4605L46.6763 54.2306C46.9466 53.2458 47.5845 52.4253 48.472 51.9203C49.3593 51.4153 50.3905 51.2862 51.3753 51.5565L53.6054 52.1691C55.6382 52.7273 56.8379 54.8353 56.2795 56.8683L55.667 59.0982C55.1088 61.131 53.0004 62.331 50.9679 61.7722L48.7377 61.1597C47.7531 60.8892 46.9325 60.2515 46.4276 59.364C45.9224 58.4764 45.7933 57.4452 46.0638 56.4605ZM51.6043 67.4181C49.8748 69.1496 47.8201 70.3285 45.8189 70.7378C43.9792 71.1142 42.4276 70.7832 41.4507 69.806C39.3434 67.6987 40.4352 63.0467 43.8344 59.6473C43.918 59.5637 44.0032 59.4841 44.0878 59.4034C44.2089 59.7561 44.3628 60.1003 44.5513 60.4314C45.3415 61.8201 46.6252 62.818 48.1659 63.2412L50.3961 63.8536C50.9242 63.9987 51.4556 64.0679 51.9786 64.0679C52.7772 64.0679 53.556 63.9056 54.2742 63.6062C53.6735 64.9426 52.7584 66.2639 51.6043 67.4181Z" fill="#678490"/>
</g>
<defs>
<clipPath id="clip0_30_878">
<rect width="73.0435" height="73.0435" fill="white" transform="translate(0.478516 0.173828)"/>
</clipPath>
</defs>
</svg>
