<svg width="74" height="74" viewBox="0 0 74 74" fill="none" xmlns="http://www.w3.org/2000/svg">
<g clip-path="url(#clip0_30_538)">
<path d="M8.38574 33.5655C8.38574 33.5655 11.4755 43.5336 16.2047 45.7667L19.7607 37.2062L8.38574 33.5655Z" fill="#B1B9C6"/>
<path d="M16.2051 46.5529C16.0927 46.5529 15.9784 46.5288 15.87 46.4776C10.8853 44.1236 7.76615 34.2187 7.63605 33.7982C7.50752 33.3836 7.73933 32.9434 8.15404 32.8147C8.56802 32.6867 9.00897 32.9181 9.13765 33.3325C9.14535 33.3571 9.91384 35.8145 11.2376 38.5004C12.9397 41.9542 14.7737 44.2211 16.5415 45.0559C16.9341 45.2412 17.102 45.7098 16.9167 46.1024C16.7822 46.3866 16.4997 46.5529 16.2051 46.5529Z" fill="#678490"/>
<path d="M70.3338 13.3475C68.2936 9.81973 58.0717 12.5145 53.5097 13.9261C51.6621 13.0881 49.2036 12.2898 46.3443 11.5397C43.4914 10.7638 40.9621 10.2297 38.9426 10.0347C35.6915 6.53365 28.1751 -0.896177 24.6493 1.14295C21.1478 3.16796 22.2762 11.5969 22.9935 15.4099C20.2127 18.1343 18.5662 21.4919 17.7507 24.544C17.0457 27.1833 16.6559 29.9033 16.5838 32.7082C16.4574 37.6481 18.8984 42.2312 22.9795 44.8689C19.0422 47.0449 16.5156 50.4116 16.5156 54.1907C16.5156 60.752 24.1309 66.0711 33.5247 66.0711C42.9184 66.0711 50.5337 60.7522 50.5337 54.1907C50.5337 53.464 50.4398 52.7527 50.261 52.062C54.9999 51.7194 59.275 48.9887 61.5824 44.7297C62.9188 42.2626 63.9376 39.7106 64.6426 37.0714C65.4578 34.0199 65.7051 30.2896 64.6544 26.5422C67.1731 23.597 72.3596 16.8501 70.3338 13.3475Z" fill="#B1B9C6"/>
<path d="M48.6759 14.1801C47.5089 18.5489 45.2923 21.7485 43.73 21.3311C42.1645 20.9128 41.8388 17.0341 43.0059 12.6654C43.1658 12.0667 43.3449 11.4908 43.5409 10.9447C45.4064 11.3536 47.2495 11.8459 49.0695 12.4252C48.9671 12.9964 48.835 13.5847 48.6759 14.1801Z" fill="#91A2B5"/>
<path d="M42.9706 11.1178C41.8044 15.4833 39.5902 18.687 38.0247 18.2688C36.5194 17.8666 36.1619 14.241 37.1832 10.0699C38.2246 10.0757 39.2797 10.164 40.3377 10.3357C41.244 10.4846 42.1459 10.6502 43.0417 10.8394C43.0198 10.9338 42.9957 11.0241 42.9706 11.1178Z" fill="#91A2B5"/>
<path d="M55.0254 14.797C53.8325 18.9402 51.7092 21.9246 50.1972 21.5207C48.6317 21.1024 48.3103 17.2213 49.4765 12.8559C49.5015 12.7622 49.5257 12.6719 49.554 12.5792C50.5533 12.9034 51.5479 13.2588 52.5329 13.6365C53.401 13.9688 54.2319 14.3594 55.0254 14.797Z" fill="#91A2B5"/>
<path d="M65.2765 19.1965C65.2765 19.1965 65.4546 20.3408 65.2217 21.5079C65.0087 22.5871 64.1535 23.2259 63.2269 23.3403C62.0042 20.874 60.2726 18.6626 58.127 16.8744C58.3041 16.3053 58.696 15.8043 59.2778 15.5046C61.6143 14.2976 64.706 13.1486 66.3455 14.3896C69.2008 16.5536 65.2765 19.1965 65.2765 19.1965Z" fill="white"/>
<path d="M26.1127 8.73419C26.1127 8.73419 25.3876 9.6372 25.0076 10.7649C24.6541 11.8064 25.0766 12.7866 25.8227 13.348C28.1125 11.8201 30.7163 10.7669 33.4678 10.287C33.5981 9.70539 33.5082 9.07571 33.1534 8.52577C31.7301 6.31431 29.6234 3.7766 27.5832 4.03452C24.0293 4.48617 26.1127 8.73419 26.1127 8.73419Z" fill="white"/>
<path d="M71.013 12.9528C69.9411 11.0995 67.2452 10.4618 62.7731 11.0031C59.5251 11.3961 56.0203 12.3362 53.5586 13.0894C51.7805 12.3117 49.4358 11.5385 46.5503 10.7814C43.6671 9.99735 41.2444 9.49648 39.3151 9.28407C37.554 7.40186 34.9828 4.83776 32.3679 2.88051C28.7612 0.180886 26.1076 -0.610428 24.2544 0.461348C20.542 2.60861 21.291 10.4002 22.1447 15.1424C19.0105 18.3469 17.6005 22.0602 16.9911 24.3412C16.2724 27.0309 15.871 29.8393 15.7979 32.6883C15.7252 35.5263 16.4543 38.3058 17.9062 40.7261C19.3608 43.1508 21.4717 45.0988 24.0108 46.3599C27.8287 48.2538 31.8104 49.7606 35.8453 50.8384C39.881 51.9166 44.0838 52.5964 48.3371 52.8584C48.6415 52.8771 48.9457 52.8865 49.2491 52.8865C51.7654 52.8865 54.2335 52.2479 56.4377 51.0197C58.9032 49.6459 60.9212 47.6004 62.2738 45.1042C63.631 42.5987 64.6835 39.9644 65.4021 37.2744C66.0115 34.9933 66.6412 31.0718 65.5229 26.7314C68.625 23.0441 73.1572 16.6601 71.013 12.9528ZM63.8832 36.8685C63.1963 39.4396 62.1897 41.9585 60.8913 44.3553C58.567 48.6451 54.0531 51.3142 49.232 51.3139C48.9668 51.3139 48.6999 51.3058 48.4334 51.2895C44.2845 51.0337 40.1859 50.3709 36.2508 49.3197C32.3167 48.2689 28.4337 46.7991 24.7097 44.9518C20.1188 42.6719 17.2378 37.8739 17.3693 32.7288C17.4393 30.0032 17.8231 27.3177 18.5097 24.7473C19.2705 21.8999 21.3731 16.6394 26.909 13.4003C27.2838 13.181 27.4097 12.6995 27.1905 12.3249C26.9712 11.9502 26.4899 11.8243 26.1151 12.0435C25.1592 12.6028 24.2982 13.2172 23.5216 13.8669C22.4879 7.44052 23.0362 2.98223 25.0413 1.82257C26.974 0.70472 31.5007 3.50249 37.033 9.17208C35.762 9.20004 34.5208 9.3106 33.3419 9.50276C32.9134 9.57266 32.6227 9.97681 32.6926 10.4051C32.7626 10.8336 33.1679 11.125 33.5949 11.0544C34.7507 10.8658 35.9722 10.7601 37.2252 10.7397C39.2221 10.7109 42.2201 11.2333 46.1443 12.3005C50.0717 13.3308 52.9322 14.3716 54.6462 15.3936C55.7228 16.0364 56.7289 16.7374 57.6364 17.477C57.7824 17.5959 57.958 17.6537 58.1326 17.6537C58.3607 17.6537 58.5871 17.5548 58.7424 17.3643C59.0168 17.0276 58.9661 16.5326 58.6296 16.2582C57.7031 15.5033 56.6818 14.788 55.5926 14.1294C63.2137 11.9721 68.5322 11.8039 69.6519 13.7402C70.8096 15.7418 69.0623 19.8799 64.965 24.9379C64.6159 23.9876 64.1762 23.026 63.6266 22.0645C63.411 21.6875 62.9308 21.5571 62.5539 21.7721C62.177 21.9876 62.0462 22.4676 62.2615 22.8447C65.4447 28.4128 64.6439 34.0211 63.8832 36.8685Z" fill="#678490"/>
<path d="M53.2066 36.2482C53.5946 34.7955 52.7317 33.3035 51.2792 32.9155C49.8265 32.5274 48.3344 33.3904 47.9464 34.843C47.5584 36.2956 48.4213 37.7878 49.874 38.1758C51.3264 38.5638 52.8186 37.7007 53.2066 36.2482Z" fill="#605C5D"/>
<path d="M32.4384 32.3367C33.5973 31.3789 33.7602 29.6628 32.8023 28.5039C31.8444 27.3449 30.1283 27.1819 28.9695 28.1398C27.8106 29.0977 27.6476 30.8137 28.6056 31.9726C29.5635 33.1316 31.2795 33.2946 32.4384 32.3367Z" fill="#605C5D"/>
<path d="M56.2141 41.9215C56.1467 41.9215 56.0786 41.9128 56.0107 41.8947L51.8548 40.7844C51.4354 40.6723 51.1863 40.2415 51.2983 39.8221C51.4104 39.4025 51.842 39.1539 52.2607 39.2656L56.4165 40.3758C56.8359 40.488 57.085 40.9188 56.973 41.3382C56.879 41.6897 56.5613 41.9215 56.2141 41.9215Z" fill="#91A2B5"/>
<path d="M54.4146 45.6232C54.2575 45.6232 54.0992 45.5765 53.9612 45.4789L50.8975 43.3112C50.5432 43.0604 50.4591 42.5698 50.7098 42.2155C50.9607 41.861 51.451 41.7769 51.8055 42.0277L54.8692 44.1954C55.2236 44.4462 55.3076 44.9368 55.057 45.2911C54.9037 45.5077 54.6611 45.6232 54.4146 45.6232Z" fill="#91A2B5"/>
<path d="M27.1846 34.1678C27.1173 34.1678 27.0491 34.1591 26.9812 34.141L22.8255 33.0309C22.4061 32.9187 22.157 32.4881 22.269 32.0685C22.381 31.649 22.8128 31.4003 23.2314 31.512L27.3871 32.6222C27.8065 32.7343 28.0556 33.165 27.9436 33.5845C27.8497 33.936 27.532 34.1678 27.1846 34.1678Z" fill="#91A2B5"/>
<path d="M22.7402 37.1634C22.3392 37.1634 21.9968 36.8581 21.9586 36.4508C21.9179 36.0186 22.2353 35.6353 22.6676 35.5948L26.4042 35.2437C26.8346 35.2022 27.2197 35.5204 27.2603 35.9527C27.3009 36.3849 26.9835 36.7683 26.5513 36.8088L22.8147 37.1599C22.7897 37.1623 22.7649 37.1634 22.7402 37.1634Z" fill="#91A2B5"/>
<path d="M50.4748 30.0118C50.4074 30.0118 50.3392 30.0031 50.2712 29.985L48.0911 29.4026C47.6717 29.2904 47.4226 28.8596 47.5346 28.4402C47.6467 28.0207 48.0784 27.7719 48.497 27.8837L50.6771 28.4662C51.0965 28.5783 51.3455 29.0091 51.2336 29.4285C51.1397 29.78 50.8221 30.0118 50.4748 30.0118Z" fill="white"/>
<path d="M36.124 26.1781C36.0568 26.1781 35.9885 26.1694 35.9206 26.1513L33.7405 25.5688C33.3211 25.4567 33.072 25.0259 33.184 24.6065C33.2963 24.1869 33.7278 23.9384 34.1464 24.05L36.3265 24.6325C36.7459 24.7446 36.995 25.1754 36.883 25.5948C36.789 25.9463 36.4713 26.1781 36.124 26.1781Z" fill="white"/>
<path d="M45.2882 33.9305C44.909 33.7193 44.4303 33.8563 44.2194 34.2359C43.8785 34.8496 43.1651 35.1513 42.486 34.9699C41.7112 34.7629 41.2342 33.9951 41.3727 33.2203L41.7876 33.3312C41.8556 33.3493 41.9238 33.358 41.9911 33.358C42.3384 33.358 42.6561 33.1262 42.7499 32.7747C42.8621 32.3553 42.6128 31.9244 42.1934 31.8123L39.8593 31.1888C39.4406 31.0771 39.0091 31.3257 38.8969 31.7453C38.7848 32.1647 39.034 32.5955 39.4534 32.7076L39.8415 32.8113C39.7195 33.1516 39.4844 33.4355 39.1675 33.6186C38.8132 33.8235 38.4001 33.8787 38.0052 33.7728C37.3244 33.591 36.8567 32.9738 36.8671 32.272C36.8736 31.8379 36.5271 31.4808 36.093 31.4742C35.6566 31.4614 35.3017 31.8142 35.2953 32.2483C35.2737 33.672 36.2213 34.9235 37.5993 35.2918C38.3999 35.5057 39.2364 35.3951 39.9546 34.9797C40.0071 34.9493 40.0586 34.9177 40.1088 34.8846C40.494 35.6483 41.1906 36.2512 42.0803 36.4889C42.3479 36.5603 42.618 36.5949 42.8846 36.5949C43.9905 36.5949 45.0367 36.0024 45.5936 34.9995C45.8045 34.6198 45.6677 34.1412 45.2882 33.9305Z" fill="#678490"/>
<path d="M29.2412 33.4976C24.2664 30.9803 19.3934 30.6001 18.3571 32.6482C18.0797 33.1966 17.8563 33.7374 17.6725 34.2672L15.2795 32.596C13.1468 31.1065 10.1642 31.6057 8.63097 33.7087C6.63735 36.4436 4.09907 41.6694 7.64707 47.6508C7.4144 48.0641 7.19827 48.5144 7.00312 49.0074C4.47554 55.3925 11.9069 60.2485 14.9308 61.7786C17.9546 63.3086 26.269 66.4202 29.9163 60.6018C33.4475 54.9688 29.7042 50.6277 30.6328 48.7923C30.9293 48.2064 31.435 47.6485 32.0443 47.0428C34.0847 45.0044 37.3845 44.9037 38.2799 43.134C39.1755 41.3638 36.2782 37.0583 29.2412 33.4976ZM10.0819 44.8255C8.75522 41.8445 9.20231 38.8022 11.4287 35.7483C11.8673 35.147 12.6878 35.0092 13.297 35.4344L16.8548 37.9192C16.6538 39.3445 16.5373 40.5589 16.0937 41.4353C15.4614 42.6852 12.6099 42.8782 10.0819 44.8255Z" fill="#DACDF6"/>
<path d="M28.7216 45.7669C28.7216 45.9401 28.6661 46.1063 28.5588 46.2689C28.5171 46.3208 28.4792 46.3763 28.4411 46.4317C28.4411 46.4317 28.4377 46.4317 28.4377 46.4351C28.2196 46.733 28.0223 47.048 27.8525 47.3838C27.0007 49.0665 27.4439 50.7978 27.8351 52.3247C28.3441 54.326 28.8738 56.3965 27.2742 58.9483C24.6462 63.1379 16.6757 59.1699 16.3363 58.9967C16.0005 58.8271 8.07835 54.7553 9.8995 50.1536C11.0075 47.356 12.9914 46.5561 14.9063 45.7806C15.436 45.5693 15.9901 45.3444 16.5198 45.0673C16.9179 44.8595 17.3022 44.6207 17.6554 44.3332C18.805 43.8416 20.5292 43.5301 22.4612 43.5301C25.9204 43.5301 28.7216 44.5308 28.7216 45.7669Z" fill="#8B7DAB"/>
<path d="M28.7217 45.7668C28.7217 45.94 28.6662 46.1061 28.559 46.2688C28.5277 46.3241 28.4862 46.3762 28.4413 46.4315C28.4413 46.4315 28.4379 46.4315 28.4379 46.435C27.6414 47.3421 25.2697 48.0001 22.4617 48.0001C19.0061 48.0001 16.2051 46.9995 16.2051 45.7668C16.2051 45.521 16.3158 45.2854 16.5202 45.0673C16.766 44.7937 17.1573 44.5479 17.6559 44.3332C18.8054 43.8416 20.5297 43.5301 22.4617 43.5301C25.9205 43.5299 28.7217 44.5307 28.7217 45.7668Z" fill="#8B7DAB"/>
<path d="M29.5963 32.7963C27.1008 31.5335 24.5392 30.7455 22.3834 30.5772C19.9895 30.3906 18.3103 30.9998 17.6558 32.2933C17.5271 32.5475 17.4107 32.7999 17.3027 33.0504L15.7291 31.9515C13.2481 30.2188 9.77859 30.7993 7.9951 33.2461C6.01589 35.9604 3.27033 41.3985 6.749 47.6644C6.57995 47.9949 6.41989 48.3446 6.27196 48.718C5.08021 51.7288 5.77865 54.8451 8.29226 57.7299C10.5014 60.2652 13.4223 61.8965 14.5756 62.4799C15.7289 63.0635 18.7734 64.451 22.1243 64.7291C22.5035 64.7606 22.8737 64.7763 23.2349 64.7763C26.5069 64.7763 29.0332 63.4901 30.5822 61.0191C33.0687 57.0526 32.1937 53.6256 31.6148 51.3579C31.3733 50.4126 31.1455 49.5199 31.3341 49.1473C31.5939 48.634 32.0953 48.1003 32.5999 47.5989C33.4688 46.7305 34.6275 46.2447 35.7477 45.7746C37.1037 45.2057 38.3843 44.6683 38.9812 43.489C40.1584 41.1627 36.9696 36.5271 29.5963 32.7963ZM10.4589 43.6089C9.69 41.1724 10.2185 38.7432 12.0639 36.2119C12.251 35.9551 12.5881 35.8981 12.8468 36.0787L16.0105 38.2881C16.0072 38.312 16.004 38.3365 16.0007 38.36C15.8493 39.4742 15.7187 40.4363 15.3925 41.0805C15.204 41.4531 14.3496 41.7983 13.445 42.1637C12.5714 42.5166 11.518 42.9426 10.4589 43.6089ZM6.83303 39.6042C7.25871 37.2883 8.39097 35.3721 9.26574 34.1722C10.5488 32.412 13.0446 31.9939 14.8291 33.2403L16.7461 34.5791C16.5388 35.265 16.3903 35.9272 16.2759 36.556L13.7463 34.7895C12.7828 34.1179 11.486 34.3359 10.7936 35.2857C8.53178 38.3883 7.9757 41.515 9.13493 44.5887C8.64148 45.0177 8.16372 45.5181 7.71992 46.1073C6.72832 43.9891 6.42802 41.8071 6.83303 39.6042ZM37.5786 42.7791C37.2429 43.4422 36.2681 43.8512 35.1396 44.3248C33.938 44.8289 32.5761 45.4003 31.49 46.4853C30.8936 47.0782 30.2918 47.7253 29.9315 48.4374C29.4763 49.3369 29.7479 50.4004 30.0917 51.7469C30.665 53.9932 31.3789 56.7887 29.2502 60.1843C27.843 62.429 25.4899 63.431 22.2547 63.1625C19.0935 62.9001 16.1212 61.5002 15.2857 61.0773C14.45 60.6544 11.5618 59.089 9.47787 56.6974C7.34545 54.2501 6.75884 51.7603 7.73404 49.2968C9.20911 45.5706 11.8842 44.49 14.0337 43.6215C15.3224 43.1009 16.3402 42.6898 16.7951 41.7905C17.2407 40.9102 17.3879 39.8266 17.5585 38.5719C17.7853 36.9031 18.0424 35.0118 19.0587 33.0033C19.347 32.4334 20.261 32.1161 21.5589 32.1161C21.782 32.1161 22.0166 32.1257 22.2613 32.1447C24.2171 32.2973 26.5699 33.027 28.8865 34.1992C31.9752 35.7621 34.5506 37.6441 36.1383 39.4986C37.4843 41.0708 37.8315 42.2791 37.5786 42.7791Z" fill="#8B7DAB"/>
<path d="M32.8063 40.7453C32.7888 40.7453 32.7711 40.7447 32.7534 40.7436C31.9083 40.6875 29.6111 40.3892 26.5402 38.8354C23.4695 37.2816 21.8685 35.6071 21.3227 34.9595C21.0429 34.6273 21.0853 34.1315 21.4172 33.8519C21.7495 33.5721 22.2454 33.6148 22.5248 33.9464C22.9023 34.3944 24.3582 35.9696 27.2499 37.4328C30.1417 38.8959 32.2731 39.1363 32.8574 39.1749C33.2907 39.2038 33.6185 39.5782 33.5897 40.0113C33.5623 40.4268 33.2166 40.7453 32.8063 40.7453Z" fill="#8B7DAB"/>
<path d="M5.15976 37.301C7.28791 38.9383 10.3405 38.5403 11.9777 36.4121C13.615 34.284 13.217 31.2314 11.0888 29.5942C8.96069 27.9569 6.89746 29.116 5.26019 31.2443C3.62293 33.3723 3.03147 35.6636 5.15976 37.301Z" fill="#B1B9C6"/>
<path d="M8.1177 39.0935C6.91554 39.0935 5.70467 38.7123 4.68026 37.9243C3.47581 36.9976 2.89962 35.7761 3.01432 34.3919C3.10776 33.2632 3.65384 32.043 4.63703 30.765C6.82581 27.9201 9.35239 27.2664 11.568 28.9711C14.0364 30.8702 14.4996 34.4232 12.6007 36.8916C11.4897 38.3357 9.81246 39.0935 8.1177 39.0935ZM5.63891 36.6782C7.41997 38.0486 9.98436 37.7143 11.3547 35.9329C12.7251 34.1516 12.3907 31.5875 10.6095 30.2172C9.82715 29.6152 9.05666 29.4617 8.25394 29.7478C7.48759 30.0207 6.66774 30.704 5.88313 31.7237C5.09852 32.7435 4.6483 33.711 4.58125 34.5219C4.51064 35.3711 4.85672 36.0766 5.63891 36.6782Z" fill="#678490"/>
<path d="M52.6244 52.4764C52.6244 52.5873 52.6072 52.6981 52.5759 52.8054L51.5892 59.8895H35.4195L34.4328 52.8054C34.4015 52.698 34.3877 52.5873 34.3877 52.4764C34.3877 50.6655 38.4699 49.194 43.5044 49.194C48.5422 49.194 52.6244 50.6655 52.6244 52.4764Z" fill="#DACDF6"/>
<path d="M51.5886 59.8896L50.2036 69.8442C50.2036 71.1773 47.2051 72.2541 43.5037 72.2541C39.8023 72.2541 36.8039 71.1773 36.8039 69.8442L35.4189 59.8896H51.5886Z" fill="#8B7DAB"/>
<path d="M43.5051 53.8879C41.7448 53.8879 40.039 53.6679 38.4346 53.2341C38.0155 53.1209 37.7676 52.689 37.881 52.2701C37.9943 51.8511 38.4258 51.6027 38.8451 51.7164C40.3157 52.114 41.8835 52.3157 43.5052 52.3157C45.1269 52.3157 46.6947 52.114 48.1654 51.7164C48.5849 51.6031 49.016 51.8511 49.1294 52.2701C49.2427 52.689 48.9949 53.1207 48.5758 53.2341C46.9712 53.6679 45.2653 53.8879 43.5051 53.8879Z" fill="#8B7DAB"/>
<path d="M43.627 62.6636C47.9471 62.6636 51.4492 61.4211 51.4492 59.8884C51.4492 58.3556 47.9471 57.1131 43.627 57.1131C39.3068 57.1131 35.8047 58.3556 35.8047 59.8884C35.8047 61.4211 39.3068 62.6636 43.627 62.6636Z" fill="#8B7DAB"/>
<path d="M43.5048 73.0407C39.8217 73.0407 36.0936 71.965 36.0199 69.9074L33.6604 52.959C33.6207 52.7991 33.6006 52.6366 33.6006 52.4753C33.6006 51.6035 34.1541 50.3651 36.7912 49.4166C38.5965 48.7673 40.9809 48.4097 43.5048 48.4097C46.0287 48.4097 48.413 48.7673 50.2183 49.4166C52.8553 50.3651 53.409 51.6035 53.409 52.4753C53.409 52.6366 53.3889 52.7991 53.3492 52.959L50.9898 69.9074C50.9159 71.965 47.188 73.0407 43.5048 73.0407ZM43.5048 49.9818C41.1577 49.9818 38.9625 50.3065 37.3235 50.8959C35.8377 51.4302 35.1728 52.0741 35.1728 52.4751C35.1728 52.5136 35.1784 52.5526 35.1899 52.5944C35.1993 52.6279 35.2063 52.6619 35.2112 52.6964L37.5833 69.7364C37.5883 69.7723 37.5908 69.8086 37.5908 69.8448C37.5908 70.316 39.6632 71.4685 43.5048 71.4685C47.3464 71.4685 49.4187 70.3161 49.4187 69.8448C49.4187 69.8086 49.4213 69.7723 49.4263 69.7364L51.7985 52.6964C51.8032 52.6619 51.8104 52.6279 51.8198 52.5944C51.8313 52.5526 51.8369 52.5136 51.8369 52.4751C51.8369 52.074 51.172 51.4302 49.6862 50.8959C48.0472 50.3065 45.852 49.9818 43.5048 49.9818Z" fill="#8B7DAB"/>
<path d="M52.2979 57.9903C49.7108 57.2713 47.0307 58.7856 46.3116 61.3726C45.5926 63.9597 47.1069 66.6398 49.694 67.3589C52.281 68.0779 53.7584 66.2294 54.4774 63.6423C55.1965 61.0551 54.8849 58.7093 52.2979 57.9903Z" fill="#B1B9C6"/>
<path d="M50.7653 68.3006C50.3559 68.3006 49.9281 68.2397 49.4838 68.1163C48.0303 67.7124 46.821 66.7664 46.0789 65.453C45.3367 64.1396 45.1505 62.6159 45.5545 61.1623C46.3885 58.1617 49.5084 56.3989 52.5086 57.233C55.2025 57.9817 56.1962 60.3946 55.2352 63.8527C54.4324 66.7405 52.8381 68.3006 50.7653 68.3006ZM50.9976 58.5982C49.2126 58.5982 47.57 59.7814 47.0692 61.5832C46.7776 62.6321 46.912 63.7317 47.4476 64.6795C47.9832 65.6273 48.8559 66.3099 49.9047 66.6015C50.8556 66.8655 51.6272 66.7191 52.2642 66.1527C52.8722 65.6124 53.3758 64.6714 53.7203 63.4317C54.0648 62.192 54.1189 61.1262 53.8771 60.3496C53.6236 59.5359 53.0383 59.0119 52.0875 58.7476C51.7241 58.6465 51.3578 58.5982 50.9976 58.5982Z" fill="#678490"/>
</g>
<defs>
<clipPath id="clip0_30_538">
<rect width="73.0435" height="73.0435" fill="white" transform="translate(0.478516 0.173828)"/>
</clipPath>
</defs>
</svg>
