<svg width="74" height="74" viewBox="0 0 74 74" fill="none" xmlns="http://www.w3.org/2000/svg">
<g clip-path="url(#clip0_30_673)">
<path d="M12.5722 54.8419C18.4086 59.0158 23.1443 59.4993 27.2261 57.77C30.9875 56.1763 34.1936 52.7033 37.1942 48.5076C43.4509 39.7587 46.4445 31.1801 35.2293 23.1597C24.0143 15.1394 16.8639 20.7455 10.6073 29.4941C8.03533 33.0905 6.01479 36.6581 5.30604 40.17C4.81257 42.6151 4.9548 45.0331 5.98954 47.4152C7.08391 49.9348 9.17691 52.414 12.5722 54.8419Z" fill="#F5DDD9"/>
<path d="M22.6678 59.5007C19.3579 59.5007 15.8714 58.1677 12.115 55.4815C6.67545 51.5915 4.10366 47.3183 4.25217 42.4174C4.37015 38.5261 6.13304 34.3995 9.96797 29.0369C13.8029 23.6743 17.1382 20.6721 20.7825 19.3026C25.3722 17.5774 30.2474 18.6302 35.6868 22.5202C41.1264 26.41 43.6982 30.6834 43.5497 35.5843C43.4317 39.4754 41.6688 43.6022 37.8339 48.9648C33.999 54.3274 30.6637 57.3296 27.0195 58.6991C25.5991 59.2328 24.1511 59.5007 22.6678 59.5007ZM13.0297 54.2025C18.0099 57.764 22.405 58.7532 26.4662 57.2273C29.7559 55.9909 32.9615 53.0749 36.5549 48.0502C40.1483 43.0254 41.8716 39.0491 41.9781 35.5366C42.1097 31.2002 39.7526 27.3609 34.7722 23.7993C29.7919 20.2377 25.3967 19.2482 21.3356 20.7746C18.046 22.0109 14.8403 24.9269 11.2469 29.9517C7.65354 34.9764 5.93032 38.9527 5.82375 42.4652C5.69236 46.8013 8.05 50.6411 13.0297 54.2025Z" fill="#E9B5AC"/>
<path d="M37.2817 2.66838C33.7949 1.77631 29.1796 9.89212 27.2516 13.6433C25.5812 14.2914 23.5585 15.3498 21.3184 16.6907C19.066 18.0118 17.1661 19.2779 15.7954 20.4318C11.5772 20.3204 2.24422 20.4732 1.35272 23.958C0.467209 27.4188 6.48374 31.9147 9.33315 33.818C9.33429 37.2563 10.4359 40.3698 11.8583 42.7702C13.0882 44.846 14.5639 46.7725 16.2895 48.551C19.6578 52.0219 24.698 53.2333 29.2652 51.643C32.7915 50.4137 36.1293 48.8661 39.2783 47.0001C42.4274 45.134 45.3878 42.9497 48.1596 40.4471C51.7479 37.2048 53.1059 32.2022 51.6791 27.5808C50.948 25.213 49.9667 22.9934 48.7368 20.9177C47.3148 18.5178 45.1135 16.0569 42.0994 14.4046C41.797 10.9961 40.7437 3.55418 37.2817 2.66838Z" fill="#B1B9C6"/>
<path d="M38.9474 32.3948C39.8454 33.91 40.0321 35.6051 39.5826 36.952C39.3463 37.657 38.9372 38.2622 38.3652 38.7006C38.2668 38.7804 38.1594 38.8511 38.0462 38.9182C36.4966 39.8364 34.4419 39.3619 32.9322 37.8999C32.7804 37.7516 32.6349 37.5961 32.4954 37.4265C32.2738 37.1667 32.0741 36.8835 31.8918 36.5757C31.4599 35.8469 31.2361 35.1513 31.1899 34.5033C31.0756 32.9787 31.9331 31.7206 33.3011 30.9099C33.3354 30.8897 33.3722 30.8679 33.4078 30.8502C33.5106 30.7894 33.6161 30.7339 33.7224 30.6851C35.1312 30.0032 36.6566 30.0341 37.8999 31.1067C38.2798 31.4361 38.631 31.8606 38.9474 32.3948Z" fill="#678490"/>
<path d="M39.5823 36.952C39.3461 37.657 38.9369 38.2622 38.365 38.7006C38.2666 38.7804 38.1591 38.8511 38.046 38.9182C36.4964 39.8363 34.4416 39.3619 32.932 37.8998C32.7802 37.7516 32.6346 37.5961 32.4951 37.4265C32.8646 36.7845 33.4425 36.236 34.1581 35.812C36.01 34.7145 38.1313 34.8332 39.5823 36.952Z" fill="#E9B5AC"/>
<path d="M24.4256 16.8511C26.4614 20.2868 27.111 23.6627 25.8824 24.3907C24.6513 25.1202 22.0021 22.9292 19.9663 19.4933C19.6873 19.0224 19.4345 18.5538 19.2109 18.0927C20.6216 17.1679 22.071 16.3089 23.5612 15.5183C23.8585 15.936 24.1481 16.3828 24.4256 16.8511Z" fill="#91A2B5"/>
<path d="M18.9687 18.5596C21.0031 21.9928 21.6567 25.3696 20.4256 26.0992C19.2417 26.8007 16.7329 24.7861 14.7314 21.5645C15.3786 20.911 16.0862 20.2997 16.8483 19.738C17.5022 19.2581 18.1641 18.7913 18.8367 18.3429C18.8829 18.4149 18.925 18.486 18.9687 18.5596Z" fill="#91A2B5"/>
<path d="M28.7393 13.2252C30.6169 16.5379 31.1884 19.7219 29.9993 20.4265C28.7682 21.1561 26.1202 18.9609 24.0858 15.5276C24.0422 15.4538 24.0001 15.3829 23.959 15.3076C24.781 14.8773 25.6197 14.4692 26.4669 14.081C27.2128 13.7386 27.9728 13.4554 28.7393 13.2252Z" fill="#91A2B5"/>
<path d="M37.8481 9.4737C37.8481 9.4737 38.6803 10.0683 39.2729 10.9363C39.8223 11.7375 39.6971 12.6719 39.1969 13.3273C36.885 12.5752 34.4195 12.3016 31.9653 12.5508C31.7156 12.0874 31.6416 11.5305 31.8119 10.9782C32.4939 8.75782 33.679 6.09687 35.4752 5.82895C38.6048 5.36415 37.8481 9.4737 37.8481 9.4737Z" fill="white"/>
<path d="M7.04728 27.7246C7.04728 27.7246 7.16912 28.74 7.6459 29.6768C8.08473 30.5434 8.96453 30.8824 9.77971 30.7583C10.2302 28.3693 11.1744 26.0754 12.5716 24.0423C12.285 23.6007 11.8322 23.2683 11.266 23.1525C8.99093 22.6843 6.08773 22.4459 4.98994 23.8926C3.07911 26.4148 7.04728 27.7246 7.04728 27.7246Z" fill="white"/>
<path d="M52.43 27.3491C51.6853 24.9376 50.6702 22.6392 49.4129 20.5172C48.3491 18.7217 46.2652 15.9031 42.842 13.9181C42.4247 9.65472 41.1791 2.85469 37.4747 1.90683C33.818 0.971678 29.6154 7.37012 26.687 13.023C25.0986 13.6671 23.1683 14.6669 20.9203 16.0126C18.6551 17.3414 16.8494 18.5553 15.5209 19.6399C9.15626 19.4959 1.52364 20.1106 0.589202 23.7632C-0.359936 27.4728 5.00805 31.8271 8.54894 34.238C8.64595 38.194 10.1175 41.3757 11.1815 43.1713C12.4387 45.2928 13.9673 47.2871 15.725 49.0988C18.2532 51.7041 21.7116 53.1106 25.2275 53.1105C26.6699 53.1105 28.1223 52.8736 29.5237 52.3857C33.0831 51.1448 36.4998 49.5604 39.6787 47.6767C42.8581 45.7928 45.8886 43.5567 48.6865 41.0308C52.4708 37.6111 53.9402 32.2407 52.43 27.3491ZM47.6325 39.8639C44.9125 42.3199 41.9668 44.4933 38.8773 46.324C35.7882 48.1545 32.467 49.6944 29.0064 50.9007C24.7649 52.3775 19.9947 51.2404 16.8535 48.0035C15.1818 46.2806 13.7286 44.385 12.5344 42.3695C11.2146 40.1422 9.20505 35.5903 10.5732 30.1272C10.6788 29.706 10.4228 29.279 10.0017 29.1736C9.58054 29.0682 9.15355 29.324 9.04812 29.7452C8.82343 30.6426 8.68276 31.5163 8.60815 32.3627C4.03138 29.104 1.61994 26.0788 2.1127 24.1527C2.5862 22.3018 7.02744 21.2029 13.8603 21.1946C13.146 21.9698 12.4951 22.772 11.9239 23.5841C11.6741 23.9391 11.7594 24.4295 12.1145 24.6794C12.252 24.7763 12.4098 24.8227 12.5662 24.8227C12.8134 24.8227 13.0568 24.7064 13.2099 24.489C13.8021 23.6471 14.4873 22.8144 15.2458 22.0139C16.4536 20.7414 18.6305 19.1786 21.722 17.3651C24.7913 15.528 27.2076 14.3692 28.9034 13.9211C29.9707 13.6397 31.0302 13.4389 32.0524 13.3239C32.4838 13.2754 32.7942 12.8862 32.7456 12.4546C32.6971 12.0232 32.3079 11.7133 31.8765 11.7613C30.8897 11.8723 29.8729 12.0579 28.8485 12.3127C32.1351 6.3244 35.2314 2.95612 37.0853 3.42991C39.0081 3.92181 40.504 7.48938 41.1684 13.0688C40.3903 12.7277 39.5565 12.4315 38.6617 12.1977C38.2421 12.0877 37.8121 12.3395 37.7024 12.7595C37.5926 13.1796 37.8442 13.6092 38.2644 13.7189C43.7132 15.1425 46.7408 19.0915 48.0606 21.3186C49.255 23.3344 50.2198 25.5194 50.928 27.8127C52.2582 32.1226 50.9647 36.8529 47.6325 39.8639Z" fill="#678490"/>
<path d="M44.5156 28.4197C44.247 28.4197 43.9853 28.2821 43.8385 28.0343C43.6171 27.6608 43.7405 27.1786 44.114 26.9572L47.3824 25.0204C47.756 24.799 48.2382 24.9222 48.4595 25.2958C48.6809 25.6693 48.5575 26.1515 48.1839 26.373L44.9155 28.3097C44.7899 28.3844 44.6518 28.4197 44.5156 28.4197Z" fill="#91A2B5"/>
<path d="M45.7463 30.4996C45.3738 30.4996 45.043 30.2337 44.9738 29.8543C44.896 29.4272 45.1792 29.0178 45.6064 28.9399L48.8673 28.3457C49.2942 28.2686 49.7039 28.5511 49.7817 28.9781C49.8596 29.4052 49.5762 29.8147 49.1491 29.8926L45.8881 30.4868C45.8405 30.4955 45.7931 30.4996 45.7463 30.4996Z" fill="#91A2B5"/>
<path d="M21.6864 41.9471C21.4178 41.9471 21.1561 41.8093 21.0093 41.5615C20.788 41.188 20.9114 40.7056 21.2849 40.4844L24.5533 38.5477C24.9271 38.3263 25.4092 38.4498 25.6304 38.8233C25.8517 39.1968 25.7283 39.6792 25.3548 39.9004L22.0864 41.8371C21.9606 41.9117 21.8226 41.9471 21.6864 41.9471Z" fill="#91A2B5"/>
<path d="M24.0982 44.6652C23.9243 44.6652 23.7493 44.6079 23.6036 44.4897C23.2664 44.2162 23.2146 43.7213 23.4879 43.3841L25.5752 40.8092C25.8487 40.4718 26.3437 40.42 26.681 40.6935C27.0183 40.9668 27.07 41.4619 26.7967 41.7991L24.7094 44.374C24.554 44.5658 24.3271 44.6652 24.0982 44.6652Z" fill="#91A2B5"/>
<path d="M34.701 23.1502C34.4324 23.1502 34.1708 23.0124 34.024 22.7647C33.8027 22.3912 33.9261 21.9089 34.2996 21.6876L36.0142 20.6717C36.3877 20.4502 36.8701 20.5739 37.0914 20.9472C37.3126 21.3207 37.1892 21.803 36.8157 22.0243L35.1011 23.0402C34.9754 23.1148 34.8373 23.1502 34.701 23.1502Z" fill="white"/>
<path d="M23.4149 29.8378C23.1463 29.8378 22.8846 29.7 22.7378 29.4524C22.5166 29.0789 22.64 28.5965 23.0134 28.3752L24.7281 27.3593C25.1017 27.1379 25.5839 27.2615 25.8052 27.635C26.0265 28.0085 25.9031 28.4908 25.5296 28.7121L23.8149 29.728C23.6892 29.8025 23.5511 29.8378 23.4149 29.8378Z" fill="white"/>
<path d="M39.6211 31.9936C38.2301 29.6459 35.9234 28.8613 33.5974 29.8732L33.159 29.1334L33.4007 28.9901C33.7742 28.7687 33.8976 28.2866 33.6762 27.913C33.4549 27.5397 32.9727 27.416 32.5991 27.6374L30.7634 28.7252C30.39 28.9465 30.2666 29.4287 30.4878 29.8023C30.6346 30.0501 30.8963 30.1878 31.1649 30.1878C31.3011 30.1878 31.4392 30.1523 31.5649 30.0778L31.8065 29.9347L32.245 30.6748C31.4127 31.3205 30.8372 32.1237 30.5649 33.0306C30.1928 34.2699 30.4165 35.6342 31.2118 36.9764C32.4076 38.9945 34.4112 40.1699 36.3041 40.1699C37.054 40.1699 37.7867 39.9853 38.4449 39.5954C40.763 38.2218 41.2907 34.8116 39.6211 31.9936ZM37.6431 38.243C36.0704 39.1747 33.792 38.2471 32.5644 36.1751C31.9911 35.2074 31.825 34.3016 32.0708 33.4831C32.2939 32.7402 32.8566 32.0839 33.6982 31.5852C34.3494 31.1994 34.9816 31.0091 35.5752 31.0091C36.6336 31.0091 37.569 31.6143 38.2687 32.7951C39.4961 34.8673 39.2157 37.3111 37.6431 38.243Z" fill="#678490"/>
<path d="M39.4458 27.391C39.0713 27.391 38.6944 27.3425 38.3226 27.2442C37.9029 27.1331 37.6526 26.7029 37.7636 26.2831C37.8746 25.8634 38.3043 25.6134 38.7247 25.724C39.4455 25.9149 40.1976 25.8132 40.8421 25.4382C41.4867 25.0633 41.9468 24.4597 42.1374 23.7388C42.2485 23.3193 42.6785 23.0693 43.0985 23.1797C43.5182 23.2909 43.7686 23.721 43.6576 24.1409C43.3596 25.2677 42.6406 26.2112 41.6329 26.7974C40.9576 27.1903 40.2067 27.391 39.4458 27.391Z" fill="#605C5D"/>
<path d="M23.1289 36.8764C22.7605 36.8764 22.3866 36.8293 22.0141 36.731C21.5944 36.62 21.344 36.1898 21.455 35.7699C21.566 35.3503 21.9963 35.1003 22.4161 35.2108C23.9048 35.6047 25.4353 34.7139 25.8288 33.2257C25.9399 32.8061 26.37 32.5563 26.7899 32.6666C27.2096 32.7776 27.4599 33.2078 27.349 33.6277C26.8321 35.5816 25.061 36.8764 23.1289 36.8764Z" fill="#605C5D"/>
<path d="M57.4378 34.2227C55.6627 32.7413 53.107 32.2537 50.9484 33.0107C42.7273 35.8939 27.9062 45.4255 25.472 56.4968C22.558 69.7508 54.3867 77.6877 62.6289 67.1056C70.8711 56.5235 76.9198 51.1885 69.1041 44.2581C64.2871 39.9866 60.0105 36.3695 57.4378 34.2227Z" fill="#F5DDD9"/>
<path d="M49.2158 72.7948C44.0572 72.7948 38.5573 71.5902 33.9885 69.4444C26.9792 66.1525 23.5951 61.3718 24.704 56.3281C27.1328 45.2803 41.645 35.4405 50.6879 32.2687C53.0984 31.4237 55.9455 31.9535 57.9413 33.619C60.6471 35.8768 64.8705 39.4532 69.6255 43.6698C77.0847 50.2843 72.6873 55.7731 66.0309 64.0817C65.1366 65.1982 64.2115 66.3526 63.249 67.5885C60.7681 70.7736 56.1006 72.6182 50.1064 72.7824C49.8108 72.7907 49.5138 72.7948 49.2158 72.7948ZM53.0738 33.4411C52.4386 33.4411 51.8063 33.5428 51.2084 33.7527C47.6173 35.0121 41.8775 37.9167 36.5382 42.2915C32.5663 45.5459 27.5554 50.6814 26.2396 56.6658C25.7961 58.6832 25.7283 63.828 34.6569 68.0213C39.2068 70.1581 44.9674 71.3491 50.0632 71.211C55.5793 71.0599 59.8215 69.4304 62.0084 66.6225C62.9776 65.3781 63.906 64.2194 64.8037 63.0987C68.0971 58.9881 70.6983 55.741 71.6032 52.8563C72.5201 49.9327 71.6166 47.5371 68.5823 44.8464C63.8419 40.6429 59.6313 37.0774 56.9339 34.8264C55.8518 33.9233 54.4559 33.4411 53.0738 33.4411Z" fill="#E9B5AC"/>
<path d="M49.1542 29.8652C47.0477 30.7002 45.633 32.1163 46.4682 34.2229C47.3032 36.3294 49.6878 37.36 51.7944 36.525C53.9009 35.69 54.9315 33.3054 54.0965 31.1988C53.2614 29.0923 51.2608 29.0302 49.1542 29.8652Z" fill="#B1B9C6"/>
<path d="M50.2879 37.6001C48.3411 37.6001 46.4969 36.4296 45.7371 34.5128C44.8362 32.2397 45.9759 30.2795 48.8642 29.1345C51.7527 27.9899 53.9261 28.6365 54.827 30.9092C55.3083 32.1234 55.2879 33.4521 54.7698 34.6507C54.2516 35.8495 53.2976 36.7747 52.0837 37.256C51.4947 37.4894 50.8863 37.6001 50.2879 37.6001ZM49.4437 30.5961C46.3605 31.8183 46.9914 33.41 47.1988 33.9333C47.8727 35.6334 49.8045 36.4684 51.5045 35.7942C52.3281 35.4678 52.9752 34.84 53.3267 34.0269C53.6783 33.2137 53.6921 32.3123 53.3655 31.4887C52.5271 29.374 50.2066 30.2935 49.4437 30.5961Z" fill="#678490"/>
<path d="M29.0797 45.2122C27.8775 47.133 27.5769 49.1118 29.4977 50.3141C31.4186 51.5163 33.9503 50.9337 35.1523 49.0128C36.3546 47.092 35.7719 44.5603 33.8511 43.3582C31.9304 42.156 30.2818 43.2913 29.0797 45.2122Z" fill="#B1B9C6"/>
<path d="M31.6651 51.727C30.7586 51.727 29.8681 51.4732 29.0806 50.9803C27.9566 50.2769 27.3517 49.262 27.3316 48.0455C27.3153 47.0617 27.6792 45.9679 28.4134 44.795C29.1475 43.6221 29.9721 42.8167 30.8642 42.4013C31.9671 41.8878 33.1441 41.9881 34.2683 42.6918C36.5535 44.122 37.2491 47.1446 35.8189 49.43C35.1261 50.5369 34.0436 51.3079 32.7709 51.6008C32.4035 51.6854 32.033 51.727 31.6651 51.727ZM32.2884 43.649C32.0336 43.649 31.7821 43.7085 31.5279 43.8268C30.9245 44.1078 30.3084 44.731 29.7461 45.6293C29.1841 46.5275 28.8927 47.3541 28.9037 48.0196C28.9151 48.7057 29.2364 49.223 29.9149 49.6477C30.6659 50.1177 31.5548 50.2672 32.4184 50.0686C33.2818 49.87 34.0161 49.3468 34.4861 48.5959C35.4564 47.0455 34.9844 44.9949 33.4341 44.0247C33.033 43.7734 32.657 43.649 32.2884 43.649Z" fill="#678490"/>
</g>
<defs>
<clipPath id="clip0_30_673">
<rect width="73.0435" height="73.0435" fill="white" transform="translate(0.478516 0.783203)"/>
</clipPath>
</defs>
</svg>
