<svg width="74" height="74" viewBox="0 0 74 74" fill="none" xmlns="http://www.w3.org/2000/svg">
<g clip-path="url(#clip0_30_814)">
<path d="M48.8937 45.7569C47.4958 45.7569 46.1722 46.073 44.989 46.6362C44.541 43.1444 41.5599 40.4454 37.9463 40.4454C34.0571 40.4454 30.8999 43.5716 30.8458 47.4478C29.3029 46.8716 27.5337 46.5438 25.6527 46.5438C19.6529 46.5438 14.7891 49.8755 14.7891 53.9854C14.7891 58.0952 19.6529 61.427 25.6527 61.427C31.3995 61.427 36.1008 58.3698 36.4875 54.5007C36.9585 54.599 37.4462 54.6513 37.9463 54.6513C38.5911 54.6513 39.2151 54.5639 39.8089 54.4028C39.8016 54.5519 39.7975 54.702 39.7975 54.8529C39.7975 59.8765 43.8699 63.949 48.8935 63.949C53.9171 63.949 57.9896 59.8765 57.9896 54.8529C57.9897 49.8293 53.9173 45.7569 48.8937 45.7569Z" fill="#B1B9C6"/>
<path d="M52.187 60.2192V69.8765C52.187 69.8765 46.5838 73.7963 37.9458 73.7963C29.3093 73.7963 23.7061 69.8765 23.7061 69.8765V60.2192C27.431 55.8807 29.0205 46.6912 26.0594 43.2435H32.2979C31.3855 44.4374 30.8441 45.9302 30.8441 47.5488C30.8441 51.4716 34.0232 54.6521 37.946 54.6521C41.8701 54.6521 45.0493 51.4716 45.0493 47.5488C45.0493 45.9302 44.5093 44.4374 43.5969 43.2435H49.8339C46.8725 46.6912 48.4622 55.8807 52.187 60.2192Z" fill="#F5DDD9"/>
<path d="M23.7052 70.6706C23.2667 70.6706 22.9111 70.3151 22.9111 69.8765V60.2198C22.9111 60.0301 22.979 59.8466 23.1027 59.7025C24.7979 57.7282 26.1068 54.5793 26.6041 51.2794C27.1004 47.9863 26.6713 45.1753 25.4564 43.7601C25.1706 43.4274 25.2089 42.9259 25.5416 42.6403C25.8742 42.3546 26.3756 42.3928 26.6612 42.7255C28.1955 44.5126 28.7471 47.7167 28.1744 51.5161C27.653 54.9761 26.2868 58.3097 24.4993 60.5077V69.8765C24.4993 70.3149 24.1437 70.6706 23.7052 70.6706Z" fill="#E9B5AC"/>
<path d="M52.1874 70.6705C51.7489 70.6705 51.3934 70.315 51.3934 69.8765V60.5077C49.6058 58.3096 48.2395 54.976 47.7182 51.516C47.1456 47.7166 47.6971 44.5126 49.2315 42.7254C49.5169 42.3927 50.0183 42.3545 50.3512 42.6402C50.6839 42.9259 50.7222 43.4273 50.4364 43.76C49.2213 45.1751 48.7924 47.9861 49.2887 51.2793C49.786 54.5793 51.0949 57.7281 52.7901 59.7025C52.9137 59.8465 52.9817 60.03 52.9817 60.2198V69.8765C52.9815 70.3149 52.626 70.6705 52.1874 70.6705Z" fill="#E9B5AC"/>
<path d="M37.9469 55.4454C33.5924 55.4454 30.0498 51.9028 30.0498 47.5485C30.0498 43.194 33.5924 39.6514 37.9469 39.6514C42.3014 39.6514 45.844 43.194 45.844 47.5485C45.844 51.903 42.3014 55.4454 37.9469 55.4454ZM37.9469 41.2395C34.4682 41.2395 31.6379 44.0696 31.6379 47.5485C31.6379 51.0272 34.4681 53.8573 37.9469 53.8573C41.4258 53.8573 44.2559 51.0272 44.2559 47.5485C44.2558 44.0696 41.4258 41.2395 37.9469 41.2395Z" fill="#E9B5AC"/>
<path d="M45.0497 68.6618C40.3808 69.7827 35.5127 69.7827 30.8438 68.6618C30.8438 65.2237 30.8438 61.7858 30.8438 58.3481C35.5127 59.4693 40.3808 59.4693 45.0497 58.3481C45.0497 61.7857 45.0497 65.2237 45.0497 68.6618Z" fill="#F5DDD9"/>
<path d="M37.9469 70.2924C35.4948 70.2924 33.0426 70.0064 30.6585 69.4338C30.3015 69.3482 30.0498 69.029 30.0498 68.6618V58.3481C30.0498 58.1048 30.1612 57.875 30.3523 57.7245C30.5433 57.5738 30.7931 57.5189 31.0292 57.576C35.5549 58.6625 40.3389 58.6625 44.8644 57.576C45.1009 57.5189 45.3504 57.5738 45.5413 57.7245C45.7323 57.8751 45.8437 58.1048 45.8437 58.3481V68.6618C45.8437 69.029 45.5921 69.3482 45.235 69.4338C42.8512 70.0064 40.3992 70.2924 37.9469 70.2924ZM31.6379 68.0289C35.7787 68.9294 40.1151 68.9294 44.2558 68.0289V59.3386C40.1086 60.1924 35.7853 60.1924 31.6379 59.3386V68.0289Z" fill="#E9B5AC"/>
<path d="M14.7043 15.4579C13.6181 12.1066 13.0424 8.45056 14.7967 6.69609C17.6477 3.84511 26.7316 9.02963 30.7339 11.5448C32.7145 11.2158 35.2673 11.0821 38.1936 11.0924C41.1199 11.0821 43.6762 11.2158 45.6533 11.5448C49.6556 9.02963 58.743 3.84183 61.5939 6.69609C63.3861 8.48822 62.7486 12.2575 61.6213 15.66C56.053 12.9805 47.5174 11.2672 37.947 11.2672C28.6198 11.2672 20.276 12.8947 14.7043 15.4579Z" fill="#B1B9C6"/>
<path d="M14.2225 16.5069C12.4292 11.4215 12.4324 7.93068 14.2318 6.13127C15.7349 4.62831 18.48 4.70549 22.6244 6.36823C25.7405 7.61825 28.9823 9.50767 31.153 10.8725L30.3076 12.217C22.7653 7.47487 17.036 5.57346 15.3547 7.25417C14.0622 8.5467 14.192 11.6449 15.7202 15.9784L14.2225 16.5069Z" fill="#678490"/>
<path d="M62.1019 16.6847L60.6063 16.1503C62.188 11.7226 62.3381 8.56319 61.029 7.2544C59.3457 5.57027 53.6161 7.47225 46.0763 12.2169L45.2305 10.8728C47.3977 9.50905 50.6364 7.62048 53.758 6.36832C57.9031 4.70559 60.6488 4.62812 62.1519 6.1315C63.9707 7.94974 63.9539 11.5003 62.1019 16.6847Z" fill="#678490"/>
<path d="M58.2531 13.579C58.2531 13.579 58.7158 14.6276 58.7911 15.8029C58.863 16.8891 58.2086 17.7183 57.3519 18.0644C55.5529 16.0187 53.3325 14.3466 50.8242 13.1849C50.8482 12.5955 51.095 12.0165 51.5746 11.5812C53.5004 9.83028 56.1628 7.94214 58.0475 8.70981C61.3302 10.0496 58.2531 13.579 58.2531 13.579Z" fill="white"/>
<path d="M18.1348 13.579C18.1348 13.579 17.6721 14.6276 17.5968 15.8029C17.5249 16.8891 18.1793 17.7183 19.036 18.0644C20.835 16.0187 23.0554 14.3466 25.5637 13.1849C25.5397 12.5955 25.2929 12.0165 24.8133 11.5812C22.8874 9.83028 20.2251 7.94214 18.3403 8.70981C15.0578 10.0496 18.1348 13.579 18.1348 13.579Z" fill="white"/>
<path d="M59.4442 18.0638C59.4442 8.97503 49.9303 1.60706 38.1943 1.60706C26.4582 1.60706 16.9443 8.97503 16.9443 18.0638H59.4442Z" fill="#F5DDD9"/>
<path d="M72.7253 23.0344C72.7253 20.2452 69.8536 17.6787 65.0517 15.6603C58.6768 12.9808 48.9044 11.2674 37.9473 11.2674C27.2687 11.2674 17.716 12.895 11.3371 15.4581C6.23703 17.5038 3.16535 20.1492 3.16535 23.0344L3.16406 23.0355C3.16406 29.534 18.7363 34.8019 37.9456 34.8019C57.1549 34.8019 72.7271 29.534 72.7271 23.0355" fill="#F5DDD9"/>
<path d="M37.9456 35.5959C28.5709 35.5959 19.746 34.3571 13.097 32.1077C6.17965 29.7676 2.37012 26.5457 2.37012 23.0355C2.37012 22.597 2.72563 22.2415 3.16418 22.2415C3.60273 22.2415 3.95824 22.597 3.95824 23.0355C3.95824 25.7709 7.4746 28.5293 13.6058 30.6034C20.0953 32.7988 28.7392 34.0077 37.9456 34.0077C47.1519 34.0077 55.7959 32.7987 62.2853 30.6034C68.4165 28.5292 71.9329 25.7708 71.9329 23.0355C71.9329 22.597 72.2884 22.2415 72.727 22.2415C73.1655 22.2415 73.521 22.597 73.521 23.0355C73.521 26.5457 69.7115 29.7678 62.7942 32.1077C56.1451 34.3571 47.3204 35.5959 37.9456 35.5959Z" fill="#E9B5AC"/>
<path d="M60.4427 22.5132C61.7208 25.3231 62.2108 28.246 62.2108 30.8296C62.2108 33.5332 61.8887 36.2334 61.2412 38.9336C59.9767 44.2037 55.81 48.2505 50.4988 49.3264C46.3971 50.1557 42.2955 50.5703 38.1938 50.5703C34.0921 50.5703 29.9905 50.1557 25.8888 49.3264C20.5776 48.2505 16.4109 44.2037 15.1464 38.9336C14.4987 36.2334 14.1768 33.5332 14.1768 30.8296C14.1768 28.2015 14.6839 25.2134 16.0168 22.3557C30.5559 18.3465 45.9243 18.398 60.4427 22.5132Z" fill="#B1B9C6"/>
<path d="M38.1939 51.3644C34.059 51.3644 29.866 50.9406 25.7317 50.1049C22.9788 49.547 20.4602 48.2221 18.4478 46.2732C16.4392 44.328 15.0306 41.8539 14.3745 39.1188C13.7165 36.3752 13.3828 33.5863 13.3828 30.8296C13.3828 28.6809 13.7149 25.4082 15.2974 22.0198L16.7364 22.6917C15.2772 25.8162 14.9709 28.8418 14.9709 30.8296C14.9709 33.4618 15.2898 36.126 15.9186 38.7482C17.1056 43.6954 21.0811 47.542 26.0466 48.5481C30.0772 49.3629 34.1643 49.7762 38.1938 49.7762C42.2233 49.7762 46.3103 49.3629 50.3414 48.5481C55.3066 47.542 59.2821 43.6954 60.469 38.7482C61.0979 36.126 61.4167 33.4618 61.4167 30.8296C61.4167 28.8853 61.1223 25.9215 59.7201 22.8422L61.1654 22.1841C62.6857 25.5224 63.0049 28.7281 63.0049 30.8296C63.0049 33.5863 62.6713 36.3751 62.0132 39.1187C61.3571 41.8539 59.9485 44.3279 57.9399 46.2732C55.9276 48.2221 53.4089 49.547 50.6564 50.1049C46.5219 50.9406 42.3289 51.3644 38.1939 51.3644Z" fill="#678490"/>
<path d="M51.0681 32.9646C51.0681 31.4767 49.8619 30.2704 48.3739 30.2704C46.8859 30.2704 45.6797 31.4767 45.6797 32.9646C45.6797 34.4526 46.8859 35.6588 48.3739 35.6588C49.8619 35.6587 51.0681 34.4525 51.0681 32.9646Z" fill="#605C5D"/>
<path d="M30.7106 32.9646C30.7106 31.4767 29.5044 30.2704 28.0165 30.2704C26.5285 30.2704 25.3223 31.4767 25.3223 32.9646C25.3223 34.4526 26.5285 35.6588 28.0165 35.6588C29.5044 35.6587 30.7106 34.4525 30.7106 32.9646Z" fill="#605C5D"/>
<path d="M40.4909 36.0532C39.5809 36.0532 38.7614 35.6579 38.1955 35.03C37.6298 35.6579 36.8108 36.0532 35.901 36.0532C34.482 36.0532 33.2499 35.0936 32.905 33.7195C32.7981 33.2942 33.0565 32.8628 33.4818 32.7561C33.9075 32.6491 34.3384 32.9075 34.4453 33.3329C34.6126 33.9996 35.2113 34.4651 35.901 34.4651C36.7282 34.4651 37.4013 33.7921 37.4013 32.965C37.4013 32.5264 37.7568 32.1709 38.1953 32.1709C38.6339 32.1709 38.9894 32.5264 38.9894 32.965C38.9894 33.7921 39.6631 34.4651 40.4909 34.4651C41.1799 34.4651 41.7779 33.9996 41.9452 33.3329C42.0521 32.9075 42.4834 32.6492 42.9088 32.7561C43.3342 32.8628 43.5924 33.2942 43.4856 33.7195C43.1408 35.0936 41.9093 36.0532 40.4909 36.0532Z" fill="#678490"/>
<path d="M55.1908 37.6644H50.9337C50.4952 37.6644 50.1396 37.3089 50.1396 36.8704C50.1396 36.4318 50.4952 36.0763 50.9337 36.0763H55.1908C55.6293 36.0763 55.9848 36.4318 55.9848 36.8704C55.9848 37.3089 55.6295 37.6644 55.1908 37.6644Z" fill="#91A2B5"/>
<path d="M54.4169 41.6637C54.3253 41.6637 54.2321 41.6476 54.1411 41.6139L50.6581 40.3239C50.2468 40.1717 50.037 39.7148 50.1893 39.3036C50.3415 38.8923 50.7985 38.6823 51.2098 38.8348L54.6928 40.1248C55.1041 40.277 55.3139 40.734 55.1616 41.1451C55.043 41.4654 54.7396 41.6637 54.4169 41.6637Z" fill="#91A2B5"/>
<path d="M25.4563 37.6644H21.1993C20.7608 37.6644 20.4053 37.3089 20.4053 36.8704C20.4053 36.4318 20.7608 36.0763 21.1993 36.0763H25.4563C25.8948 36.0763 26.2503 36.4318 26.2503 36.8704C26.2503 37.3089 25.8948 37.6644 25.4563 37.6644Z" fill="#91A2B5"/>
<path d="M46.6621 27.7424H44.4288C43.9903 27.7424 43.6348 27.3869 43.6348 26.9484C43.6348 26.5098 43.9903 26.1543 44.4288 26.1543H46.6621C47.1006 26.1543 47.4561 26.5098 47.4561 26.9484C47.4561 27.3869 47.1006 27.7424 46.6621 27.7424Z" fill="white"/>
<path d="M31.9619 27.7424H29.7286C29.2901 27.7424 28.9346 27.3869 28.9346 26.9484C28.9346 26.5098 29.2901 26.1543 29.7286 26.1543H31.9619C32.4004 26.1543 32.7559 26.5098 32.7559 26.9484C32.7561 27.3869 32.4004 27.7424 31.9619 27.7424Z" fill="white"/>
<path d="M39.3902 32.5073H36.9991C36.5606 32.5073 36.2051 32.1518 36.2051 31.7133C36.2051 31.2747 36.5606 30.9192 36.9991 30.9192H39.3903C39.8289 30.9192 40.1844 31.2747 40.1844 31.7133C40.1844 32.1517 39.8289 32.5073 39.3902 32.5073Z" fill="#678490"/>
<path d="M65.3601 14.9283C63.5408 14.1636 61.4824 13.4878 59.2384 12.9076C57.8828 9.51621 55.1597 6.47834 51.5266 4.31913C47.6687 2.02583 43.0589 0.813904 38.1952 0.813904C33.3638 0.813904 28.7781 2.01142 24.9339 4.27705C21.3162 6.40929 18.5872 9.41363 17.2059 12.7712C14.9545 13.3296 12.8819 13.9818 11.0423 14.7211C5.37013 16.9963 2.37207 19.8708 2.37207 23.0342H3.9602C3.9602 20.6088 6.68534 18.1797 11.634 16.1948C18.1717 13.568 27.7628 12.0613 37.9482 12.0613C48.4303 12.0613 58.1973 13.6399 64.7451 16.3921C69.3798 18.3401 71.9321 20.6989 71.9321 23.0341H73.5203C73.52 19.975 70.6984 17.1718 65.3601 14.9283ZM19.1692 12.318C20.5255 9.70552 22.8098 7.37241 25.7401 5.64533C29.3402 3.5235 33.6471 2.40203 38.195 2.40203C46.6812 2.40203 54.2727 6.46079 57.2855 12.4364C51.6118 11.1665 44.9282 10.4733 37.9478 10.4733C31.2185 10.4733 24.7314 11.1247 19.1692 12.318Z" fill="#E9B5AC"/>
<path d="M62.211 23.8285C62.1336 23.8285 62.0548 23.8171 61.9769 23.793C61.3478 23.5991 60.776 23.4306 60.2292 23.2781C45.85 19.2022 30.6357 19.1483 16.2279 23.1212C15.4653 23.3285 14.6878 23.5542 13.914 23.793C13.4952 23.9218 13.0503 23.6876 12.9212 23.2683C12.792 22.8493 13.0268 22.4047 13.4458 22.2754C14.2366 22.0314 15.0315 21.8006 15.8086 21.5894C30.4935 17.5399 46.0035 17.595 60.6593 21.7492C61.2168 21.9049 61.8019 22.0773 62.4447 22.2754C62.8639 22.4045 63.0988 22.8489 62.9697 23.268C62.8644 23.6094 62.5503 23.8285 62.211 23.8285Z" fill="#E9B5AC"/>
<path d="M25.2222 53.0882C19.4896 48.3575 20.668 43.6723 20.668 43.6723C15.7221 36.2374 10.168 35.5348 6.72254 36.0395C5.22928 36.2582 4.71584 38.1578 5.87983 39.1185L15.0491 46.685C15.0491 46.685 15.0464 54.1058 18.1734 55.1545L25.2222 53.0882Z" fill="white"/>
<path d="M17.9208 55.9079C16.8364 55.5433 15.974 54.597 15.3574 53.0951L16.8266 52.4919C17.2604 53.5486 17.7988 54.1916 18.427 54.4027L17.9208 55.9079Z" fill="#E3E3E3"/>
<path d="M16.6632 53.9075C14.5248 56.4986 14.8919 60.3313 17.4806 62.4677C20.0718 64.606 23.9045 64.239 26.0429 61.6478C28.1792 59.059 27.8122 55.2262 25.221 53.088C22.6322 50.9516 18.7994 51.3187 16.6632 53.9075ZM23.388 59.457C22.46 60.5815 20.7959 60.7409 19.6714 59.813C18.5469 58.885 18.39 57.2228 19.3179 56.0983C20.2439 54.9763 21.9056 54.8149 23.0301 55.7428C24.1546 56.6707 24.3139 58.335 23.388 59.457Z" fill="#DACDF7"/>
<path d="M21.3455 64.6493C19.8045 64.6495 18.2549 64.1353 16.9762 63.08C15.56 61.9113 14.6836 60.261 14.5086 58.4332C14.3335 56.6054 14.8808 54.8187 16.0495 53.4025C17.2182 51.9863 18.8685 51.11 20.6963 50.9348C22.5241 50.7606 24.3108 51.3072 25.727 52.4759C27.1432 53.6446 28.0196 55.2949 28.1947 57.1227C28.3697 58.9505 27.8224 60.7372 26.6538 62.1534C25.2962 63.7983 23.328 64.6493 21.3455 64.6493ZM21.3611 52.4913C21.1908 52.4913 21.0196 52.4993 20.8477 52.5158C19.4421 52.6505 18.1731 53.3243 17.2744 54.4134C16.3756 55.5025 15.9549 56.8763 16.0894 58.2818C16.2239 59.6873 16.8979 60.9565 17.987 61.8551C20.2352 63.7102 23.5735 63.3906 25.4287 61.1425C26.3275 60.0534 26.7482 58.6797 26.6137 57.2741C26.4791 55.8685 25.8052 54.5994 24.7162 53.7008H24.7161C23.7603 52.912 22.5847 52.4913 21.3611 52.4913Z" fill="#8B7DAB"/>
<path d="M21.3492 61.2094C20.5795 61.2094 19.8058 60.9526 19.1673 60.4258C17.7074 59.221 17.4998 57.0532 18.7045 55.5932C19.288 54.886 20.1121 54.4485 21.0249 54.361C21.9375 54.2729 22.8299 54.5469 23.537 55.1304C24.9969 56.3352 25.2045 58.503 23.9998 59.963C23.322 60.7843 22.3391 61.2094 21.3492 61.2094ZM21.3554 55.9333C21.2959 55.9333 21.2362 55.9362 21.1762 55.9419C20.6858 55.9888 20.2429 56.2241 19.9294 56.6041C19.282 57.3885 19.3937 58.5535 20.178 59.2007C20.9624 59.8481 22.1272 59.7364 22.7746 58.9521C23.422 58.1677 23.3105 57.0027 22.526 56.3555C22.1926 56.0801 21.7824 55.9333 21.3554 55.9333Z" fill="#8B7DAB"/>
<path d="M26.6266 49.9214C19.2713 48.8518 16.5918 52.8716 16.5918 52.8716C7.76168 54.2013 3.51061 50.5584 1.57039 47.6669C0.729537 46.4137 1.79195 44.7574 3.28535 44.9745L15.0498 46.6853C15.0498 46.6853 20.5457 41.6991 23.4229 43.3114L26.6266 49.9214Z" fill="white"/>
<path d="M26.5123 50.7072L26.7409 49.1356C21.302 48.3444 18.2245 50.2208 16.8746 51.4097C16.3074 51.9091 15.5675 52.2197 14.7913 52.284C7.61477 52.8794 3.99884 49.8608 2.22981 47.2244C1.9161 46.7568 2.14165 46.3237 2.21826 46.202C2.29687 46.0773 2.59703 45.6766 3.1711 45.7602L14.9355 47.471C15.1702 47.5058 15.4076 47.4325 15.5831 47.2736C16.9004 46.0801 21.0973 42.9181 23.0348 44.0039L23.8112 42.6185C22.9014 42.1087 21.828 42.1085 20.7389 42.3837C18.5525 39.3481 16.0576 37.2319 13.3153 36.0938C11.1615 35.1997 8.90445 34.9177 6.60829 35.2541C5.6075 35.4002 4.8163 36.0985 4.54352 37.0764C4.26818 38.0634 4.58718 39.0806 5.37596 39.7304L12.3568 45.4911L3.39979 44.1886C2.38817 44.0415 1.42077 44.4886 0.874658 45.3556C0.333679 46.2143 0.34766 47.2694 0.911179 48.1091C2.74782 50.8464 6.30456 53.9491 12.9892 53.9488C13.6063 53.9488 14.251 53.9222 14.9227 53.8667C16.0366 53.7743 17.1026 53.3249 17.9242 52.6015C18.5024 52.0922 19.4628 51.4358 20.8914 51.0009C21.4641 50.8266 22.0821 51.0148 22.4647 51.4751C23.1084 52.2494 23.8624 52.9944 24.7179 53.7003L25.7287 52.4753C24.9809 51.8582 24.3226 51.2116 23.758 50.544C24.5843 50.5152 25.4996 50.56 26.5123 50.7072ZM6.07301 37.5034C6.11168 37.3649 6.28087 36.907 6.83797 36.8256C10.0734 36.3517 14.7829 37.0656 19.1813 42.9437C17.4453 43.7345 15.8551 44.9613 15.038 45.6449L6.38602 38.5051C5.93905 38.1369 6.0335 37.6452 6.07301 37.5034Z" fill="#E3E3E3"/>
<path d="M26.6258 49.9207C29.9504 50.4042 33.0363 48.1018 33.5194 44.7803C34.0029 41.4557 31.7004 38.3697 28.3758 37.8862C25.0543 37.4032 21.9684 39.7056 21.4849 43.0302C21.002 46.3517 23.3043 49.4377 26.6258 49.9207ZM27.1211 46.5145C25.6783 46.3046 24.6817 44.9652 24.891 43.5254C25.1008 42.0827 26.4377 41.0825 27.8803 41.2922C29.3231 41.502 30.3229 42.8419 30.113 44.2848C29.9039 45.7246 28.5638 46.7243 27.1211 46.5145Z" fill="#DACDF7"/>
<path d="M27.5162 50.7805C27.1831 50.7805 26.8479 50.7564 26.5124 50.7074C24.6953 50.4432 23.0899 49.4873 21.9918 48.0157C20.8938 46.5438 20.4347 44.7327 20.6989 42.9156C20.9631 41.0985 21.9191 39.493 23.3908 38.3949C24.8625 37.2968 26.674 36.8377 28.4909 37.102C32.2419 37.6475 34.8499 41.1429 34.3044 44.8939C34.04 46.711 33.084 48.3166 31.6123 49.4146C30.4124 50.3098 28.9866 50.7803 27.5162 50.7805ZM27.4905 38.6175C26.3596 38.6175 25.2632 38.9793 24.3405 39.6679C23.2088 40.5122 22.4736 41.7466 22.2705 43.1439C22.0672 44.5413 22.4204 45.9341 23.2647 47.0658C24.1091 48.1976 25.3436 48.9327 26.7409 49.1359C28.1385 49.3389 29.531 48.9859 30.6628 48.1417C31.7944 47.2972 32.5296 46.0628 32.7328 44.6655C33.1522 41.781 31.1468 39.0931 28.2623 38.6735C28.0044 38.6359 27.7466 38.6175 27.4905 38.6175Z" fill="#8B7DAB"/>
<path d="M27.5091 47.3379C27.3428 47.3379 27.1753 47.3258 27.0077 47.3014C26.1003 47.1695 25.2987 46.6922 24.7505 45.9572C24.2021 45.2223 23.9728 44.3179 24.1048 43.4104C24.3771 41.5375 26.1217 40.2353 27.9958 40.5075C29.8688 40.7798 31.1712 42.5253 30.8987 44.3985C30.7667 45.3058 30.2894 46.1076 29.5545 46.6558C28.9553 47.1028 28.2434 47.3379 27.5091 47.3379ZM27.5006 42.0596C26.6 42.0596 25.8097 42.722 25.6765 43.6389C25.6056 44.1267 25.7289 44.6126 26.0235 45.0075C26.3181 45.4022 26.7489 45.6589 27.2364 45.7298C27.7241 45.8008 28.21 45.6774 28.6049 45.3828C28.9998 45.0882 29.2563 44.6574 29.3272 44.1699C29.4736 43.1634 28.7739 42.2256 27.7674 42.079C27.6776 42.0661 27.5886 42.0596 27.5006 42.0596Z" fill="#8B7DAB"/>
<path d="M17.1615 49.3788C16.9245 49.3788 16.69 49.2733 16.5335 49.0715L16.3649 48.8541C16.0961 48.5076 16.1592 48.0087 16.5057 47.7401C16.8521 47.4713 17.351 47.5342 17.6199 47.8807L17.7885 48.0981C18.0573 48.4447 17.9942 48.9436 17.6477 49.2123C17.5028 49.3245 17.3316 49.3788 17.1615 49.3788Z" fill="#605C5D"/>
<path d="M12.432 59.7454C11.6549 57.508 11.81 55.4217 14.0473 54.6445C16.2846 53.8674 18.7283 55.0511 19.5054 57.2885C20.2825 59.5259 19.0988 61.9696 16.8614 62.7466C14.6242 63.5239 13.2091 61.9828 12.432 59.7454Z" fill="#B1B9C6"/>
<path d="M15.7392 63.7436C14.9646 63.7436 14.2441 63.4954 13.6114 63.0035C12.8035 62.3756 12.1541 61.3672 11.6815 60.006C11.2087 58.6449 11.093 57.4509 11.3376 56.4575C11.6394 55.2324 12.4862 54.346 13.7863 53.8946C16.4339 52.9749 19.3356 54.3809 20.2551 57.0281C21.1747 59.6755 19.7689 62.5774 17.1215 63.497C16.6471 63.6617 16.1843 63.7436 15.7392 63.7436ZM13.1816 59.485C13.5468 60.5364 14.0324 61.3195 14.5859 61.7498C15.1525 62.19 15.8116 62.2711 16.6005 61.9969C18.4207 61.3647 19.3873 59.3694 18.755 57.5492C18.1228 55.729 16.1278 54.7626 14.3075 55.3948C13.5185 55.6689 13.0515 56.1407 12.88 56.8375C12.7121 57.5181 12.8165 58.4336 13.1816 59.485Z" fill="#678490"/>
<path d="M69.6755 36.2833L62.4539 31.1383C61.8388 30.7 60.9849 30.8434 60.5465 31.4586L60.5464 31.4587C60.1466 32.0198 60.2267 32.7909 60.7334 33.2578L66.5846 38.6505L58.3034 50.274L51.2954 46.5051C50.6885 46.1787 49.9337 46.3549 49.5339 46.916C49.0955 47.5311 49.239 48.3851 49.8542 48.8234L55.4586 52.8162L49.0056 61.8735C48.1109 63.1295 48.4036 64.8728 49.6595 65.7676C50.9153 66.6624 52.6588 66.3696 53.5536 65.1138L70.5182 41.3023C71.6717 39.6835 71.2942 37.4366 69.6755 36.2833Z" fill="#DACDF7"/>
<path d="M70.136 35.6366L62.9143 30.4914C61.9439 29.8001 60.5912 30.0271 59.8994 30.9979C59.269 31.8827 59.3961 33.1055 60.195 33.8417L65.5314 38.7599L65.2373 39.1729L58.4802 34.3588C58.1231 34.1042 57.6271 34.1876 57.3727 34.5448C57.1182 34.9019 57.2015 35.3978 57.5587 35.6523L64.3158 40.4664L63.2487 41.9644L56.4916 37.1502C56.1345 36.8957 55.6386 36.979 55.3841 37.3363C55.1296 37.6934 55.2129 38.1893 55.57 38.4438L62.3271 43.2579L61.26 44.7557L54.5027 39.9416C54.1456 39.6871 53.6496 39.7704 53.3952 40.1276C53.1407 40.4847 53.224 40.9806 53.5813 41.2351L60.3385 46.0494L59.2712 47.5474L52.514 42.7332C52.1568 42.4787 51.661 42.5622 51.4065 42.9193C51.152 43.2763 51.2353 43.7722 51.5924 44.0267L58.3496 48.8409L58.0627 49.2435L51.6712 45.8059C50.7146 45.292 49.5172 45.5708 48.8869 46.4556C48.1952 47.4261 48.4223 48.7786 49.3931 49.4705L54.3508 53.0027L48.3587 61.4131C47.8028 62.1933 47.5841 63.1432 47.7428 64.0879C47.9014 65.0327 48.4184 65.859 49.1987 66.4149C49.8284 66.8635 50.5547 67.0791 51.2747 67.0791C52.396 67.0791 53.5015 66.5557 54.2003 65.575L71.1649 41.7637C72.5702 39.7905 72.1088 37.0421 70.136 35.6366ZM69.8713 40.8415L52.9066 64.653C52.2673 65.5502 51.0172 65.7603 50.12 65.1209C49.6853 64.8113 49.3973 64.3508 49.3088 63.8245C49.2203 63.2982 49.3423 62.769 49.652 62.3343L56.105 53.277C56.2271 53.1054 56.2762 52.8924 56.2414 52.6847C56.2066 52.477 56.0906 52.2918 55.9191 52.1695L50.3147 48.1767C50.1899 48.0878 50.1071 47.9555 50.0817 47.8045C50.0564 47.6535 50.0913 47.5016 50.1803 47.3769C50.2912 47.2214 50.4679 47.1364 50.6484 47.1364C50.7404 47.1364 50.8333 47.1585 50.919 47.2044L57.9271 50.9734C58.2796 51.1632 58.7177 51.0609 58.95 50.7349L67.2311 39.1114C67.4632 38.7856 67.4167 38.3379 67.1226 38.0669L61.2714 32.6742C61.0594 32.4787 61.0257 32.1543 61.1931 31.9195C61.3765 31.662 61.7356 31.6015 61.993 31.7851L69.2146 36.9303C70.474 37.8275 70.7686 39.5821 69.8713 40.8415Z" fill="#8B7DAB"/>
<path d="M60.3916 60.9707C59.4823 63.1529 57.9794 64.6029 55.7973 63.6935C53.6151 62.7841 52.5832 60.278 53.4926 58.0958C54.4019 55.9136 56.908 54.8817 59.0902 55.7911C61.2724 56.7006 61.3009 58.7886 60.3916 60.9707Z" fill="#B1B9C6"/>
<path d="M57.0757 64.7661C56.5677 64.7661 56.0376 64.6543 55.4916 64.4269C54.2404 63.9054 53.2672 62.928 52.7512 61.6748C52.235 60.4213 52.238 59.042 52.7595 57.7909C53.8358 55.2083 56.8127 53.9826 59.3956 55.0586C61.7348 56.0334 62.365 58.2999 61.1245 61.2767V61.2769C60.1735 63.5588 58.7446 64.7661 57.0757 64.7661ZM57.4482 56.2563C56.0819 56.2563 54.7828 57.064 54.2253 58.4016C53.8671 59.2613 53.8652 60.209 54.2198 61.0701C54.5743 61.9311 55.2431 62.6028 56.1026 62.9609C58.3179 63.8846 59.3268 61.4619 59.6586 60.6658C60.9997 57.4475 59.3327 56.7529 58.7848 56.5246C58.3479 56.3426 57.8945 56.2563 57.4482 56.2563Z" fill="#678490"/>
</g>
<defs>
<clipPath id="clip0_30_814">
<rect width="73.0435" height="73.0435" fill="white" transform="translate(0.478516 0.783203)"/>
</clipPath>
</defs>
</svg>
