<svg width="74" height="74" viewBox="0 0 74 74" fill="none" xmlns="http://www.w3.org/2000/svg">
<g clip-path="url(#clip0_30_623)">
<path d="M58.0758 24.072L15.7404 24.7895C14.0365 21.3841 10.6962 13.7289 13.4563 10.8734C16.2365 7.99689 25.3357 12.9868 29.3487 15.4142C31.3079 15.0544 33.8416 14.8787 36.7448 14.8429C39.6475 14.7798 42.1825 14.8694 44.1527 15.1621C48.0808 12.5995 57.0048 7.30269 59.8813 10.0829C62.7404 12.8429 59.6627 20.6106 58.0758 24.072Z" fill="#B1B9C6"/>
<path d="M15.0367 25.1433C12.9391 20.9504 9.87083 13.4501 12.8906 10.3256C14.3559 8.80952 17.08 8.84006 21.2187 10.4193C24.3309 11.6069 27.5787 13.4264 29.7553 14.7437L28.9412 16.0889C21.3779 11.5111 15.6611 9.72214 14.0212 11.4183C12.3325 13.1656 13.2378 18.0334 16.443 24.4397L15.0367 25.1433Z" fill="#678490"/>
<path d="M58.7906 24.3978L57.3607 23.7436C60.341 17.2288 61.079 12.3327 59.3347 10.6469C57.6356 9.00413 51.9828 10.9877 44.5826 15.8224L43.7227 14.5061C45.8496 13.1165 49.0306 11.1884 52.1061 9.89349C56.1894 8.17426 58.9116 8.05114 60.4275 9.51615C61.8774 10.9175 62.2079 13.4304 61.4102 16.9853C60.796 19.7215 59.6467 22.5264 58.7906 24.3978Z" fill="#678490"/>
<path d="M53.5122 15.4833C50.6258 9.02294 44.093 4.57057 36.5712 4.69868C29.0495 4.82679 22.6719 9.49886 20.0072 16.0537C8.7608 18.9332 1.16142 24.3823 1.26571 30.505C1.41608 39.3371 17.5369 46.2246 37.2726 45.8885C57.0082 45.5525 72.8853 38.1202 72.7349 29.2881C72.6305 23.1654 64.8501 17.9783 53.5122 15.4833Z" fill="#F5DDD9"/>
<path d="M62.3848 17.4355C59.8758 16.3635 57.073 15.4797 54.059 14.7957C50.8689 8.04555 44.0477 3.7892 36.559 3.91303C29.0702 4.04043 22.3949 8.53018 19.4362 15.3851C16.4477 16.1715 13.6769 17.15 11.2063 18.3066C4.21077 21.5813 0.401239 25.9181 0.479704 30.5183C0.558026 35.1184 4.51293 39.323 11.6157 42.3576C18.1808 45.1625 26.7512 46.6866 35.8823 46.6866C36.3485 46.6866 36.8168 46.6826 37.2859 46.6746C46.9392 46.5102 55.9983 44.6676 62.7942 41.4863C69.7897 38.2117 73.5992 33.8748 73.5208 29.2747C73.4426 24.6748 69.4877 20.4701 62.3848 17.4355ZM36.5859 5.48518C36.686 5.48347 36.7857 5.48261 36.8857 5.48261C43.2244 5.48261 49.0075 8.90852 52.0766 14.3799C47.3177 13.4645 42.1005 13.0273 36.7147 13.1185C31.3293 13.2101 26.1292 13.8247 21.4035 14.9021C24.3301 9.24164 30.1281 5.59517 36.5859 5.48518ZM62.1277 40.0624C55.5278 43.1519 46.696 44.9419 37.2592 45.1026C27.8232 45.2632 18.935 43.7749 12.2337 40.9118C5.73513 38.1353 2.11919 34.4348 2.05199 30.4916C1.9848 26.5485 5.47277 22.7269 11.8732 19.7308C18.4731 16.6413 27.3048 14.8513 36.7417 14.6907C37.2036 14.6828 37.6631 14.679 38.1223 14.679C47.0424 14.679 55.3941 16.1585 61.7673 18.8814C68.2659 21.6579 71.8818 25.3584 71.949 29.3015C72.016 33.2447 68.528 37.0662 62.1277 40.0624Z" fill="#E9B5AC"/>
<path d="M60.0798 42.0732C60.6767 39.3836 60.9506 36.6994 60.905 34.0173C60.8746 32.2328 60.6068 30.2888 60.0025 28.3405C59.8587 28.2817 59.7115 28.2197 59.5677 28.1609C45.4201 22.2369 28.4332 22.5091 14.4779 28.8878C14.3058 28.9655 14.1338 29.0465 13.9617 29.1277C13.424 31.0955 13.2226 33.044 13.253 34.8285C13.2986 37.5106 13.6638 40.1838 14.3519 42.8516C15.5427 47.467 18.9806 51.0887 23.4285 52.5332C21.1622 52.8494 19.0745 55.7261 18.5586 59.467C17.9814 63.6517 19.5895 67.3305 22.1503 67.6837C24.0419 67.9446 25.9232 66.3168 27.0104 63.7622C29.4823 66.6318 33.9761 68.5508 39.1099 68.5508C44.1987 68.5508 48.6581 66.6652 51.1434 63.8376C52.0739 66.859 54.083 68.9049 56.1669 68.6766C58.7365 68.3951 60.4468 64.7628 59.9867 60.5635C59.5266 56.3642 57.0705 53.1884 54.5008 53.4699C53.5975 53.5689 52.801 54.0833 52.167 54.8897C51.6442 54.003 50.9434 53.1808 50.0946 52.4457C55.1042 51.1473 58.9515 47.1563 60.0798 42.0732ZM26.5871 54.0885C26.2824 53.662 25.9337 53.3082 25.5469 53.0445C26.105 53.1439 26.6631 53.2372 27.221 53.3214C26.9934 53.5695 26.783 53.8258 26.5871 54.0885Z" fill="#B1B9C6"/>
<path d="M30.8828 41.3764C30.8828 41.543 30.8954 41.7095 30.9175 41.8698C31.2412 44.2649 33.8814 46.1287 37.0938 46.1287C38.3604 46.1287 39.539 45.8396 40.5198 45.3398C42.1983 44.4881 43.3046 43.0297 43.3046 41.3764C43.3046 38.7549 40.523 38.6638 37.0938 38.6638C33.6613 38.6638 30.8828 38.7549 30.8828 41.3764Z" fill="#678490"/>
<path d="M30.918 41.8698C31.2417 44.2649 33.8819 46.1287 37.0943 46.1287C38.3608 46.1287 39.5395 45.8396 40.5203 45.3398C40.1966 42.9479 37.5562 41.0809 34.3409 41.0809C33.0772 41.0809 31.8985 41.3701 30.918 41.8698Z" fill="#F5DDD9"/>
<path d="M41.7186 38.2868C40.6789 37.9627 39.4039 37.8944 37.8791 37.8814V36.1052L38.2987 36.0945C38.7328 36.0836 39.0758 35.7228 39.0646 35.2888C39.0537 34.8547 38.6946 34.5161 38.2589 34.5227L35.8871 34.5829C35.453 34.5939 35.11 34.9548 35.1212 35.3888C35.132 35.8161 35.4817 36.155 35.9067 36.155C35.9134 36.155 35.9202 36.1549 35.9269 36.1547L36.3065 36.1452V37.8815C34.7818 37.8945 33.5066 37.9629 32.467 38.287C30.8936 38.7775 30.0957 39.8173 30.0957 41.3778C30.0957 44.4302 33.2346 46.9137 37.0928 46.9137C40.9509 46.9137 44.0898 44.4302 44.0898 41.3778C44.0899 39.8172 43.292 38.7773 41.7186 38.2868ZM37.0929 45.3412C34.1017 45.3412 31.6681 43.5631 31.6681 41.3776C31.6681 39.7419 33.0895 39.4507 37.0929 39.4507C41.0963 39.4507 42.5175 39.7419 42.5175 41.3776C42.5175 43.5631 40.0841 45.3412 37.0929 45.3412Z" fill="#678490"/>
<path d="M33.9659 54.7533C33.9553 54.7533 33.9446 54.7531 33.9339 54.7527C30.9874 54.6349 27.9956 54.2988 25.0417 53.7536C22.3016 53.247 19.781 51.9753 17.7519 50.0761C15.7267 48.1804 14.2877 45.7501 13.5906 43.0482C12.8916 40.3376 12.5135 37.5768 12.467 34.8421C12.4327 32.8265 12.6806 30.8343 13.2034 28.9206C13.318 28.5019 14.8346 28.9163 14.7202 29.3351C14.2364 31.105 14.0073 32.9488 14.039 34.8153C14.0835 37.4266 14.4449 40.0643 15.1131 42.6553C16.3744 47.5439 20.3838 51.2934 25.3273 52.2075C28.2077 52.7389 31.1246 53.0666 33.9968 53.1814C34.4307 53.1988 34.7684 53.5646 34.751 53.9985C34.734 54.4216 34.3856 54.7533 33.9659 54.7533Z" fill="#678490"/>
<path d="M44.132 54.3038C43.7425 54.3038 43.4043 54.0144 43.3532 53.6178C43.2978 53.1871 43.602 52.7931 44.0325 52.7378C45.8248 52.5071 47.6403 52.1906 49.4289 51.7972C54.3384 50.7154 58.2177 46.8316 59.3118 41.9031C59.8914 39.2909 60.1627 36.6422 60.1184 34.0309C60.0866 32.1625 59.7947 30.3264 59.251 28.5738C59.1223 28.159 60.6241 27.6933 60.7526 28.1078C61.3406 30.003 61.6561 31.9867 61.6904 34.0042C61.737 36.7389 61.4531 39.5112 60.8467 42.2437C60.2419 44.9679 58.8866 47.4458 56.9271 49.4094C54.964 51.3766 52.488 52.7333 49.767 53.3329C47.9331 53.7364 46.0713 54.0608 44.2333 54.2973C44.1993 54.3015 44.1654 54.3038 44.132 54.3038Z" fill="#678490"/>
<path d="M10.0585 31.9052C9.78288 31.9052 9.51568 31.7602 9.37159 31.5025C9.15973 31.1235 9.29512 30.6445 9.67417 30.4327C11.1061 29.6321 12.4023 28.9711 13.6372 28.4119C29.4534 20.9667 48.8833 21.3837 64.3341 29.5052C64.7184 29.7072 64.8662 30.1824 64.6642 30.5668C64.4623 30.9514 63.9873 31.0995 63.6025 30.8969C56.2471 27.0306 47.7659 24.8895 39.0755 24.705C30.3927 24.5197 21.8236 26.296 14.2965 29.8392C13.092 30.3849 11.8344 31.0264 10.4416 31.8051C10.32 31.873 10.1885 31.9052 10.0585 31.9052Z" fill="#E9B5AC"/>
<path d="M49.7265 37.2314C50.2274 35.8426 49.5076 34.3106 48.1188 33.8097C46.73 33.3088 45.198 34.0285 44.6971 35.4174C44.1961 36.8062 44.9159 38.3382 46.3047 38.8391C47.6936 39.34 49.2255 38.6202 49.7265 37.2314Z" fill="#605C5D"/>
<path d="M29.6888 36.624C29.6636 35.1478 28.4466 33.9716 26.9705 33.9967C25.4943 34.0218 24.3181 35.2388 24.3432 36.715C24.3683 38.1911 25.5853 39.3674 27.0615 39.3423C28.5376 39.3171 29.7139 38.1001 29.6888 36.624Z" fill="#605C5D"/>
<path d="M43.1648 29.4384C42.7368 29.4384 42.3863 29.0952 42.379 28.6656C42.3716 28.2315 42.7176 27.8736 43.1517 27.8661L45.3671 27.8285C45.3717 27.8283 45.3762 27.8283 45.3808 27.8283C45.8088 27.8283 46.1593 28.1716 46.1666 28.6011C46.174 29.0353 45.828 29.3932 45.3939 29.4006L43.1785 29.4383C43.1739 29.4384 43.1694 29.4384 43.1648 29.4384Z" fill="white"/>
<path d="M28.5818 29.6868C28.1538 29.6868 27.8033 29.3437 27.796 28.914C27.7886 28.4799 28.1346 28.1219 28.5687 28.1145L30.7841 28.0767C30.7887 28.0766 30.7932 28.0766 30.7978 28.0766C31.2256 28.0766 31.5762 28.4197 31.5836 28.8494C31.591 29.2835 31.245 29.6414 30.8109 29.6489L28.5955 29.6867C28.5909 29.6868 28.5864 29.6868 28.5818 29.6868Z" fill="white"/>
<path d="M22.5562 68.498C22.3852 68.498 22.2138 68.4863 22.0414 68.4625C20.5213 68.2528 19.248 67.1394 18.4558 65.327C17.7202 63.6442 17.4797 61.5249 17.7783 59.3596V59.3594C18.4246 54.6741 21.3094 51.3331 24.3464 51.7505C27.3831 52.1694 29.2557 56.1679 28.6094 60.8534C27.9998 65.2732 25.3979 68.498 22.5562 68.498ZM19.3359 59.5744C19.0763 61.457 19.2754 63.2764 19.8966 64.6975C20.4611 65.989 21.2992 66.7729 22.2562 66.905C24.3491 67.1942 26.5435 64.3237 27.0518 60.6388C27.5601 56.9537 26.2228 53.5968 24.1315 53.3082C22.0408 53.0206 19.8444 55.8897 19.3359 59.5744Z" fill="#678490"/>
<path d="M26.6622 60.824L24.0888 56.1261L22.0302 52.3675L22.045 52.3567C19.7092 53.1814 17.0559 52.7561 15.2488 51.1865C15.2488 51.1865 7.70709 44.3135 10.7886 42.0622C11.8895 41.2581 13.1418 41.7652 14.2974 42.746C13.5032 41.0409 13.5491 39.3579 14.5311 38.6406C15.5129 37.9233 17.1303 38.3912 18.5131 39.6662C17.93 38.2671 17.8275 36.92 18.9284 36.1156C22.0098 33.8645 26.2646 43.1389 26.2646 43.1389C27.2103 45.3376 26.8088 47.9946 25.313 49.9691L25.3274 49.9585L31.9785 56.9399C33.3615 58.3923 33.1525 60.7297 31.5341 61.9121C29.9154 63.0946 27.6253 62.583 26.6622 60.824Z" fill="white"/>
<path d="M32.5478 56.3979L26.3299 49.8709C27.6445 47.7631 27.9579 45.0881 26.9851 42.8291C26.9827 42.8235 26.9803 42.8179 26.9777 42.8124C26.6529 42.1039 23.7144 35.868 20.6485 35.0692C19.868 34.8658 19.1125 35.0086 18.4643 35.4821C17.8113 35.9591 17.4157 36.6364 17.32 37.4404C17.29 37.6918 17.2909 37.952 17.3164 38.2182C17.2214 38.1626 17.1263 38.1094 17.0311 38.0608C15.8778 37.4718 14.8254 37.4525 14.0673 38.0059C13.2233 38.6225 12.9738 39.7968 13.2773 41.1658C13.0324 41.0611 12.7856 40.9816 12.5379 40.9338C11.743 40.7807 10.9773 40.9515 10.3244 41.4285C9.6761 41.9022 9.31046 42.5784 9.26694 43.3839C9.09589 46.5476 14.1432 51.2426 14.7192 51.7676C14.7238 51.7716 14.7284 51.7759 14.7329 51.7798C16.0837 52.954 17.8513 53.5466 19.6415 53.5466C20.3121 53.5466 20.9856 53.462 21.6418 53.2953L25.9725 61.2016C26.5404 62.239 27.5281 62.9815 28.6822 63.2389C28.9784 63.3049 29.278 63.3375 29.5762 63.3375C30.4391 63.3375 31.289 63.0651 31.9979 62.5474C32.9516 61.8506 33.5592 60.7759 33.6648 59.5991C33.7705 58.4211 33.3633 57.2544 32.5478 56.3979ZM15.7714 50.5991C13.8082 48.8084 10.7382 45.2954 10.837 43.4688C10.8552 43.1324 10.983 42.8946 11.252 42.6984C11.5557 42.4766 11.8698 42.4066 12.2402 42.4778C13.438 42.7088 15.1375 44.4208 16.7863 47.0575C17.0164 47.4255 17.5016 47.5375 17.8697 47.3073C18.2379 47.0772 18.3496 46.592 18.1193 46.2239C17.5271 45.277 16.8014 44.2353 15.9954 43.3248L16.0118 43.3128C14.6218 41.4101 14.481 39.6511 14.9946 39.2759C15.2377 39.0982 15.7438 39.1692 16.3155 39.4612C17.0723 39.8477 17.8799 40.5807 18.5312 41.4722L18.546 41.4614C19.1683 42.5061 19.9401 43.5141 20.6622 44.3661C20.9428 44.6975 21.439 44.7385 21.7702 44.4577C22.1013 44.177 22.1424 43.6809 21.8617 43.3497C19.8513 40.9773 18.7369 38.8379 18.8812 37.6263C18.9257 37.2517 19.0879 36.9738 19.3916 36.7519C19.6602 36.5556 19.9256 36.5058 20.2514 36.5907C22.0189 37.0508 24.4337 41.0441 25.5442 43.4596C26.6131 45.9531 25.6892 49.0958 23.3929 50.7734C21.0966 52.4508 17.8217 52.3754 15.7714 50.5991ZM32.0987 59.4583C32.0335 60.1846 31.6588 60.8477 31.0704 61.2774C30.4821 61.7071 29.7367 61.8626 29.0248 61.704C28.3123 61.5452 27.7026 61.0867 27.3518 60.4461L23.1369 52.7511C23.5485 52.5523 23.9455 52.3172 24.3209 52.043C24.6967 51.7685 25.0421 51.4615 25.3571 51.1294L31.4092 57.4823C31.9126 58.011 32.1639 58.7313 32.0987 59.4583Z" fill="#E3E3E3"/>
<path d="M27.3808 53.2159C28.6206 55.4894 27.7826 58.3377 25.509 59.5774C23.2354 60.8173 21.404 59.4248 20.1642 57.1513C18.9243 54.8778 18.7455 52.5841 21.0191 51.3442C23.2928 50.1043 26.1409 50.9423 27.3808 53.2159Z" fill="#B1B9C6"/>
<path d="M23.8321 60.8333C22.1837 60.8333 20.6592 59.7008 19.4741 57.5276C18.7289 56.1614 18.3981 54.9052 18.4908 53.7947C18.6034 52.4464 19.3475 51.3603 20.6429 50.654C23.2934 49.2091 26.6256 50.1892 28.0711 52.8396C29.5164 55.49 28.536 58.8222 25.8856 60.2676C25.1903 60.6468 24.5009 60.8333 23.8321 60.8333ZM23.2576 51.5586C22.6268 51.5586 21.9874 51.7117 21.3956 52.0345C20.5636 52.4881 20.126 53.1067 20.0577 53.9254C19.9919 54.7132 20.2675 55.6984 20.8545 56.7749C22.0945 59.0486 23.5338 59.7597 25.1326 58.8871C27.0219 57.8569 27.7208 55.4816 26.6905 53.5921C25.9831 52.2948 24.641 51.5586 23.2576 51.5586Z" fill="#678490"/>
<path d="M55.8422 69.4807C54.459 69.4807 53.1123 68.7153 52.0109 67.2913C50.8875 65.8385 50.1376 63.8418 49.8997 61.6689C49.3845 56.9671 51.368 53.0225 54.4152 52.6886C57.4627 52.3568 60.253 55.7764 60.7682 60.4782C61.0063 62.6511 60.7065 64.7628 59.9242 66.4244C59.0816 68.2138 57.7777 69.2913 56.2525 69.4584C56.1155 69.4732 55.9785 69.4807 55.8422 69.4807ZM54.8187 54.239C54.7412 54.239 54.6639 54.2431 54.5864 54.2515C52.488 54.4816 51.0574 57.7998 51.4625 61.4977C51.6695 63.3867 52.306 65.1025 53.2547 66.3294C54.1169 67.4443 55.1207 67.9994 56.0811 67.8954C57.0415 67.7901 57.9011 67.03 58.5015 65.7546C59.1622 64.3513 59.412 62.5382 59.205 60.6492C58.8148 57.0881 56.8385 54.239 54.8187 54.239Z" fill="#678490"/>
<path d="M57.2874 35.6698L46.4156 43.1461C43.931 44.8546 44.2277 48.6122 46.9497 49.9096L58.8602 55.5867C61.5823 56.8841 64.6879 54.7484 64.4505 51.7424L63.4118 38.589C63.1744 35.5829 59.7719 33.9613 57.2874 35.6698Z" fill="#DACDF6"/>
<path d="M60.5541 56.7611C59.8666 56.7611 59.1748 56.6073 58.5223 56.2963L46.6118 50.6193C45.077 49.8878 44.0807 48.439 43.9468 46.744C43.813 45.0489 44.5694 43.4616 45.9705 42.4982L56.8423 35.022C58.2434 34.0587 59.9961 33.9203 61.5311 34.6518C63.0658 35.3833 64.062 36.8321 64.196 38.5271L65.2347 51.6805C65.3685 53.3756 64.6121 54.9627 63.2112 55.926C62.4056 56.4799 61.4837 56.7611 60.5541 56.7611ZM57.7332 36.3176L46.8613 43.7939C45.9287 44.4352 45.4251 45.4917 45.5143 46.6202C45.6034 47.7485 46.2665 48.7128 47.2883 49.1998L59.1988 54.877C60.2205 55.364 61.3874 55.2717 62.32 54.6304C63.2526 53.9892 63.7562 52.9326 63.667 51.8041L62.6283 38.6508C62.5391 37.5226 61.876 36.5582 60.8544 36.0711C59.8326 35.5842 58.6658 35.6764 57.7332 36.3176Z" fill="#8B7DAB"/>
<path d="M54.672 49.0502C53.369 48.4292 51.8077 48.8706 51.0228 50.0818L45.9139 57.9649C44.534 60.0952 45.3941 62.9708 47.7548 63.9757C50.0123 64.9367 52.5444 63.6583 53.3044 61.3255L55.3094 55.1716L56.1682 52.5356C56.6156 51.1629 55.9752 49.6713 54.672 49.0502Z" fill="white"/>
<path d="M49.3223 65.0858C48.6871 65.0858 48.0526 64.9571 47.4467 64.6992C46.1125 64.1314 45.1047 63.0123 44.6817 61.6292C44.2582 60.2442 44.4667 58.7528 45.2538 57.5375L50.3627 49.6544C51.3588 48.1173 53.3568 47.5528 55.0099 48.3407C56.664 49.1291 57.4832 51.0372 56.9156 52.7795L54.0518 61.5694C53.6056 62.9389 52.6095 64.0609 51.319 64.6475C50.6763 64.9394 49.9991 65.0858 49.3223 65.0858ZM53.4394 49.5578C52.7495 49.5578 52.0775 49.8993 51.682 50.5093L46.5733 58.3923C46.0392 59.2169 45.8976 60.2291 46.1851 61.1691C46.472 62.1073 47.1562 62.8665 48.0624 63.2523C48.9034 63.6102 49.8289 63.5974 50.668 63.2159C51.5582 62.811 52.2466 62.0334 52.5566 61.082L55.4204 52.2921C55.7442 51.2981 55.2769 50.2096 54.3333 49.7598C54.0465 49.6231 53.7411 49.5578 53.4394 49.5578Z" fill="#E3E3E3"/>
<path d="M50.8609 54.1255C52.9536 52.6002 55.8866 53.06 57.412 55.1527C58.9375 57.2454 57.7953 59.2426 55.7027 60.7679C53.61 62.2933 51.3591 62.7694 49.8337 60.6766C48.3083 58.5839 48.7682 55.6509 50.8609 54.1255Z" fill="#B1B9C6"/>
<path d="M52.3844 62.8744C51.1328 62.8744 50.0403 62.2952 49.1981 61.1399C47.4198 58.7 47.9578 55.2684 50.3973 53.4903C52.837 51.7117 56.2685 52.2498 58.0469 54.6895C59.6629 56.9066 58.9772 59.3537 56.1655 61.4034C54.819 62.3847 53.5345 62.8744 52.3844 62.8744ZM53.6174 54.0133C52.8201 54.0133 52.0159 54.2561 51.3237 54.7608C49.5847 56.0284 49.2011 58.4745 50.4688 60.2137C51.5416 61.6854 53.1466 61.6579 55.2393 60.1328C57.3321 58.6073 57.8492 57.0875 56.7764 55.6157C56.0134 54.569 54.8232 54.0133 53.6174 54.0133Z" fill="#678490"/>
</g>
<defs>
<clipPath id="clip0_30_623">
<rect width="73.0435" height="73.0435" fill="white" transform="translate(0.478516 0.173828)"/>
</clipPath>
</defs>
</svg>
