<svg width="74" height="74" viewBox="0 0 74 74" fill="none" xmlns="http://www.w3.org/2000/svg">
<g clip-path="url(#clip0_30_442)">
<path d="M44.1366 66.9289C53.5195 66.9289 61.1258 61.6722 61.1258 55.1878C61.1258 48.7033 53.5195 43.4466 44.1366 43.4466C34.7538 43.4466 27.1475 48.7033 27.1475 55.1878C27.1475 61.6722 34.7538 66.9289 44.1366 66.9289Z" fill="#B1B9C6"/>
<path d="M55.5307 2.08556C52.0344 -0.369102 43.5028 6.70242 39.7873 10.0571C37.6608 10.0753 34.9709 10.4007 31.921 10.9486C28.8659 11.4694 26.225 12.0771 24.2186 12.7824C19.5828 10.8876 9.15769 7.13797 6.7046 10.6322C4.26834 14.1025 9.0594 21.62 11.4235 24.9295C9.981 28.747 9.89626 32.666 10.4673 35.9281C10.9611 38.7488 11.7903 41.5074 12.9591 44.2064C15.2408 49.4741 20.3274 52.9354 26.0654 53.0879C30.4964 53.204 34.8516 52.8874 39.1311 52.1385C43.4105 51.3893 47.6144 50.2077 51.7423 48.5934C57.0873 46.5008 60.6957 41.5175 61.0524 35.788C61.235 32.8524 61.0779 29.9763 60.5842 27.1556C60.0134 23.8943 58.603 20.2379 55.9509 17.1379C57.0464 13.2264 59.0022 4.52267 55.5307 2.08556Z" fill="#B1B9C6"/>
<path d="M35.3034 12.4316C36.1208 17.1007 35.4243 21.1211 33.7547 21.4134C32.0815 21.7063 30.0609 18.1615 29.2435 13.4923C29.1315 12.8523 29.0477 12.2259 28.9932 11.6201C30.9475 11.186 32.9174 10.8412 34.9036 10.5891C35.0582 11.1776 35.192 11.7952 35.3034 12.4316Z" fill="#91A2B5"/>
<path d="M28.5282 12.0369C29.3448 16.7025 28.6526 20.7258 26.9795 21.0187C25.3707 21.3003 23.4315 18.0103 22.5625 13.5933C23.5553 13.1395 24.5976 12.7582 25.6794 12.4546C26.607 12.1964 27.5376 11.9561 28.4727 11.7408C28.4937 11.8401 28.5107 11.9367 28.5282 12.0369Z" fill="#91A2B5"/>
<path d="M41.6149 10.2178C42.3082 14.6838 41.6056 18.4584 39.9895 18.7413C38.3164 19.0342 36.2986 15.4853 35.482 10.8197C35.4644 10.7195 35.4476 10.6229 35.4336 10.5222C36.5268 10.3898 37.6293 10.289 38.7327 10.2138C39.7049 10.1467 40.6673 10.1514 41.6149 10.2178Z" fill="#91A2B5"/>
<path d="M53.3018 9.87828C53.3018 9.87828 53.976 10.8878 54.2692 12.1003C54.5426 13.2205 54.0112 14.2051 53.1806 14.7227C50.93 12.9169 48.308 11.5778 45.4787 10.8239C45.3961 10.2046 45.5477 9.55529 45.9687 9.0136C47.6582 6.835 50.0913 4.37877 52.1978 4.83543C55.8677 5.63392 53.3018 9.87828 53.3018 9.87828Z" fill="white"/>
<path d="M11.445 17.205C11.445 17.205 11.1538 18.3835 11.2898 19.6235C11.4131 20.77 12.2474 21.5155 13.2043 21.7203C14.7077 19.2573 16.719 17.1073 19.124 15.4371C18.9913 14.8265 18.6281 14.2674 18.0482 13.9009C15.7192 12.4258 12.5963 10.9419 10.7702 12.0871C7.58983 14.0845 11.445 17.205 11.445 17.205Z" fill="white"/>
<path d="M61.3583 27.0199C60.9316 24.5828 59.8001 20.5751 56.818 16.9435C58.1399 12.0807 59.641 4.01124 55.9806 1.44145C54.1578 0.16148 51.3269 0.744401 47.3266 3.22346C44.4086 5.03157 41.4873 7.47553 39.4795 9.27751C37.4457 9.32116 34.8722 9.62004 31.7888 10.1739C28.6946 10.7013 26.1703 11.2948 24.2415 11.9452C21.7372 10.9318 18.156 9.62518 14.8029 8.91657C10.1987 7.94389 7.33904 8.35704 6.05935 10.1798C3.48586 13.8454 7.64192 20.9209 10.5404 25.0433C8.96897 29.4723 9.26613 33.6265 9.6927 36.0636C10.1954 38.9356 11.0516 41.7803 12.2374 44.5187C13.4173 47.243 15.332 49.5587 17.7744 51.2157C20.2212 52.8758 23.0808 53.7948 26.0446 53.8737C26.6378 53.8892 27.2301 53.8969 27.8225 53.8969C31.6868 53.8969 35.5287 53.5668 39.2662 52.9127C43.5766 52.1582 47.8703 50.9512 52.0285 49.3252C54.7889 48.2445 57.1663 46.4087 58.9037 44.0162C60.638 41.6281 61.6521 38.7998 61.8365 35.8367C62.0219 32.859 61.861 29.8927 61.3583 27.0199ZM60.2675 35.7389C60.1017 38.4035 59.1902 40.9463 57.6316 43.0924C56.0712 45.2413 53.9355 46.8902 51.4557 47.8612C47.395 49.449 43.2027 50.6274 38.9953 51.364C34.7877 52.1005 30.4457 52.417 26.0861 52.3021C23.4237 52.2312 20.8548 51.4058 18.6572 49.9148C16.4623 48.4257 14.7414 46.3436 13.6803 43.8938C12.5434 41.2687 11.7229 38.5428 11.2416 35.7926C10.7079 32.7436 10.3863 26.8025 14.2294 21.269C14.477 20.9124 14.3886 20.4226 14.0322 20.175C13.6753 19.9273 13.1857 20.0156 12.9381 20.3723C12.2629 21.3444 11.708 22.3273 11.2516 23.3063C7.39625 17.6106 5.93723 13.0902 7.34632 11.0832C8.70675 9.1464 14.2957 9.81649 22.1175 12.7996C20.8936 13.3959 19.7373 14.0611 18.6799 14.7783C18.3205 15.022 18.2268 15.5107 18.4705 15.8701C18.6224 16.0942 18.8699 16.2152 19.1217 16.2152C19.2735 16.2152 19.4272 16.1713 19.5623 16.0795C20.5796 15.3895 21.6962 14.7491 22.8805 14.1763C24.7683 13.2645 27.8546 12.4395 32.0601 11.7226C36.2528 10.9695 39.4359 10.6967 41.5198 10.9133C42.8293 11.05 44.097 11.2729 45.2877 11.5764C45.7086 11.6839 46.1364 11.4294 46.2435 11.0086C46.3507 10.5879 46.0966 10.16 45.6757 10.0527C44.4374 9.73731 43.1231 9.50434 41.7678 9.35911C48.1086 3.89497 53.1373 1.36655 55.0778 2.72827C57.0814 4.13493 57.2456 8.8819 55.559 15.5505C54.7973 14.785 53.9415 14.049 52.9762 13.3641C52.6223 13.113 52.1315 13.1962 51.8803 13.5503C51.6291 13.9042 51.7124 14.395 52.0665 14.6462C57.5604 18.545 59.2761 24.2423 59.8099 27.2911C60.291 30.0421 60.4452 32.8845 60.2675 35.7389Z" fill="#678490"/>
<path d="M46.2868 34.1438C44.5526 34.1438 43.0124 32.8968 42.7033 31.1312C42.6285 30.7035 42.9144 30.2962 43.3421 30.2213C43.7687 30.147 44.1771 30.4323 44.252 30.8601C44.4488 31.9832 45.5227 32.7379 46.6452 32.5403C47.7683 32.3437 48.5219 31.2701 48.3253 30.1471C48.2506 29.7194 48.5365 29.3122 48.9642 29.2372C49.3906 29.1633 49.7992 29.448 49.8741 29.876C50.0417 30.8337 49.8263 31.7994 49.2678 32.5951C48.7091 33.3908 47.874 33.9214 46.9163 34.0889C46.7048 34.1258 46.4944 34.1438 46.2868 34.1438Z" fill="#605C5D"/>
<path d="M25.0479 37.8614C23.3137 37.8614 21.7732 36.6144 21.464 34.8488C21.3893 34.4211 21.6752 34.0138 22.1029 33.9389C22.5291 33.8645 22.938 34.1499 23.0128 34.5778C23.2092 35.7007 24.2836 36.4555 25.4059 36.2581C26.529 36.0615 27.2827 34.9879 27.0861 33.8649C27.0113 33.4372 27.2972 33.0299 27.7249 32.955C28.1511 32.8808 28.5599 33.1658 28.6348 33.5938C28.9808 35.5708 27.654 37.4607 25.677 37.8068C25.4656 37.8436 25.2552 37.8614 25.0479 37.8614Z" fill="#605C5D"/>
<path d="M49.919 36.3023C49.5444 36.3023 49.2126 36.0335 49.1457 35.6516C49.0709 35.2239 49.3568 34.8168 49.7845 34.7417L54.226 33.9644C54.6525 33.8905 55.061 34.1754 55.1359 34.6032C55.2107 35.0309 54.9248 35.4381 54.4971 35.5131L50.0554 36.2905C50.0098 36.2985 49.9641 36.3023 49.919 36.3023Z" fill="#91A2B5"/>
<path d="M54.2856 39.8387C54.2385 39.8387 54.1909 39.8345 54.143 39.8257L50.2734 39.1158C49.8462 39.0373 49.5636 38.6277 49.6419 38.2007C49.7204 37.7737 50.1303 37.4903 50.557 37.5693L54.4266 38.2792C54.8537 38.3577 55.1363 38.7673 55.058 39.1942C54.9885 39.5733 54.6578 39.8387 54.2856 39.8387Z" fill="#91A2B5"/>
<path d="M18.8946 41.733C18.52 41.733 18.1882 41.4642 18.1213 41.0823C18.0465 40.6546 18.3324 40.2473 18.7601 40.1724L23.2016 39.3949C23.6276 39.3207 24.0366 39.6057 24.1115 40.0337C24.1863 40.4614 23.9004 40.8687 23.4727 40.9436L19.031 41.7213C18.9854 41.7291 18.9397 41.733 18.8946 41.733Z" fill="#91A2B5"/>
<path d="M20.4344 45.7639C20.1639 45.7639 19.9009 45.6243 19.7546 45.3736C19.5359 44.9985 19.6626 44.5173 20.0377 44.2986L23.436 42.3166C23.8108 42.0979 24.2922 42.2245 24.511 42.5997C24.7297 42.9747 24.603 43.4559 24.228 43.6746L20.8296 45.6566C20.7052 45.7294 20.5689 45.7639 20.4344 45.7639Z" fill="#91A2B5"/>
<path d="M41.3194 27.1385C40.9448 27.1385 40.613 26.8697 40.5461 26.4878C40.4713 26.0601 40.7572 25.6528 41.1849 25.5779L43.515 25.17C43.9414 25.0961 44.35 25.381 44.4249 25.8089C44.4997 26.2366 44.2138 26.6439 43.7861 26.7188L41.456 27.1267C41.4102 27.1347 41.3645 27.1385 41.3194 27.1385Z" fill="white"/>
<path d="M25.9815 29.8233C25.6069 29.8233 25.2751 29.5545 25.2082 29.1726C25.1334 28.7449 25.4193 28.3376 25.847 28.2627L28.1771 27.8548C28.6031 27.7806 29.0121 28.0657 29.087 28.4937C29.1618 28.9214 28.8759 29.3287 28.4482 29.4036L26.1181 29.8114C26.0723 29.8194 26.0266 29.8233 25.9815 29.8233Z" fill="white"/>
<path d="M31.9931 40.315C32.0281 40.493 32.0659 40.6671 32.1144 40.8391C32.9181 43.8305 35.4779 45.8032 38.0409 45.3103C39.4094 45.045 40.5167 44.1289 41.1937 42.8608C41.8574 41.6208 42.1125 40.047 41.7985 38.4217C41.1692 35.1419 38.8854 35.1253 36.1798 35.6467C33.4708 36.1689 31.3595 37.0323 31.9931 40.315Z" fill="#678490"/>
<path d="M32.1143 40.8392C32.918 43.8305 35.4778 45.8033 38.0408 45.3104C39.4093 45.045 40.5165 44.129 41.1936 42.8608C40.6228 40.0424 38.4491 38.002 35.9871 38.1457C34.3422 38.242 32.9384 39.2947 32.1143 40.8392Z" fill="#F5DDD9"/>
<path d="M42.5712 38.2745C41.815 34.3514 38.7966 34.4174 36.8163 34.7336L36.5324 33.1119L37.0692 33.0179C37.4969 32.943 37.7828 32.5357 37.7081 32.108C37.6332 31.6802 37.2243 31.3956 36.7982 31.4692L34.3034 31.9059C33.8757 31.9808 33.5898 32.3881 33.6646 32.8158C33.7315 33.1977 34.0633 33.4665 34.4379 33.4665C34.483 33.4665 34.5287 33.4626 34.5745 33.4546L34.9836 33.383L35.2719 35.0302C33.3155 35.469 30.4599 36.5216 31.2192 40.4622C31.5594 42.2282 32.4535 43.7847 33.7365 44.8445C34.7925 45.7169 36.0095 46.1733 37.241 46.1733C37.5568 46.1733 37.8738 46.1434 38.1891 46.0824C39.7336 45.7848 41.0382 44.7892 41.8627 43.2785C42.6599 41.8178 42.9116 40.0407 42.5712 38.2745ZM40.4827 42.5254C39.8871 43.6165 38.9671 44.3315 37.8917 44.5388C36.8167 44.7461 35.6962 44.4243 34.738 43.6325C33.7359 42.8046 33.0346 41.5731 32.7631 40.1648C32.3329 37.9324 33.1989 37.0223 36.3271 36.4194C37.1134 36.2679 37.7741 36.1875 38.3296 36.1875C39.9843 36.1875 40.7056 36.9008 41.0277 38.5721C41.2987 39.9804 41.1053 41.3844 40.4827 42.5254Z" fill="#678490"/>
<path d="M34.4391 51.1127C26.1301 51.1127 19.3945 53.9907 19.3945 57.5408C19.3945 66.1012 26.1301 73.0406 34.4391 73.0406C42.7478 73.0406 49.4835 66.1012 49.4835 57.5408C49.4835 53.9907 42.7479 51.1127 34.4391 51.1127Z" fill="#F5DDD9"/>
<path d="M34.439 73.8267C25.71 73.8267 18.6084 66.521 18.6084 57.5409C18.6084 55.4892 20.3428 53.6182 23.492 52.2728C26.429 51.0178 30.3166 50.3268 34.439 50.3268C38.5613 50.3268 42.4488 51.0179 45.3857 52.2728C48.535 53.6182 50.2693 55.4892 50.2693 57.5409C50.2693 66.521 43.1678 73.8267 34.439 73.8267ZM34.439 51.8988C30.5242 51.8988 26.8559 52.5451 24.1098 53.7184C21.6126 54.7853 20.1805 56.1786 20.1805 57.5409C20.1805 65.654 26.5768 72.2546 34.439 72.2546C42.3009 72.2546 48.6972 65.654 48.6972 57.5409C48.6972 56.1786 47.2651 54.7853 44.7681 53.7184C42.0218 52.5451 38.3537 51.8988 34.439 51.8988Z" fill="#E9B5AC"/>
<path d="M45.7299 57.5087C45.7299 57.6866 45.7118 57.8644 45.6755 58.0386C45.4904 58.1838 45.2654 58.3399 44.9967 58.496C44.2636 58.9242 43.2075 59.3779 41.8427 59.7664C40.4855 60.151 38.8266 60.4669 36.8667 60.6119C36.1008 60.67 35.2915 60.7027 34.4385 60.7027C29.1975 60.7027 25.6332 59.5159 23.8803 58.496C23.6117 58.3399 23.3866 58.1874 23.2051 58.0423C23.0707 57.3853 23.1906 56.6774 23.5936 56.0787C24.0908 55.3346 24.9038 54.9354 25.7349 54.9354C25.8365 54.9354 25.9345 54.9427 26.0362 54.9535C26.018 54.8338 26.0107 54.7104 26.0107 54.5906C26.0107 53.7667 26.4028 52.9572 27.1323 52.4528C27.5787 52.1479 28.0905 51.9991 28.5949 51.9991C29.0486 51.9991 29.4985 52.1189 29.8906 52.3475C30.0214 51.8828 30.2753 51.4655 30.6274 51.1388C30.9758 50.8157 31.4151 50.5834 31.9195 50.4927C32.0792 50.4636 32.2351 50.4491 32.3913 50.4491C33.2044 50.4491 33.9521 50.8338 34.4347 51.4581C34.9139 50.8338 35.6652 50.4455 36.4782 50.4455C36.6341 50.4455 36.7903 50.46 36.9464 50.4892C37.4509 50.5799 37.8937 50.8121 38.2421 51.1353C38.594 51.4618 38.8482 51.8757 38.9788 52.3402C39.3745 52.1079 39.8245 51.9881 40.2782 51.9881C40.7828 51.9881 41.2908 52.1369 41.7372 52.4418C42.4668 52.9391 42.8586 53.7484 42.8586 54.5723C42.8586 54.6957 42.8514 54.8191 42.8333 54.9425C42.935 54.9317 43.0401 54.9244 43.1418 54.9244C43.973 54.9244 44.7859 55.3236 45.2832 56.0604C45.5847 56.5034 45.7299 57.008 45.7299 57.5087Z" fill="white"/>
<path d="M30.7622 57.661C30.6843 57.661 30.6053 57.6493 30.5271 57.6249C30.1127 57.4952 29.882 57.0541 30.0117 56.6399C30.2616 55.8415 30.8076 55.1881 31.549 54.8002C32.2904 54.4124 33.1383 54.3367 33.9369 54.5863C34.4365 54.7428 34.8819 55.0184 35.2403 55.3867C35.9385 55.0705 36.7345 55.016 37.4842 55.2507C37.8987 55.3804 38.1294 55.8214 37.9997 56.2356C37.87 56.6502 37.4286 56.8805 37.0147 56.7511C36.506 56.5919 35.9542 56.6982 35.5387 57.0356C35.3588 57.1815 35.1237 57.2403 34.8963 57.1975C34.6686 57.1541 34.4719 57.0127 34.3582 56.8107C34.162 56.4623 33.8456 56.2053 33.4671 56.0867C33.0695 55.962 32.6472 55.9998 32.2777 56.1931C31.9085 56.3863 31.6366 56.7117 31.5122 57.1093C31.4069 57.4456 31.0968 57.6608 30.7622 57.661Z" fill="#E3E3E3"/>
<path d="M23.204 58.8285C22.8401 58.8285 22.5133 58.5742 22.4355 58.2038C22.2468 57.3052 22.4258 56.3937 22.9393 55.6373C23.4703 54.8427 24.3113 54.3197 25.2484 54.1843C25.363 53.2266 25.8828 52.3571 26.6872 51.8048C27.252 51.4176 27.9128 51.2132 28.5984 51.2132C28.8959 51.2132 29.1908 51.2524 29.4752 51.3286C29.6413 51.0446 29.8479 50.7863 30.0893 50.5626C30.5586 50.1275 31.1415 49.8352 31.7751 49.7166C32.7435 49.5365 33.7006 49.7877 34.4369 50.3561C35.1792 49.789 36.1511 49.5417 37.0902 49.7165C37.7182 49.8248 38.3059 50.1178 38.7797 50.5618C39.0205 50.7851 39.2261 51.0413 39.3909 51.3213C39.6792 51.2427 39.9777 51.2022 40.2782 51.2022C40.9546 51.2022 41.6111 51.4063 42.1769 51.7927C42.9847 52.3405 43.5071 53.2096 43.6214 54.1696C44.5593 54.3047 45.4014 54.8264 45.936 55.6223C46.312 56.1751 46.5123 56.8275 46.5123 57.5052C46.5123 57.7373 46.4888 57.9708 46.442 58.1994C46.3553 58.6248 45.9401 58.9 45.5147 58.8124C45.0893 58.7257 44.8148 58.3104 44.9017 57.8851C44.9276 57.758 44.9402 57.6337 44.9402 57.5052C44.9402 57.1443 44.8342 56.7977 44.6336 56.5027C44.2979 56.0029 43.7387 55.7069 43.1348 55.7069C43.0743 55.7069 43.0031 55.7113 42.9174 55.7206C42.6747 55.7459 42.4356 55.6591 42.267 55.4838C42.0985 55.3086 42.0204 55.0652 42.056 54.8247C42.0674 54.7467 42.0729 54.6631 42.0729 54.5689C42.0729 53.9759 41.7812 53.4239 41.2926 53.0925C40.987 52.8839 40.6372 52.7743 40.2784 52.7743C39.9605 52.7743 39.6465 52.8592 39.3706 53.0197C39.1595 53.1426 38.9034 53.1604 38.6774 53.0678C38.4516 52.9754 38.2814 52.7832 38.2169 52.5477C38.1297 52.2289 37.9537 51.9399 37.7077 51.7118C37.4555 51.4755 37.1471 51.3217 36.8127 51.264C36.6946 51.242 36.5854 51.2319 36.4783 51.2319C35.928 51.2319 35.3973 51.4955 35.0582 51.9371C34.9096 52.1308 34.6793 52.2443 34.4351 52.2445H34.4348C34.1907 52.2445 33.9604 52.1311 33.8116 51.9376C33.4026 51.4056 32.7515 51.1343 32.0634 51.2623C31.7227 51.3259 31.4095 51.4828 31.1581 51.7158C30.9166 51.9396 30.7398 52.2311 30.6469 52.5585C30.5809 52.7918 30.4108 52.9815 30.1861 53.0725C29.9614 53.1635 29.7073 53.146 29.4973 53.0247C29.2264 52.8681 28.9156 52.7853 28.5984 52.7853C28.2315 52.7853 27.8781 52.8946 27.5765 53.1012C27.0883 53.4364 26.7966 53.9921 26.7966 54.5872C26.7966 54.6799 26.8022 54.7636 26.8131 54.8358C26.8497 55.0769 26.7723 55.3212 26.6037 55.4972C26.4352 55.6731 26.1957 55.7606 25.9522 55.7352C25.864 55.7256 25.7968 55.7215 25.7347 55.7215C25.133 55.7215 24.5756 56.0182 24.2434 56.5154C23.9686 56.9203 23.874 57.4035 23.9743 57.8807C24.0635 58.3055 23.7913 58.7224 23.3664 58.8116C23.312 58.8231 23.2577 58.8285 23.204 58.8285Z" fill="#E3E3E3"/>
<path d="M34.4377 61.4883C32.801 61.4883 27.1736 61.3216 23.4841 59.1751C22.7829 58.7643 22.3001 58.3589 22.0473 57.9684C21.8114 57.6042 21.9152 57.1174 22.2797 56.8812C22.6439 56.6452 23.1306 56.7491 23.3668 57.1136C23.433 57.2157 23.6991 57.4788 24.2767 57.8172C25.1214 58.3088 28.3572 59.9162 34.4377 59.9162C35.2352 59.9162 36.0321 59.8865 36.8064 59.8277C38.5449 59.6991 40.1665 59.4239 41.6277 59.0096C43.1269 58.583 44.0714 58.1256 44.5993 57.8169C45.1763 57.4791 45.4425 57.2157 45.5088 57.1134C45.7449 56.7492 46.2318 56.6454 46.5961 56.8816C46.9603 57.1177 47.0641 57.6045 46.8279 57.9687C46.5748 58.359 46.092 58.7646 45.3931 59.1739C44.5227 59.6825 43.3695 60.1486 42.057 60.5219C40.4932 60.9652 38.7664 61.2591 36.9238 61.3955C36.1116 61.4571 35.2747 61.4883 34.4377 61.4883Z" fill="#E9B5AC"/>
<path d="M67.0035 53.1102C67.0035 57.9738 64.5172 61.9155 61.4467 61.9155C58.3761 61.9155 54.282 60.3585 52.1406 54.2426L61.4467 44.3049C64.5172 44.3049 67.0035 48.2466 67.0035 53.1102Z" fill="#B1B9C6"/>
<path d="M61.4469 62.7018C60.076 62.7018 58.0184 62.4099 56.0006 61.0199C53.9736 59.6236 52.4256 57.4311 51.399 54.5037C51.2553 54.0939 51.471 53.6453 51.8806 53.5016C52.2906 53.3578 52.739 53.5738 52.8827 53.9832C55.0629 60.2011 59.1841 61.1295 61.4467 61.1295C64.0335 61.1295 66.219 57.4577 66.219 53.1114C66.219 50.4849 65.4329 48.0119 64.1163 46.4964C63.8315 46.1687 63.8665 45.6721 64.1942 45.3874C64.5216 45.1027 65.0183 45.1374 65.3032 45.4653C66.8843 47.2854 67.7911 50.0723 67.7911 53.1114C67.7911 55.6097 67.1698 57.9697 66.0418 59.7565C64.8431 61.6558 63.2112 62.7018 61.4469 62.7018Z" fill="#678490"/>
<path d="M67.9616 45.3569C67.9158 45.3569 67.8695 45.3529 67.823 45.3446L43.6758 41.0463C43.2484 40.9703 42.9635 40.562 43.0397 40.1345C43.1159 39.7068 43.5243 39.4225 43.9514 39.4984L68.0986 43.7967C68.526 43.8727 68.8109 44.281 68.7347 44.7085C68.6668 45.0894 68.3354 45.3569 67.9616 45.3569Z" fill="#8B7DAB"/>
<path d="M46.5452 40.5207C46.1452 40.3468 45.7239 40.2929 45.3196 40.3394C45.3902 39.5043 44.9311 38.6802 44.1198 38.3277C43.1023 37.8855 41.9188 38.3518 41.4767 39.3693C41.2811 39.8194 41.2638 40.3016 41.3926 40.738C40.7966 40.9349 40.283 41.373 40.0131 41.994C39.5103 43.1509 40.0405 44.4962 41.1973 44.9989C42.1475 45.4119 43.224 45.127 43.8571 44.3715C44.0714 44.5962 44.3329 44.7826 44.6357 44.9142C45.8489 45.4415 47.2599 44.8855 47.7872 43.6722C48.3145 42.4591 47.7584 41.0482 46.5452 40.5207Z" fill="white"/>
<path d="M42.0977 45.9713C41.6875 45.9715 41.2745 45.8897 40.8843 45.7201C39.3319 45.0454 38.6177 43.2333 39.2925 41.6809C39.5484 41.0918 39.9831 40.6023 40.5269 40.2759C40.5111 39.8598 40.5882 39.4421 40.7561 39.056C41.0535 38.3714 41.5999 37.8435 42.2947 37.5697C42.9895 37.2963 43.749 37.3094 44.4335 37.6068C45.2711 37.9709 45.8601 38.7101 46.0486 39.5702C46.3271 39.6103 46.5997 39.6872 46.8586 39.7996L46.8589 39.7997C48.4679 40.4991 49.2077 42.3766 48.5084 43.9856C47.8092 45.5945 45.9313 46.3343 44.3225 45.6352C44.1703 45.569 44.0246 45.4918 43.8864 45.4045C43.3625 45.7749 42.7338 45.9713 42.0977 45.9713ZM43.3194 38.9467C43.1679 38.9467 43.0161 38.9754 42.8709 39.0326C42.567 39.1525 42.3281 39.3833 42.1978 39.6827C42.0821 39.9489 42.0644 40.2368 42.1467 40.5155C42.267 40.9225 42.0425 41.3515 41.6396 41.4847C41.2333 41.619 40.9033 41.919 40.7342 42.3076C40.5749 42.6745 40.5678 43.0815 40.7144 43.4537C40.8612 43.8258 41.144 44.1187 41.5109 44.2782C42.1149 44.5407 42.832 44.3716 43.2548 43.8668C43.3986 43.6953 43.6085 43.5931 43.8322 43.586C44.0543 43.5769 44.272 43.6672 44.4262 43.8292C44.5742 43.9845 44.7502 44.107 44.9492 44.1935C45.7628 44.5473 46.7128 44.1728 47.0665 43.3589C47.2378 42.9647 47.2454 42.5273 47.0877 42.1274C46.9301 41.7275 46.6264 41.4129 46.2322 41.2415C45.9715 41.1283 45.6952 41.088 45.4096 41.1203C45.1745 41.148 44.9417 41.0676 44.7725 40.9036C44.6033 40.7394 44.5168 40.508 44.5366 40.2732C44.5809 39.7498 44.2877 39.2576 43.8068 39.0487C43.6504 38.9808 43.4851 38.9467 43.3194 38.9467Z" fill="#E3E3E3"/>
<path d="M67.9617 48.2814C67.9422 48.2814 67.9225 48.2807 67.9027 48.2793L41.8383 46.3456C41.4053 46.3134 41.0804 45.9363 41.1125 45.5034C41.1448 45.0704 41.521 44.7455 41.9548 44.7776L68.0192 46.7113C68.4522 46.7435 68.777 47.1206 68.7449 47.5534C68.7143 47.9667 68.3695 48.2814 67.9617 48.2814Z" fill="#8B7DAB"/>
<path d="M65.0051 45.058C64.4039 47.8079 61.6874 49.5495 58.9377 48.9483C56.188 48.3471 54.4462 45.6306 55.0474 42.8809C55.6486 40.131 58.0857 39.6678 60.8354 40.269C63.5852 40.8702 65.6065 42.3082 65.0051 45.058Z" fill="#B1B9C6"/>
<path d="M61.0032 39.5009C57.3515 38.7029 54.9004 39.8729 54.2794 42.7128C53.9438 44.2478 54.226 45.8217 55.0741 47.1445C55.504 47.815 56.0537 48.3798 56.6906 48.8179C57.8334 51.5085 58.3741 53.8392 58.1368 55.0807C58.0554 55.5071 58.335 55.9188 58.7614 56.0004C58.8112 56.0098 58.8608 56.0145 58.9098 56.0145C59.2796 56.0145 59.6091 55.7525 59.681 55.3758C59.988 53.7697 59.3857 51.5144 58.7307 49.7068C58.7437 49.7098 58.7565 49.7135 58.7695 49.7163C59.1912 49.8086 59.6121 49.8528 60.0271 49.8528C62.7309 49.8528 65.1722 47.9732 65.7729 45.2259C66.3939 42.3862 64.6554 40.2995 61.0032 39.5009ZM64.2372 44.8901C63.7294 47.2118 61.4272 48.6884 59.1056 48.1803C56.7838 47.6727 55.3078 45.3707 55.8154 43.0487C56.1398 41.5652 57.1657 40.8194 58.8732 40.8194C59.4052 40.8194 60.0038 40.8918 60.6675 41.0369C63.4616 41.6478 64.6627 42.9442 64.2372 44.8901Z" fill="#678490"/>
<path d="M19.442 63.3978C21.4892 61.466 24.7147 61.5596 26.6465 63.6068C28.5783 65.6541 28.4847 68.8795 26.4375 70.8113C24.3903 72.7431 22.1165 71.7515 20.1847 69.7043C18.2531 67.657 17.3949 65.3296 19.442 63.3978Z" fill="#B1B9C6"/>
<path d="M24.08 72.6292C22.6415 72.6292 21.1076 71.8271 19.6134 70.2438C18.4584 69.0201 17.7639 67.8112 17.5487 66.6512C17.2858 65.2329 17.754 63.9103 18.9029 62.8262C21.262 60.6 24.9923 60.7082 27.2186 63.0675C28.297 64.2103 28.8659 65.7046 28.8203 67.2753C28.7748 68.8459 28.1204 70.3048 26.9775 71.3832C26.0944 72.2163 25.1116 72.6292 24.08 72.6292ZM22.939 62.7963C21.8771 62.7963 20.8136 63.185 19.9819 63.9695C18.5333 65.3367 18.7939 67.0846 20.7568 69.1649C22.72 71.2451 24.4498 71.6067 25.8985 70.2396C27.6272 68.6084 27.7065 65.8749 26.0753 64.1463C25.2286 63.2492 24.0847 62.7963 22.939 62.7963Z" fill="#678490"/>
</g>
<defs>
<clipPath id="clip0_30_442">
<rect width="73.0435" height="73.0435" fill="white" transform="translate(0.478516 0.783203)"/>
</clipPath>
</defs>
</svg>
