<svg width="74" height="74" viewBox="0 0 74 74" fill="none" xmlns="http://www.w3.org/2000/svg">
<g clip-path="url(#clip0_30_587)">
<path d="M65.6378 2.60742C62.1478 -0.882546 51.0299 5.46567 46.1332 8.54334C43.7096 8.14032 40.5834 7.97483 37.0033 7.99095C33.4228 7.97483 30.2962 8.14046 27.8725 8.54349C22.9741 5.46339 11.857 -0.880549 8.36913 2.60742C4.90527 6.07142 8.86018 15.5811 10.8913 19.8181C8.48926 23.8752 7.61216 28.3184 7.61216 32.1445C7.61216 35.453 8.00634 38.7574 8.79883 42.0619C10.3462 48.5112 15.4454 53.4637 21.9451 54.7803C22.6685 54.9265 23.3921 55.0611 24.1156 55.1862C23.178 56.8877 22.6526 58.7935 22.6526 60.8064C22.6526 67.9972 29.3549 73.8265 37.6228 73.8265C45.8907 73.8265 53.9105 67.7263 52.0053 60.8064C51.4614 58.8305 50.7304 56.9237 49.7724 55.2064C50.5355 55.0756 51.2987 54.9345 52.0618 54.7802C58.5616 53.4635 63.6606 48.5111 65.2079 42.0617C66.0004 38.7574 66.3946 35.4529 66.3946 32.1444C66.3946 28.3192 65.5181 23.8772 63.1174 19.8209C65.1433 15.588 69.1029 6.07256 65.6378 2.60742Z" fill="#B1B9C6"/>
<path d="M40.5578 10.3523C40.5578 15.8287 38.9643 20.2654 37.0061 20.2654C35.0436 20.2654 33.4502 15.8287 33.4502 10.3523C33.4502 9.60161 33.4796 8.87203 33.5382 8.17184C35.8488 8.06698 38.1594 8.06698 40.4698 8.17583C40.5284 8.87617 40.5578 9.60589 40.5578 10.3523Z" fill="#91A2B5"/>
<path d="M32.9255 8.55334C32.9255 14.0256 31.3362 18.4664 29.3738 18.4664C27.4868 18.4664 25.9352 14.336 25.8262 9.13626C27.0464 8.81755 28.3087 8.59114 29.6002 8.46118C30.7072 8.35218 31.8142 8.26402 32.9212 8.20538C32.9255 8.32265 32.9255 8.43593 32.9255 8.55334Z" fill="#91A2B5"/>
<path d="M48.1814 9.09002C48.0807 14.3108 46.5292 18.4663 44.6338 18.4663C42.6713 18.4663 41.082 14.0256 41.082 8.55318C41.082 8.43576 41.082 8.32249 41.0862 8.20508C42.3567 8.27213 43.6316 8.37699 44.9021 8.51123C46.0217 8.62879 47.1163 8.82581 48.1814 9.09002Z" fill="#91A2B5"/>
<path d="M61.5492 11.0318C61.5492 11.0318 62.1153 12.315 62.2076 13.7532C62.2956 15.0824 61.4947 16.0972 60.4464 16.5208C58.2448 14.0173 55.5275 11.9711 52.458 10.5494C52.4874 9.82814 52.7893 9.11954 53.3763 8.58698C55.733 6.44418 58.9913 4.13361 61.2976 5.07304C65.3148 6.71267 61.5492 11.0318 61.5492 11.0318Z" fill="white"/>
<path d="M12.454 11.0318C12.454 11.0318 11.8879 12.315 11.7956 13.7532C11.7076 15.0824 12.5085 16.0972 13.5568 16.5208C15.7584 14.0173 18.4757 11.9711 21.5452 10.5494C21.5158 9.82814 21.214 9.11954 20.6269 8.58698C18.2703 6.44418 15.012 4.13361 12.7055 5.07304C8.68844 6.71267 12.454 11.0318 12.454 11.0318Z" fill="white"/>
<path d="M66.1979 2.04433C64.4138 0.260331 61.1164 0.368041 56.1169 2.37346C52.4269 3.85359 48.6043 6.06244 45.9633 7.71291C43.6399 7.35354 40.6422 7.17892 37.0068 7.19618C33.3646 7.17992 30.3649 7.35425 28.041 7.71362C25.3956 6.06172 21.5688 3.85144 17.8848 2.3736C12.886 0.368041 9.58906 0.260616 7.80535 2.04433C4.1827 5.66712 7.52416 14.5418 9.99123 19.7763C7.30731 24.4985 6.81726 29.2884 6.81726 32.1445C6.81726 35.5045 7.22385 38.9036 8.0259 42.2472C8.82111 45.5616 10.5279 48.5593 12.9618 50.9166C15.4 53.2781 18.4517 54.8833 21.7873 55.5591C26.835 56.5796 31.9544 57.097 37.0031 57.0969C42.052 57.0969 47.1714 56.5794 52.2192 55.559C55.5545 54.8833 58.6062 53.2779 61.0445 50.9164C63.4783 48.5592 65.1851 45.5614 65.9803 42.2469C66.7824 38.903 67.189 35.504 67.189 32.1442C67.189 29.2881 66.6989 24.4986 64.0154 19.7768C66.4785 14.5405 69.8154 5.66198 66.1979 2.04433ZM64.435 41.8764C63.7104 44.8967 62.1555 47.6282 59.9388 49.7751C57.7192 51.9249 54.9408 53.3863 51.9041 54.0015C46.9599 55.0011 41.9466 55.5079 37.0032 55.5079C32.0599 55.5079 27.0466 55.0011 22.1026 54.0016C19.0656 53.3865 16.2871 51.9249 14.0675 49.7751C11.8508 47.6282 10.2961 44.8969 9.57137 41.8766C8.79843 38.6542 8.40653 35.38 8.40653 32.1447C8.40653 28.5511 9.22841 21.6922 14.7328 16.1317C15.0415 15.8199 15.0389 15.3167 14.7271 15.008C14.4151 14.6993 13.9122 14.7015 13.6033 15.0137C12.5944 16.0329 11.7353 17.0923 10.999 18.167C7.65726 10.78 6.87476 5.22258 8.92911 3.16823C10.178 1.91907 13.0703 2.15447 17.293 3.84859C20.2523 5.03583 23.3237 6.72054 25.7631 8.18284C25.7113 8.19696 25.6566 8.21023 25.606 8.22464C24.0639 8.66361 22.5875 9.19846 21.2178 9.81476C20.8176 9.9948 20.639 10.4652 20.8192 10.8655C20.9993 11.2656 21.4695 11.444 21.8699 11.2641C23.1696 10.6794 24.5731 10.1711 26.0407 9.75342C28.3806 9.08918 32.0682 8.76176 37.0068 8.78559C41.9376 8.76276 45.6255 9.08918 47.9653 9.75327C49.4334 10.1711 50.8368 10.6794 52.1365 11.2641C52.2423 11.3117 52.353 11.3343 52.462 11.3343C52.7652 11.3343 53.0546 11.1598 53.187 10.8655C53.3671 10.4653 53.1886 9.9948 52.7884 9.81476C51.4187 9.1986 49.9423 8.66361 48.3997 8.2245C48.3482 8.20994 48.2927 8.19639 48.2402 8.18212C50.6762 6.72111 53.745 5.0374 56.7085 3.84859C60.9321 2.15433 63.825 1.91893 65.0741 3.16823C67.1251 5.21916 66.3437 10.7766 63.0072 18.1668C62.271 17.0923 61.4118 16.0329 60.4031 15.0137C60.0942 14.7017 59.591 14.6993 59.2793 15.008C58.9675 15.3167 58.9649 15.8199 59.2736 16.1317C64.778 21.692 65.5999 28.551 65.5999 32.1445C65.5997 35.3796 65.2078 38.6538 64.435 41.8764Z" fill="#678490"/>
<path d="M57.8021 40.3295H52.5925C52.1537 40.3295 51.7979 39.9737 51.7979 39.5349C51.7979 39.096 52.1537 38.7402 52.5925 38.7402H57.8021C58.2409 38.7402 58.5967 39.096 58.5967 39.5349C58.5967 39.9738 58.2409 40.3295 57.8021 40.3295Z" fill="#91A2B5"/>
<path d="M56.855 45.2237C56.7633 45.2237 56.6701 45.2077 56.5791 45.1741L52.3167 43.5954C51.9051 43.4428 51.6951 42.9858 51.8475 42.5742C52 42.1626 52.4573 41.9526 52.8687 42.105L57.131 43.6837C57.5426 43.8362 57.7526 44.2933 57.6003 44.7048C57.4814 45.0254 57.1778 45.2237 56.855 45.2237Z" fill="#91A2B5"/>
<path d="M21.4134 40.3295H16.2038C15.765 40.3295 15.4092 39.9737 15.4092 39.5349C15.4092 39.096 15.765 38.7402 16.2038 38.7402H21.4134C21.8523 38.7402 22.2081 39.096 22.2081 39.5349C22.2081 39.9738 21.8523 40.3295 21.4134 40.3295Z" fill="#91A2B5"/>
<path d="M17.1514 45.2237C16.8285 45.2237 16.5248 45.0254 16.4061 44.7049C16.2537 44.2933 16.4637 43.8362 16.8753 43.6837L21.1378 42.105C21.5491 41.953 22.0065 42.1626 22.159 42.5742C22.3114 42.9858 22.1014 43.4429 21.6898 43.5954L17.4273 45.1741C17.3363 45.2077 17.243 45.2237 17.1514 45.2237Z" fill="#91A2B5"/>
<path d="M47.3645 28.1879H44.6315C44.1927 28.1879 43.8369 27.8321 43.8369 27.3933C43.8369 26.9544 44.1927 26.5986 44.6315 26.5986H47.3645C47.8034 26.5986 48.1592 26.9544 48.1592 27.3933C48.1592 27.8321 47.8034 28.1879 47.3645 28.1879Z" fill="white"/>
<path d="M29.3753 28.1879H26.6423C26.2035 28.1879 25.8477 27.8321 25.8477 27.3933C25.8477 26.9544 26.2035 26.5986 26.6423 26.5986H29.3753C29.8141 26.5986 30.1699 26.9544 30.1699 27.3933C30.1699 27.8321 29.8141 28.1879 29.3753 28.1879Z" fill="white"/>
<path d="M42.7283 37.6074C42.3026 37.5008 41.871 37.759 41.764 38.1846C41.5393 39.0792 40.7368 39.7041 39.8124 39.7041C38.7015 39.7041 37.7977 38.8011 37.7977 37.6911V36.9541H38.4661C38.9049 36.9541 39.2607 36.5983 39.2607 36.1595C39.2607 35.7207 38.9049 35.3649 38.4661 35.3649H35.5399C35.1011 35.3649 34.7453 35.7207 34.7453 36.1595C34.7453 36.5983 35.1011 36.9541 35.5399 36.9541H36.2084V37.6911C36.2084 38.8011 35.3054 39.7041 34.1954 39.7041C33.27 39.7041 32.4668 39.0792 32.2422 38.1846C32.1354 37.7589 31.704 37.5005 31.2781 37.6074C30.8524 37.7142 30.5939 38.1458 30.7009 38.5715C31.1032 40.174 32.5401 41.2934 34.1956 41.2934C35.3295 41.2934 36.3425 40.7669 37.0035 39.9454C37.6646 40.7668 38.6781 41.2934 39.8125 41.2934C41.4667 41.2934 42.903 40.1742 43.3055 38.5715C43.4123 38.1461 43.154 37.7142 42.7283 37.6074Z" fill="#678490"/>
<path d="M49.9396 36.2662C48.4796 36.2662 47.02 35.7105 45.9085 34.5992C45.5982 34.2889 45.5982 33.7857 45.9085 33.4754C46.2189 33.1651 46.722 33.1653 47.0323 33.4754C48.6352 35.0785 51.2438 35.0784 52.8469 33.4754C53.1574 33.1651 53.6604 33.1653 53.9707 33.4754C54.281 33.7857 54.281 34.2889 53.9707 34.5992C52.8595 35.7104 51.3992 36.2662 49.9396 36.2662Z" fill="#605C5D"/>
<path d="M24.0675 36.266C22.6074 36.266 21.1479 35.7105 20.0364 34.599C19.7261 34.2887 19.7261 33.7856 20.0364 33.4753C20.3467 33.165 20.8498 33.165 21.1602 33.4753C22.7631 35.0782 25.3719 35.0784 26.9748 33.4753C27.2853 33.165 27.7885 33.1651 28.0986 33.4753C28.4089 33.7856 28.4089 34.2887 28.0986 34.599C26.9873 35.7102 25.5271 36.266 24.0675 36.266Z" fill="#605C5D"/>
<path d="M44.5557 69.1421C38.1512 67.2298 30.6504 59.2467 35.0071 55.3313C39.3637 51.4159 45.4541 57.4583 48.2084 62.557L44.5557 69.1421Z" fill="#B1B9C6"/>
<path d="M46.9392 70.309C46.1151 70.309 45.2392 70.1754 44.3287 69.9034C39.2345 68.3825 33.9708 63.5083 33.0642 59.4726C32.6408 57.5876 33.129 55.9511 34.4763 54.7404C35.8256 53.5279 37.3989 53.0672 39.152 53.3711C40.9323 53.6798 42.8688 54.8124 44.752 56.6462C46.3397 58.1922 47.8155 60.1573 48.9079 62.1795C49.1165 62.5656 48.9725 63.0478 48.5864 63.2563C48.2 63.4649 47.7181 63.321 47.5095 62.9348C44.8474 58.0063 41.1704 55.3341 38.8806 54.937C37.6141 54.7172 36.5209 55.0397 35.5387 55.9223C34.6188 56.7491 34.3166 57.7963 34.6149 59.1243C35.3989 62.6138 40.2454 67.0256 44.7835 68.3807C47.1964 69.1008 49.2573 68.6432 50.4377 67.1244C51.9164 65.2218 52.3081 61.2044 48.973 55.6347C48.7476 55.2582 50.1111 54.4418 50.3365 54.8183C53.4714 60.0534 53.991 65.1425 51.6927 68.0998C50.5628 69.5529 48.8982 70.3089 46.9392 70.309Z" fill="#678490"/>
<path d="M16.8109 70.9618C15.4159 69.5669 15.4159 67.3054 16.8109 65.9104L33.6211 49.1003C35.0161 47.7053 37.2776 47.7053 38.6726 49.1003C40.0674 50.4953 40.0674 52.7568 38.6726 54.1517L21.8623 70.9618C20.4673 72.3567 18.2058 72.3568 16.8109 70.9618Z" fill="#DACDF6"/>
<path d="M19.3364 72.8026C18.1699 72.8026 17.0736 72.3484 16.2487 71.5236C15.424 70.6989 14.9697 69.6024 14.9697 68.4361C14.9697 67.2698 15.424 66.1733 16.2487 65.3486L33.059 48.5383C34.7615 46.8359 37.5316 46.8359 39.2341 48.5383C40.9367 50.2409 40.9367 53.011 39.2341 54.7135L22.424 71.5238C21.5991 72.3484 20.5028 72.8026 19.3364 72.8026ZM36.1466 48.8501C35.4355 48.8501 34.7243 49.1207 34.1829 49.6622L17.3726 66.4724C16.848 66.9969 16.5591 67.6944 16.5591 68.4361C16.5591 69.178 16.848 69.8755 17.3726 70.3999C17.897 70.9245 18.5947 71.2133 19.3364 71.2133C20.0782 71.2133 20.7757 70.9245 21.3001 70.3999L38.1104 53.5897C39.1932 52.5069 39.1932 50.7449 38.1104 49.6621C37.569 49.1207 36.8578 48.8501 36.1466 48.8501Z" fill="#8B7DAB"/>
<path d="M18.5823 57.7044C20.4014 55.5031 22.6485 54.3569 24.8498 56.176C27.0511 57.9951 27.3608 61.2544 25.5417 63.4557C23.7226 65.657 20.4633 65.9667 18.262 64.1476C16.0609 62.3285 16.7632 59.9056 18.5823 57.7044Z" fill="#B1B9C6"/>
<path d="M21.5502 66.1246C20.2116 66.1246 18.8655 65.6775 17.7554 64.7602C16.5208 63.74 15.957 62.4322 16.1246 60.9783C16.2623 59.7846 16.883 58.5127 17.9692 57.1983C20.3842 54.276 23.0764 53.6802 25.3555 55.5635C27.891 57.6588 28.2491 61.4264 26.1538 63.9618C24.9757 65.3873 23.2693 66.1246 21.5502 66.1246ZM22.5708 56.0691C22.321 56.0691 22.0681 56.1096 21.8103 56.1907C20.9737 56.4533 20.0691 57.1518 19.1943 58.2105V58.2106C18.3193 59.2692 17.8038 60.2892 17.7033 61.1603C17.5973 62.079 17.9456 62.8558 18.7677 63.5351C20.6278 65.0722 23.3916 64.8095 24.9286 62.9495C26.4657 61.0896 26.203 58.3258 24.343 56.7886C23.7612 56.3075 23.176 56.0691 22.5708 56.0691Z" fill="#678490"/>
</g>
<defs>
<clipPath id="clip0_30_587">
<rect width="73.0435" height="73.0435" fill="white" transform="translate(0.478516 0.783203)"/>
</clipPath>
</defs>
</svg>
