<svg width="74" height="74" viewBox="0 0 74 74" fill="none" xmlns="http://www.w3.org/2000/svg">
<g clip-path="url(#clip0_30_759)">
<path d="M36.9999 39.2517C18.0194 39.2517 2.63281 42.0458 2.63281 45.4924C2.63281 46.4279 2.63281 49.7965 2.63281 50.7324C2.63281 51.6724 3.77968 52.5636 5.82961 53.3631C5.82961 60.1477 8.97504 70.1253 20.2175 71.7883C20.3299 71.8049 20.4417 71.8214 20.553 71.8378C31.4443 73.4382 42.5574 73.4382 53.4487 71.8378C53.56 71.8214 53.6718 71.8049 53.7842 71.7883C65.0266 70.1253 68.1721 60.1477 68.1721 53.3631H68.1704C70.2203 52.5635 71.3672 51.6724 71.3672 50.7324C71.3672 49.7965 71.3672 46.4279 71.3672 45.4924C71.367 42.0456 55.9804 39.2517 36.9999 39.2517Z" fill="#F5DDD9"/>
<path d="M37 57.7588C27.7746 57.7588 19.0944 57.1052 12.5583 55.9183C5.35048 54.6096 1.84668 52.9131 1.84668 50.7323V45.4922C1.84668 43.3112 5.35048 41.6148 12.5583 40.306C19.0942 39.1191 27.7746 38.4655 37 38.4655C46.2254 38.4655 54.9056 39.1192 61.4417 40.306C68.6495 41.6148 72.1533 43.3112 72.1533 45.4922V50.7323C72.1533 52.9131 68.6495 54.6096 61.4417 55.9183C54.9056 57.1052 46.2254 57.7588 37 57.7588ZM37 40.0377C27.8659 40.0377 19.2854 40.6822 12.8392 41.8529C9.74122 42.4154 7.32023 43.0657 5.64366 43.7854C4.00332 44.4896 3.41883 45.1289 3.41883 45.4922V50.7323C3.41883 51.3993 5.38772 53.0184 12.8392 54.3714C19.2854 55.542 27.8659 56.1867 37 56.1867C46.1341 56.1867 54.7146 55.5421 61.1608 54.3714C64.2588 53.8089 66.6798 53.1588 68.3563 52.4389C69.9967 51.7347 70.5812 51.0956 70.5812 50.7323V45.4922C70.5812 44.8251 68.6123 43.2059 61.161 41.8529C54.7146 40.6824 46.1341 40.0377 37 40.0377Z" fill="#E9B5AC"/>
<path d="M60.1349 2.3996C57.3156 -0.419566 48.3344 4.7086 44.3789 7.19465C42.421 6.86909 39.8957 6.73541 37.0037 6.7484C34.1112 6.73541 31.5856 6.86909 29.6276 7.19479C25.6707 4.70674 16.69 -0.417854 13.8724 2.3996C11.0742 5.19779 14.2692 12.8799 15.9099 16.3027C13.9694 19.5801 13.261 23.1693 13.261 26.2601C13.261 28.9328 13.5794 31.6022 14.2195 34.2715C15.4695 39.4814 19.5886 43.482 24.8392 44.5457C28.894 45.3654 32.9488 45.7754 37.0035 45.7754C41.0583 45.7754 45.1131 45.3656 49.1678 44.5457C54.4184 43.4821 58.5375 39.4814 59.7875 34.2715C60.4278 31.6022 60.7462 28.9328 60.7462 26.2601C60.7462 23.1701 60.038 19.5818 58.0988 16.3051C59.7355 12.8856 62.934 5.19879 60.1349 2.3996Z" fill="#B1B9C6"/>
<path d="M39.8746 8.65609C39.8746 13.0801 38.5873 16.6641 37.0053 16.6641C35.4201 16.6641 34.1328 13.0801 34.1328 8.65609C34.1328 8.04978 34.1565 7.46029 34.2039 6.89463C36.0703 6.80989 37.9368 6.80989 39.8032 6.89792C39.8509 7.46372 39.8746 8.0532 39.8746 8.65609Z" fill="#91A2B5"/>
<path d="M33.7097 7.20294C33.7097 11.6236 32.4258 15.2109 30.8404 15.2109C29.3161 15.2109 28.0628 11.8743 27.9746 7.67387C28.9603 7.41637 29.9799 7.23361 31.0233 7.12847C31.9175 7.04045 32.8119 6.96926 33.7061 6.92175C33.7097 7.01662 33.7097 7.10807 33.7097 7.20294Z" fill="#91A2B5"/>
<path d="M46.0337 7.63645C45.9524 11.8537 44.6991 15.2107 43.1679 15.2107C41.5827 15.2107 40.2988 11.6235 40.2988 7.20276C40.2988 7.10789 40.2988 7.01644 40.3023 6.92157C41.3286 6.97578 42.3585 7.06038 43.3849 7.1688C44.2891 7.26382 45.1732 7.42303 46.0337 7.63645Z" fill="#91A2B5"/>
<path d="M56.8321 9.20501C56.8321 9.20501 57.2895 10.2416 57.364 11.4035C57.4352 12.4773 56.7882 13.297 55.9414 13.6391C54.1629 11.6169 51.9679 9.96384 49.4883 8.8154C49.512 8.23276 49.7559 7.66026 50.2301 7.23013C52.1338 5.4992 54.766 3.63259 56.629 4.39142C59.874 5.7159 56.8321 9.20501 56.8321 9.20501Z" fill="white"/>
<path d="M17.1726 9.20501C17.1726 9.20501 16.7152 10.2416 16.6407 11.4035C16.5695 12.4773 17.2165 13.297 18.0634 13.6391C19.8418 11.6169 22.0368 9.96384 24.5166 8.8154C24.4929 8.23276 24.2489 7.66026 23.7747 7.23013C21.871 5.4992 19.2389 3.63259 17.3759 4.39142C14.1307 5.7159 17.1726 9.20501 17.1726 9.20501Z" fill="white"/>
<path d="M60.6897 1.84292C59.2034 0.356796 56.4885 0.433121 52.3905 2.07703C49.4214 3.26798 46.3479 5.04 44.2108 6.37347C42.3339 6.08757 39.9239 5.94876 37.0073 5.96246C34.0854 5.95033 31.6733 6.08857 29.7953 6.37418C27.6549 5.03971 24.5781 3.26627 21.6136 2.07703C17.516 0.433263 14.802 0.356796 13.3156 1.84292C10.343 4.81544 13.0155 11.9917 15.0214 16.2636C12.8702 20.0847 12.4751 23.9501 12.4751 26.2603C12.4751 28.9858 12.805 31.743 13.4554 34.455C14.1041 37.159 15.4966 39.6048 17.4825 41.5281C19.4719 43.4549 21.9619 44.7648 24.6837 45.3161C28.7705 46.1424 32.9156 46.5612 37.0038 46.5612C41.0916 46.5612 45.2367 46.1422 49.3241 45.3159C52.0456 44.7645 54.5355 43.4547 56.5251 41.5279C58.5108 39.6047 59.9035 37.1589 60.5522 34.4547C61.2027 31.7428 61.5324 28.9857 61.5324 26.2601C61.5324 23.95 61.1375 20.0848 58.9864 16.2639C59.8471 14.4261 60.9278 11.8386 61.5425 9.30291C62.3979 5.77414 62.111 3.26427 60.6897 1.84292ZM57.9842 14.6752C57.4178 13.873 56.764 13.0829 56.0089 12.3201C55.7033 12.0114 55.2059 12.0091 54.8971 12.3144C54.5887 12.6198 54.5861 13.1174 54.8916 13.426C59.3018 17.8811 59.9602 23.3792 59.9602 26.2601C59.9602 28.8623 59.645 31.496 59.0234 34.088C57.85 38.9784 53.9203 42.7808 49.0123 43.7752C45.0273 44.5808 40.9871 44.9892 37.0036 44.9892C33.0199 44.9892 28.9797 44.5808 24.9954 43.7752C20.0871 42.7808 16.1574 38.9785 14.984 34.0882C14.3623 31.4961 14.0471 28.8624 14.0471 26.2603C14.0471 23.3795 14.7057 17.8812 19.1158 13.4262C19.4213 13.1176 19.4187 12.62 19.1101 12.3145C18.8015 12.0091 18.3039 12.0115 17.9985 12.3202C17.2434 13.0831 16.5894 13.8733 16.023 14.6756C13.4367 8.88348 12.8321 4.54938 14.427 2.95469C15.9641 1.41764 20.9275 2.91346 27.5649 6.8571C26.3829 7.20262 25.2483 7.61563 24.1929 8.09027C23.797 8.26832 23.6204 8.73383 23.7984 9.12972C23.9295 9.42104 24.2159 9.59352 24.5159 9.59352C24.6236 9.59352 24.7332 9.57112 24.8379 9.52418C25.8816 9.05468 27.0088 8.64637 28.1873 8.31097C30.0645 7.77813 33.0285 7.5172 37.007 7.5346C40.9808 7.51734 43.9426 7.77813 45.8193 8.31083C46.999 8.64652 48.1261 9.05482 49.1693 9.52404C49.5652 9.70208 50.0306 9.52561 50.2086 9.12972C50.3868 8.73383 50.2102 8.26846 49.8143 8.09042C48.7592 7.61563 47.6252 7.20106 46.4418 6.85524C53.0762 2.91075 58.0387 1.41593 59.5776 2.95469C61.17 4.54667 60.5664 8.88063 57.9842 14.6752Z" fill="#678490"/>
<path d="M53.805 33.0164H49.5966C49.1625 33.0164 48.8105 32.6644 48.8105 32.2303C48.8105 31.7962 49.1625 31.4442 49.5966 31.4442H53.805C54.2392 31.4442 54.5911 31.7962 54.5911 32.2303C54.5911 32.6644 54.2392 33.0164 53.805 33.0164Z" fill="#91A2B5"/>
<path d="M53.0399 36.9699C52.9492 36.9699 52.8571 36.954 52.767 36.9208L49.3239 35.6455C48.9167 35.4947 48.709 35.0425 48.8596 34.6353C49.0104 34.2282 49.4628 34.0203 49.8698 34.1711L53.313 35.4464C53.7202 35.5972 53.9279 36.0494 53.7771 36.4566C53.6597 36.7737 53.3594 36.9699 53.0399 36.9699Z" fill="#91A2B5"/>
<path d="M24.4105 33.0164H20.2021C19.768 33.0164 19.416 32.6644 19.416 32.2303C19.416 31.7962 19.768 31.4442 20.2021 31.4442H24.4105C24.8446 31.4442 25.1966 31.7962 25.1966 32.2303C25.1967 32.6644 24.8448 33.0164 24.4105 33.0164Z" fill="#91A2B5"/>
<path d="M20.9671 36.9699C20.6477 36.9699 20.3474 36.7737 20.2298 36.4566C20.079 36.0495 20.2869 35.5972 20.694 35.4464L24.1372 34.1711C24.5438 34.0207 24.9966 34.2282 25.1474 34.6353C25.2982 35.0423 25.0903 35.4947 24.6833 35.6455L21.24 36.9208C21.15 36.954 21.0577 36.9699 20.9671 36.9699Z" fill="#91A2B5"/>
<path d="M45.3737 23.2081H43.166C42.7318 23.2081 42.3799 22.8562 42.3799 22.4221C42.3799 21.9879 42.7318 21.636 43.166 21.636H45.3737C45.8078 21.636 46.1597 21.9879 46.1597 22.4221C46.1597 22.8562 45.8078 23.2081 45.3737 23.2081Z" fill="white"/>
<path d="M30.8414 23.2081H28.6337C28.1996 23.2081 27.8477 22.8562 27.8477 22.4221C27.8477 21.9879 28.1996 21.636 28.6337 21.636H30.8414C31.2756 21.636 31.6275 21.9879 31.6275 22.4221C31.6275 22.8562 31.2756 23.2081 30.8414 23.2081Z" fill="white"/>
<path d="M41.6032 33.4245C41.5997 33.5939 41.5929 33.7599 41.5761 33.9258C41.5388 34.3425 41.4642 34.7456 41.3559 35.1318C40.7189 37.4047 38.9305 39.0239 36.8472 38.9901C35.6277 38.9664 34.5302 38.3838 33.7172 37.442C33.6597 37.3777 33.6089 37.3134 33.5545 37.2456C32.7451 36.2124 32.2573 34.8066 32.2843 33.262C32.3351 30.1455 34.4321 29.7628 37.003 29.8069C39.5775 29.8507 41.6574 30.3048 41.6032 33.4245Z" fill="#678490"/>
<path d="M41.3555 35.1317C40.7186 37.4046 38.9301 39.0239 36.8468 38.99C35.6273 38.9664 34.5298 38.3837 33.7168 37.442C34.1877 35.3553 35.668 33.7599 37.582 33.5396C39.0047 33.3771 40.3665 34.0071 41.3555 35.1317Z" fill="#E9B5AC"/>
<path d="M37.7901 29.0446V27.9183H38.186C38.6201 27.9183 38.9721 27.5663 38.9721 27.1322C38.9721 26.6981 38.6201 26.3461 38.186 26.3461H35.8222C35.3881 26.3461 35.0361 26.6981 35.0361 27.1322C35.0361 27.5663 35.3881 27.9183 35.8222 27.9183H36.2179V29.0242C35.2089 29.051 34.1583 29.1885 33.3126 29.6649C32.1373 30.3269 31.5265 31.5332 31.4972 33.2506C31.4366 36.7979 33.8305 39.7255 36.8337 39.7769C36.8604 39.7773 36.8869 39.7776 36.9136 39.7776C39.8808 39.7776 42.3299 36.9524 42.3901 33.4369C42.4545 29.6756 39.6772 29.1402 37.7901 29.0446ZM40.8183 33.4101C40.7725 36.0906 39.0042 38.2425 36.8606 38.2051C34.7241 38.1686 33.0234 35.9581 33.0692 33.2777C33.0952 31.7652 33.661 31.2733 34.0843 31.0349C34.7429 30.6638 35.7118 30.5905 36.6315 30.5905C36.7524 30.5905 36.8723 30.5918 36.9906 30.5938C39.9598 30.6444 40.8542 31.3025 40.8183 33.4101Z" fill="#678490"/>
<path d="M29.356 29.736C29.1549 29.736 28.9537 29.6592 28.8002 29.5057C28.2001 28.9057 27.4022 28.5751 26.5535 28.5751C25.7048 28.5751 24.9069 28.9055 24.3069 29.5057C23.9997 29.8127 23.5021 29.8126 23.1951 29.5057C22.8881 29.1987 22.8881 28.701 23.1951 28.394C24.0922 27.4969 25.2848 27.003 26.5535 27.003C27.8222 27.003 29.0149 27.4969 29.9118 28.394C30.2188 28.701 30.2188 29.1987 29.9118 29.5057C29.7585 29.6592 29.5572 29.736 29.356 29.736Z" fill="#605C5D"/>
<path d="M50.2564 29.736C50.0552 29.736 49.8541 29.6592 49.7006 29.5057C48.4617 28.267 46.446 28.267 45.2071 29.5057C44.9001 29.8127 44.4024 29.8126 44.0955 29.5057C43.7885 29.1987 43.7885 28.701 44.0955 28.3941C45.9473 26.5425 48.9604 26.5425 50.8121 28.3941C51.1191 28.701 51.1191 29.1987 50.8121 29.5057C50.6587 29.6592 50.4576 29.736 50.2564 29.736Z" fill="#605C5D"/>
<path d="M49.168 44.5457C50.0833 38.1504 55.0718 29.8077 60.0746 30.4993C66.2928 31.3589 62.7854 36.2525 59.1512 36.2525C59.1512 36.2525 59.4587 41.7161 57.6111 44.6686L49.168 44.5457Z" fill="#B1B9C6"/>
<path d="M58.2775 45.0856L56.9447 44.2516C58.6403 41.542 58.3694 36.3488 58.3664 36.2966C58.3542 36.0809 58.4314 35.8695 58.5799 35.7124C58.7284 35.5553 58.935 35.4663 59.1512 35.4663C60.3979 35.4663 61.4609 34.5865 61.9613 33.7147C62.335 33.0638 62.4127 32.4269 62.1696 32.0107C61.8917 31.5348 61.152 31.2764 60.0805 31.2853C55.5218 31.3198 50.8088 38.6286 49.946 44.6569L48.3896 44.4341C48.8609 41.1417 50.3735 37.4931 52.4361 34.6742C54.7626 31.4947 57.4731 29.7327 60.0686 29.713C60.0889 29.7128 60.1094 29.7128 60.1295 29.7128C62.2093 29.7128 63.1249 30.529 63.5272 31.2176C64.0578 32.1261 63.9821 33.352 63.3248 34.4972C62.5838 35.7881 61.3166 36.6972 59.9568 36.9601C59.9717 38.6169 59.8311 42.603 58.2775 45.0856Z" fill="#678490"/>
<path d="M24.5167 46.2321C23.6013 39.8368 18.6562 31.9782 13.6099 32.1858C8.19386 32.4086 10.899 37.939 14.5334 37.939C14.5334 37.939 14.2258 43.4025 16.0736 46.3551L24.5167 46.2321Z" fill="#B1B9C6"/>
<path d="M15.4075 46.7721C13.8564 44.2935 13.7136 40.3164 13.7279 38.6553C11.6235 38.2854 10.1562 36.5082 10.0423 34.836C9.94591 33.4205 10.8046 31.7764 13.5036 31.4069C16.0915 31.0533 18.8377 32.7191 21.2377 36.0986C23.2641 38.952 24.8187 42.7924 25.295 46.1207L23.7387 46.3434C23.2956 43.2476 21.8461 39.6708 19.9559 37.0089C17.941 34.1718 15.6677 32.6975 13.7168 32.9646C12.893 33.0773 11.5242 33.4565 11.6108 34.7293C11.6888 35.8756 12.9085 37.1529 14.5337 37.1529C14.7498 37.1529 14.9565 37.2419 15.1049 37.399C15.2533 37.5561 15.3306 37.7673 15.3185 37.9832C15.3156 38.035 15.0485 43.2348 16.7402 45.9382L15.4075 46.7721Z" fill="#678490"/>
<path d="M37.0012 73.8267C31.4676 73.8267 25.934 73.423 20.4391 72.6155L20.103 72.566C14.8925 71.7953 10.7556 69.1476 8.13916 64.9094C5.44611 60.5468 5.04395 55.8026 5.04395 53.3631H6.61609C6.61609 57.2308 7.65882 61.1384 9.47691 64.0835C11.8757 67.9694 15.5283 70.3001 20.3329 71.0108L20.6681 71.0603C31.5059 72.6529 42.4968 72.6529 53.335 71.0603L53.6699 71.0109C58.4744 70.3002 62.1269 67.9697 64.5257 64.0837C66.3438 61.1385 67.3866 57.231 67.3866 53.3632H68.9587C68.9587 55.8028 68.5565 60.5469 65.8635 64.9095C63.2472 69.1479 59.1102 71.7955 53.8999 72.5661L53.5641 72.6156C48.0687 73.4229 42.5349 73.8267 37.0012 73.8267Z" fill="#E9B5AC"/>
<path d="M65.0164 45.2344C65.0164 46.0373 64.8166 46.796 64.4643 47.4567C63.0112 47.853 60.9888 48.2933 58.2008 48.7101C52.2762 49.5975 44.7493 50.0853 36.9988 50.0853C29.2518 50.0853 21.7215 49.5975 15.8001 48.7101C11.454 48.0596 8.97096 47.3584 7.60254 46.8469C7.90399 43.5306 10.6953 40.9323 14.0896 40.9323C16.1152 40.9323 17.9242 41.857 19.1199 43.307C19.9226 40.9494 22.1483 39.2521 24.7803 39.2521C27.4394 39.2521 29.6955 40.9901 30.4713 43.3949C31.6637 42.2636 33.2728 41.5624 35.0478 41.5624C36.9312 41.5624 38.6283 42.3482 39.8377 43.6049C40.6981 42.399 42.1073 41.6096 43.6993 41.6096C45.2101 41.6096 46.555 42.3177 47.4255 43.4186C48.6416 41.8196 50.5555 40.7866 52.7202 40.7866C54.2107 40.7866 55.5825 41.2812 56.6936 42.111C57.5641 41.115 58.8413 40.485 60.264 40.485C62.8892 40.4852 65.0164 42.6091 65.0164 45.2344Z" fill="#DACDF6"/>
<path d="M64.4611 48.2444C64.3368 48.2444 64.2107 48.2148 64.0934 48.1525C63.7098 47.9491 63.564 47.4731 63.7675 47.0897C64.0729 46.5139 64.2278 45.8902 64.2278 45.2359C64.2278 43.0487 62.45 41.2694 60.2648 41.2694C59.1278 41.2694 58.0421 41.7655 57.2863 42.63C57.0159 42.9393 56.5531 42.9884 56.224 42.7424C55.1978 41.9759 53.9866 41.5709 52.7209 41.5709C50.8787 41.5709 49.1755 42.4187 48.048 43.897C47.9006 44.0903 47.6721 44.2044 47.4291 44.2064C47.427 44.2064 47.425 44.2064 47.423 44.2064C47.1822 44.2064 46.9546 44.0962 46.8054 43.9067C46.05 42.9476 44.9181 42.3975 43.7002 42.3975C42.4269 42.3975 41.2226 43.0202 40.4783 44.0632C40.3426 44.2534 40.1295 44.3734 39.8965 44.3906C39.664 44.408 39.435 44.3207 39.2728 44.1525C38.1513 42.9901 36.6511 42.3501 35.0487 42.3501C33.5451 42.3501 32.1121 42.9242 31.0133 43.9669C30.8176 44.1527 30.5401 44.2253 30.2784 44.1585C30.0168 44.0919 29.8077 43.8959 29.7243 43.6391C29.0263 41.4843 27.0384 40.0367 24.7779 40.0367C22.5574 40.0367 20.5829 41.4535 19.8649 43.5622C19.773 43.8321 19.5422 44.0311 19.2616 44.0822C18.981 44.1331 18.6948 44.0284 18.5137 43.8083C17.4201 42.4792 15.8079 41.717 14.0905 41.717C11.1082 41.717 8.65601 43.9538 8.38638 46.9199C8.347 47.3523 7.96466 47.6703 7.5324 47.6316C7.10013 47.5924 6.78142 47.2099 6.82065 46.7775C6.98485 44.9715 7.81358 43.2987 9.15419 42.0672C10.5038 40.8275 12.257 40.1448 14.0905 40.1448C15.8683 40.1448 17.5576 40.7854 18.8758 41.933C20.0558 39.8184 22.2989 38.4645 24.7779 38.4645C27.3449 38.4645 29.6417 39.897 30.7905 42.1233C32.0346 41.2499 33.5122 40.7783 35.0485 40.7783C36.792 40.7783 38.4391 41.3746 39.7688 42.4729C40.8006 41.4292 42.2165 40.8258 43.7 40.8258C45.0859 40.8258 46.3915 41.3348 47.3986 42.2467C48.797 40.8084 50.6918 39.9992 52.7208 39.9992C54.0998 39.9992 55.4265 40.3769 56.5966 41.0974C57.605 40.201 58.9081 39.6977 60.2647 39.6977C63.3168 39.6977 65.8 42.1823 65.8 45.2363C65.8 46.1374 65.5773 47.0332 65.1561 47.8269C65.015 48.0926 64.7427 48.2444 64.4611 48.2444Z" fill="#8B7DAB"/>
<path d="M67.5132 25.7907C69.3737 25.7907 70.8819 24.2825 70.8819 22.422C70.8819 20.5616 69.3737 19.0533 67.5132 19.0533C65.6528 19.0533 64.1445 20.5616 64.1445 22.422C64.1445 24.2825 65.6528 25.7907 67.5132 25.7907Z" fill="#DACDF6"/>
<path d="M67.5132 26.5768C65.2222 26.5768 63.3584 24.7131 63.3584 22.422C63.3584 20.131 65.2222 18.2673 67.5132 18.2673C69.8042 18.2673 71.668 20.131 71.668 22.422C71.668 24.7131 69.8041 26.5768 67.5132 26.5768ZM67.5132 19.8394C66.0891 19.8394 64.9305 20.998 64.9305 22.422C64.9305 23.8461 66.0891 25.0047 67.5132 25.0047C68.9372 25.0047 70.0958 23.8461 70.0958 22.422C70.0958 20.9978 68.9372 19.8394 67.5132 19.8394Z" fill="#8B7DAB"/>
<path d="M65.8676 5.7999C66.0204 3.62655 64.3823 1.74089 62.209 1.58816C60.0356 1.43542 58.15 3.07346 57.9973 5.24681C57.8445 7.42016 59.4826 9.30582 61.6559 9.45856C63.8293 9.61129 65.7149 7.97325 65.8676 5.7999Z" fill="#DACDF6"/>
<path d="M61.9323 10.2519C59.3236 10.2519 57.2012 8.12948 57.2012 5.52075C57.2012 2.91201 59.3236 0.789612 61.9323 0.789612C64.541 0.789612 66.6634 2.91201 66.6634 5.52075C66.6634 8.12963 64.541 10.2519 61.9323 10.2519ZM61.9323 2.3619C60.1905 2.3619 58.7733 3.77897 58.7733 5.52089C58.7733 7.2628 60.1904 8.67988 61.9323 8.67988C63.6741 8.67988 65.0913 7.2628 65.0913 5.52089C65.0913 3.77897 63.6742 2.3619 61.9323 2.3619Z" fill="#8B7DAB"/>
<path d="M13.2608 16.1265C10.4625 16.1265 8.19402 18.3949 8.19402 21.1933C8.19402 22.0023 8.38462 22.7664 8.72187 23.4449C7.43834 23.9206 6.52344 25.1556 6.52344 26.6045C6.52344 28.465 8.03167 29.9732 9.89214 29.9732C11.7526 29.9732 13.2608 28.465 13.2608 26.6045C13.2608 26.4881 13.255 26.3731 13.2434 26.2597C13.2493 26.2597 13.255 26.2601 13.2608 26.2601C16.0592 26.2601 18.3277 23.9916 18.3277 21.1933C18.3277 18.3949 16.0592 16.1265 13.2608 16.1265Z" fill="#DACDF6"/>
<path d="M19.114 21.1933C19.114 17.966 16.4884 15.3404 13.2611 15.3404C10.0337 15.3404 7.40803 17.966 7.40803 21.1933C7.40803 21.8491 7.51802 22.4793 7.7179 23.0685C6.50911 23.8143 5.7373 25.15 5.7373 26.6048C5.7373 28.8958 7.6012 30.7596 9.89222 30.7596C12.0517 30.7596 13.831 29.1032 14.0282 26.9944C16.8941 26.6173 19.114 24.1605 19.114 21.1933ZM9.89222 29.1874C8.46816 29.1874 7.30959 28.0288 7.30959 26.6048C7.30959 25.7484 7.73958 24.9582 8.42308 24.4831C9.33184 25.8154 10.776 26.7537 12.4433 26.9878C12.2571 28.2304 11.1857 29.1874 9.89222 29.1874ZM13.2611 25.474C10.9006 25.474 8.98018 23.5536 8.98018 21.1933C8.98018 18.8329 10.9006 16.9125 13.2611 16.9125C15.6214 16.9125 17.5418 18.8329 17.5418 21.1933C17.5418 23.5536 15.6216 25.474 13.2611 25.474Z" fill="#8B7DAB"/>
<path d="M39.2818 6.72416C38.4671 5.05158 36.4507 4.3561 34.7781 5.17085C33.4754 5.80541 32.7658 7.1687 32.9004 8.53085C32.1428 8.52485 31.3723 8.68806 30.645 9.04244C28.1293 10.2679 27.0833 13.3008 28.3087 15.8165C29.5342 18.3322 32.5671 19.3782 35.0828 18.1528C37.5985 16.9273 38.6445 13.8944 37.4191 11.3787C37.4165 11.3734 37.4136 11.3684 37.4111 11.3631C37.5181 11.3239 37.6241 11.2788 37.7286 11.2277C39.4012 10.4133 40.0966 8.39674 39.2818 6.72416Z" fill="#DACDF6"/>
<path d="M39.9883 6.37961C38.985 4.31984 36.4932 3.46058 34.4337 4.46364C33.1264 5.10092 32.2631 6.37989 32.1215 7.79326C31.5046 7.87158 30.89 8.04862 30.3007 8.33566C28.8953 9.0203 27.8404 10.2113 27.3307 11.6892C26.821 13.1672 26.9173 14.7552 27.6019 16.1606C28.6144 18.2393 30.703 19.45 32.873 19.45C33.732 19.45 34.6041 19.2601 35.4268 18.8593C36.8323 18.1747 37.887 16.9838 38.3968 15.5058C38.8222 14.2724 38.8239 12.9628 38.4155 11.7463C39.2418 11.2448 39.8619 10.4786 40.1811 9.55343C40.543 8.50443 40.4745 7.37739 39.9883 6.37961ZM36.9107 14.9933C36.5379 16.0743 35.7665 16.9454 34.7385 17.4461C32.6165 18.48 30.0491 17.5943 29.0154 15.4722C28.5147 14.4443 28.4443 13.2828 28.8171 12.202C29.1899 11.121 29.9614 10.2499 30.9893 9.74917C31.5823 9.46027 32.2196 9.31461 32.8603 9.31461C33.3302 9.31461 33.8022 9.39308 34.2596 9.55072C35.3405 9.9235 36.2116 10.695 36.7124 11.7231C37.2131 12.7509 37.2834 13.9124 36.9107 14.9933ZM38.695 9.04113C38.5126 9.56984 38.1701 10.0129 37.715 10.3245C36.7741 8.92814 35.2981 8.04078 33.7022 7.80738C33.8304 6.98493 34.3529 6.25207 35.1225 5.87701C36.4026 5.25343 37.9514 5.78784 38.5751 7.06824C38.8771 7.6884 38.9198 8.38902 38.695 9.04113Z" fill="#8B7DAB"/>
<path d="M36.9999 50.871C29.2141 50.871 21.6438 50.3797 15.6836 49.4875C9.67266 48.5877 7.112 47.579 6.12064 47.0578C5.7363 46.8558 5.58865 46.3806 5.79066 45.9963C5.99267 45.6119 6.46817 45.464 6.85222 45.6663C7.57951 46.0486 9.91876 47.0348 15.9165 47.9326C21.8019 48.8136 29.2895 49.2989 37.0001 49.2989C44.7104 49.2989 52.1981 48.8137 58.0837 47.9326C64.0811 47.0348 66.4205 46.0486 67.1479 45.6663C67.5321 45.4644 68.0074 45.6121 68.2094 45.9964C68.4115 46.3807 68.2637 46.8559 67.8793 47.058C66.8878 47.5791 64.327 48.5877 58.3165 49.4875C52.356 50.3797 44.7857 50.871 36.9999 50.871Z" fill="#E9B5AC"/>
</g>
<defs>
<clipPath id="clip0_30_759">
<rect width="73.0435" height="73.0435" fill="white" transform="translate(0.478516 0.783203)"/>
</clipPath>
</defs>
</svg>
