<svg width="75" height="334" viewBox="0 0 75 334" fill="none" xmlns="http://www.w3.org/2000/svg">
<path opacity="0.2" fill-rule="evenodd" clip-rule="evenodd" d="M280.199 200.826C291.682 221.278 235.595 216.29 212.14 216.162C194.894 216.068 169.74 184.154 163.392 200.188C148.629 237.475 186.899 282.247 171.341 319.209C163.701 337.358 122.369 337.627 112.779 320.428C94.869 288.307 134.14 239.668 111.036 211.056C96.115 192.577 68.8944 238.974 45.2434 236.79C28.9312 235.284 9.5859 218.138 11.2865 201.845C13.451 181.11 55.1966 177.321 53.621 156.532C51.6602 130.661 10.4701 122.889 3.40997 97.9215C-2.51388 76.9727 -0.0489284 45.1336 19.2957 35.1465C42.1781 23.333 69.5116 58.2565 94.2301 51.0335C115.58 44.7947 115.359 5.06505 137.17 0.702153C156.918 -3.24797 169.706 24.0287 188.086 32.2595C205.238 39.9399 225.155 38.9384 241.845 47.5757C260.187 57.0678 300.44 67.1616 290.398 85.2071C268.7 124.2 183.865 114.364 179.944 158.815C176.733 195.217 262.309 168.961 280.199 200.826Z" fill="#8B7DAB"/>
</svg>
