<svg width="100" height="100" viewBox="0 0 100 100" fill="none" xmlns="http://www.w3.org/2000/svg">
<g opacity="0.4">
<path d="M71.7999 14.3996C78.8999 18.3496 85.7499 22.8996 89.7499 29.2496C93.7499 35.5996 94.8999 43.7996 93.8999 51.4496C92.8999 59.0496 89.7999 66.1496 85.4999 71.9496C81.1999 77.7496 75.6499 82.2496 69.4999 85.1996C63.3999 88.1496 56.6999 89.5496 49.9999 89.5496C43.2499 89.5996 36.4999 88.2996 30.6999 85.1996C24.8999 82.0496 20.0499 77.0996 17.0499 71.2496C14.0999 65.3996 13.0499 58.6996 12.2999 51.5496C11.4999 44.3996 11.0499 36.8496 13.6999 30.3996C16.2999 23.9996 21.9999 18.6996 28.5999 14.4496C35.1499 10.1996 42.5499 6.94959 49.9499 6.99959C57.3499 7.09959 64.6999 10.4496 71.7999 14.3996Z" fill="#8B7DAB"/>
</g>
<mask id="mask0_60_7" style="mask-type:alpha" maskUnits="userSpaceOnUse" x="37" y="34" width="32" height="32">
<rect x="37" y="34" width="32" height="32" fill="#8B7DAB"/>
</mask>
<g mask="url(#mask0_60_7)">
<path d="M53.1997 55.533C53.933 55.533 54.5608 55.3608 55.083 55.0163C55.6052 54.6719 55.8663 54.133 55.8663 53.3997C55.8663 52.7552 55.5941 52.233 55.0497 51.833C54.5052 51.433 53.533 50.9775 52.133 50.4663C50.8219 49.9997 49.8608 49.4441 49.2497 48.7997C48.6386 48.1552 48.333 47.3108 48.333 46.2663C48.333 45.3552 48.6497 44.5275 49.283 43.783C49.9163 43.0386 50.7775 42.5552 51.8663 42.333V41.833C51.8663 41.5219 51.983 41.2497 52.2163 41.0163C52.4497 40.783 52.7219 40.6663 53.033 40.6663C53.3441 40.6663 53.6163 40.783 53.8497 41.0163C54.083 41.2497 54.1997 41.5219 54.1997 41.833V42.333C54.8441 42.3775 55.4386 42.5941 55.983 42.983C56.5275 43.3719 56.9663 43.8441 57.2997 44.3997C57.4552 44.6441 57.4663 44.9052 57.333 45.183C57.1997 45.4608 56.9775 45.6552 56.6663 45.7663C56.3775 45.8775 56.0886 45.8886 55.7997 45.7997C55.5108 45.7108 55.2775 45.5441 55.0997 45.2997C54.8775 45.033 54.5997 44.8163 54.2663 44.6497C53.933 44.483 53.533 44.3997 53.0663 44.3997C52.2886 44.3997 51.6941 44.5663 51.283 44.8997C50.8719 45.233 50.6663 45.6886 50.6663 46.2663C50.6663 46.8441 50.9219 47.2997 51.433 47.633C51.9441 47.9663 52.8663 48.3552 54.1997 48.7997C55.7997 49.3775 56.8663 50.0552 57.3997 50.833C57.933 51.6108 58.1997 52.4663 58.1997 53.3997C58.1997 54.0441 58.0886 54.6108 57.8663 55.0997C57.6441 55.5886 57.3497 56.0052 56.983 56.3497C56.6163 56.6941 56.1886 56.9719 55.6997 57.183C55.2108 57.3941 54.6886 57.5552 54.133 57.6663V58.1663C54.133 58.4775 54.0163 58.7497 53.783 58.983C53.5497 59.2163 53.2775 59.333 52.9663 59.333C52.6552 59.333 52.383 59.2163 52.1497 58.983C51.9163 58.7497 51.7997 58.4775 51.7997 58.1663V57.5997C50.9552 57.4219 50.233 57.0886 49.633 56.5997C49.033 56.1108 48.5552 55.4886 48.1997 54.733C48.0663 54.4219 48.0719 54.1219 48.2163 53.833C48.3608 53.5441 48.5886 53.3441 48.8997 53.233C49.1886 53.1219 49.4775 53.1275 49.7663 53.2497C50.0552 53.3719 50.2775 53.5663 50.433 53.833C50.7441 54.4108 51.1386 54.8386 51.6163 55.1163C52.0941 55.3941 52.6219 55.533 53.1997 55.533ZM52.9997 64.6663C50.5108 64.6663 48.2219 64.0997 46.133 62.9663C44.0441 61.833 42.333 60.3219 40.9997 58.433V60.6663C40.9997 61.0441 40.8719 61.3608 40.6163 61.6163C40.3608 61.8719 40.0441 61.9997 39.6663 61.9997C39.2886 61.9997 38.9719 61.8719 38.7163 61.6163C38.4608 61.3608 38.333 61.0441 38.333 60.6663V55.333C38.333 54.9552 38.4608 54.6386 38.7163 54.383C38.9719 54.1275 39.2886 53.9997 39.6663 53.9997H44.9997C45.3775 53.9997 45.6941 54.1275 45.9497 54.383C46.2052 54.6386 46.333 54.9552 46.333 55.333C46.333 55.7108 46.2052 56.0275 45.9497 56.283C45.6941 56.5386 45.3775 56.6663 44.9997 56.6663H43.033C44.0997 58.2663 45.5052 59.5552 47.2497 60.533C48.9941 61.5108 50.9108 61.9997 52.9997 61.9997C56.133 61.9997 58.8275 60.9552 61.083 58.8663C63.3386 56.7775 64.6219 54.2108 64.933 51.1663C64.9775 50.8108 65.133 50.5275 65.3997 50.3163C65.6663 50.1052 65.9775 49.9997 66.333 49.9997C66.7108 49.9997 67.033 50.1163 67.2997 50.3497C67.5663 50.583 67.6775 50.8663 67.633 51.1997C67.4775 53.0886 66.9886 54.8497 66.1663 56.483C65.3441 58.1163 64.2775 59.5386 62.9663 60.7497C61.6552 61.9608 60.1497 62.9163 58.4497 63.6163C56.7497 64.3163 54.933 64.6663 52.9997 64.6663ZM52.9997 37.9997C49.8663 37.9997 47.1719 39.0441 44.9163 41.133C42.6608 43.2219 41.3775 45.7886 41.0663 48.833C41.0219 49.1886 40.8663 49.4719 40.5997 49.683C40.333 49.8941 40.0219 49.9997 39.6663 49.9997C39.2886 49.9997 38.9663 49.883 38.6997 49.6497C38.433 49.4163 38.3219 49.133 38.3663 48.7997C38.5219 46.9108 39.0108 45.1497 39.833 43.5163C40.6552 41.883 41.7219 40.4608 43.033 39.2497C44.3441 38.0386 45.8497 37.083 47.5497 36.383C49.2497 35.683 51.0663 35.333 52.9997 35.333C55.4886 35.333 57.7775 35.8997 59.8663 37.033C61.9552 38.1663 63.6663 39.6775 64.9997 41.5663V39.333C64.9997 38.9552 65.1275 38.6386 65.383 38.383C65.6386 38.1275 65.9552 37.9997 66.333 37.9997C66.7108 37.9997 67.0275 38.1275 67.283 38.383C67.5386 38.6386 67.6663 38.9552 67.6663 39.333V44.6663C67.6663 45.0441 67.5386 45.3608 67.283 45.6163C67.0275 45.8719 66.7108 45.9997 66.333 45.9997H60.9997C60.6219 45.9997 60.3052 45.8719 60.0497 45.6163C59.7941 45.3608 59.6663 45.0441 59.6663 44.6663C59.6663 44.2886 59.7941 43.9719 60.0497 43.7163C60.3052 43.4608 60.6219 43.333 60.9997 43.333H62.9663C61.8997 41.733 60.4941 40.4441 58.7497 39.4663C57.0052 38.4886 55.0886 37.9997 52.9997 37.9997Z" fill="#8B7DAB"/>
</g>
</svg>
