<svg width="100" height="100" viewBox="0 0 100 100" fill="none" xmlns="http://www.w3.org/2000/svg">
<g opacity="0.4">
<path d="M71.1991 13.3999C78.0491 17.2499 84.5491 21.7499 87.6491 27.9999C90.6991 34.1999 90.3491 42.0999 89.9991 49.7999C89.6991 57.5499 89.3991 65.0499 86.1491 70.9999C82.9491 76.8999 76.7491 81.2499 70.1991 85.2499C63.6991 89.2499 56.8491 92.9499 50.2491 92.5499C43.5991 92.1499 37.1991 87.6999 30.8491 83.5499C24.5491 79.4499 18.2491 75.6999 13.2491 70.1999C8.19908 64.6499 4.49908 57.2999 4.84908 50.1999C5.24908 43.0999 9.69908 36.1999 14.4491 30.1999C19.1491 24.1999 24.1991 19.0999 30.1991 14.7499C36.1491 10.3999 43.0991 6.74991 50.0991 6.54991C57.1491 6.34991 64.3491 9.54991 71.1991 13.3999Z" fill="#8B7DAB"/>
</g>
<mask id="mask0_60_8" style="mask-type:alpha" maskUnits="userSpaceOnUse" x="34" y="34" width="32" height="32">
<rect x="34" y="34" width="32" height="32" fill="#8B7DAB"/>
</mask>
<g mask="url(#mask0_60_8)">
<path d="M48.6007 50.9329L46.734 49.0662C46.4673 48.7995 46.1562 48.6662 45.8007 48.6662C45.4451 48.6662 45.134 48.7995 44.8673 49.0662C44.6007 49.3329 44.4673 49.6495 44.4673 50.0162C44.4673 50.3829 44.6007 50.6995 44.8673 50.9662L47.6673 53.7995C47.934 54.0662 48.2451 54.1995 48.6007 54.1995C48.9562 54.1995 49.2673 54.0662 49.534 53.7995L55.2007 48.1329C55.4673 47.8662 55.6007 47.5495 55.6007 47.1829C55.6007 46.8162 55.4673 46.4995 55.2007 46.2329C54.934 45.9662 54.6173 45.8329 54.2507 45.8329C53.884 45.8329 53.5673 45.9662 53.3007 46.2329L48.6007 50.9329ZM50.0007 63.1995C49.8451 63.1995 49.7007 63.1884 49.5673 63.1662C49.434 63.144 49.3007 63.1107 49.1673 63.0662C46.1673 62.0662 43.7784 60.2162 42.0007 57.5162C40.2229 54.8162 39.334 51.9107 39.334 48.7995V42.4995C39.334 41.944 39.4951 41.444 39.8173 40.9995C40.1395 40.5551 40.5562 40.2329 41.0673 40.0329L49.0673 37.0329C49.3784 36.9218 49.6895 36.8662 50.0007 36.8662C50.3118 36.8662 50.6229 36.9218 50.934 37.0329L58.934 40.0329C59.4451 40.2329 59.8618 40.5551 60.184 40.9995C60.5062 41.444 60.6673 41.944 60.6673 42.4995V48.7995C60.6673 51.9107 59.7784 54.8162 58.0007 57.5162C56.2229 60.2162 53.834 62.0662 50.834 63.0662C50.7007 63.1107 50.5673 63.144 50.434 63.1662C50.3007 63.1884 50.1562 63.1995 50.0007 63.1995ZM50.0007 60.5329C52.3118 59.7995 54.2229 58.3329 55.734 56.1329C57.2451 53.9329 58.0007 51.4884 58.0007 48.7995V42.4995L50.0007 39.4995L42.0007 42.4995V48.7995C42.0007 51.4884 42.7562 53.9329 44.2673 56.1329C45.7784 58.3329 47.6895 59.7995 50.0007 60.5329Z" fill="#8B7DAB"/>
</g>
</svg>
