<svg width="100" height="100" viewBox="0 0 100 100" fill="none" xmlns="http://www.w3.org/2000/svg">
<g opacity="0.4">
<path d="M70.8 12.3997C76.65 17.3497 80.85 23.5497 85.1 29.9997C89.35 36.4997 93.6 43.2497 94.2 50.3497C94.8 57.4497 91.75 64.8997 87.3 70.9997C82.85 77.1497 77.05 81.9497 70.6 85.7997C64.15 89.6497 57.05 92.5997 49.55 93.3497C42 94.1497 34.05 92.7997 28.45 88.4497C22.9 84.0997 19.7 76.6997 15.45 69.7997C11.15 62.8997 5.80004 56.4497 4.90004 49.4497C3.95004 42.4997 7.45004 34.9497 12.45 29.2997C17.45 23.6497 23.95 19.8997 30.45 15.3497C36.95 10.8497 43.5 5.59966 50.5 4.74966C57.5 3.89966 64.95 7.49966 70.8 12.3997Z" fill="#8B7DAB"/>
</g>
<mask id="mask0_60_5" style="mask-type:alpha" maskUnits="userSpaceOnUse" x="34" y="34" width="32" height="32">
<rect x="34" y="34" width="32" height="32" fill="#8B7DAB"/>
</mask>
<g mask="url(#mask0_60_5)">
<path d="M41.9997 60.6663C40.8886 60.6663 39.9441 60.2775 39.1663 59.4997C38.3886 58.7219 37.9997 57.7775 37.9997 56.6663H36.6663C36.2886 56.6663 35.9719 56.5386 35.7163 56.283C35.4608 56.0275 35.333 55.7108 35.333 55.333V41.9997C35.333 41.2663 35.5941 40.6386 36.1163 40.1163C36.6386 39.5941 37.2663 39.333 37.9997 39.333H53.9997C54.733 39.333 55.3608 39.5941 55.883 40.1163C56.4052 40.6386 56.6663 41.2663 56.6663 41.9997V44.6663H59.333C59.7552 44.6663 60.1552 44.7608 60.533 44.9497C60.9108 45.1386 61.2219 45.3997 61.4663 45.733L64.3997 49.633C64.4886 49.7441 64.5552 49.8663 64.5997 49.9997C64.6441 50.133 64.6663 50.2775 64.6663 50.433V55.333C64.6663 55.7108 64.5386 56.0275 64.283 56.283C64.0275 56.5386 63.7108 56.6663 63.333 56.6663H61.9997C61.9997 57.7775 61.6108 58.7219 60.833 59.4997C60.0552 60.2775 59.1108 60.6663 57.9997 60.6663C56.8886 60.6663 55.9441 60.2775 55.1663 59.4997C54.3886 58.7219 53.9997 57.7775 53.9997 56.6663H45.9997C45.9997 57.7775 45.6108 58.7219 44.833 59.4997C44.0552 60.2775 43.1108 60.6663 41.9997 60.6663ZM41.9997 57.9997C42.3775 57.9997 42.6941 57.8719 42.9497 57.6163C43.2052 57.3608 43.333 57.0441 43.333 56.6663C43.333 56.2886 43.2052 55.9719 42.9497 55.7163C42.6941 55.4608 42.3775 55.333 41.9997 55.333C41.6219 55.333 41.3052 55.4608 41.0497 55.7163C40.7941 55.9719 40.6663 56.2886 40.6663 56.6663C40.6663 57.0441 40.7941 57.3608 41.0497 57.6163C41.3052 57.8719 41.6219 57.9997 41.9997 57.9997ZM37.9997 53.9997H39.0663C39.4441 53.5997 39.8775 53.2775 40.3663 53.033C40.8552 52.7886 41.3997 52.6663 41.9997 52.6663C42.5997 52.6663 43.1441 52.7886 43.633 53.033C44.1219 53.2775 44.5552 53.5997 44.933 53.9997H53.9997V41.9997H37.9997V53.9997ZM57.9997 57.9997C58.3775 57.9997 58.6941 57.8719 58.9497 57.6163C59.2052 57.3608 59.333 57.0441 59.333 56.6663C59.333 56.2886 59.2052 55.9719 58.9497 55.7163C58.6941 55.4608 58.3775 55.333 57.9997 55.333C57.6219 55.333 57.3052 55.4608 57.0497 55.7163C56.7941 55.9719 56.6663 56.2886 56.6663 56.6663C56.6663 57.0441 56.7941 57.3608 57.0497 57.6163C57.3052 57.8719 57.6219 57.9997 57.9997 57.9997ZM56.6663 51.333H62.333L59.333 47.333H56.6663V51.333Z" fill="#8B7DAB"/>
</g>
</svg>
