<svg width="100" height="100" viewBox="0 0 100 100" fill="none" xmlns="http://www.w3.org/2000/svg">
<g opacity="0.4">
<path d="M72.7001 10.0497C79.2501 14.4496 84.3001 20.8497 87.9501 27.8497C91.6001 34.8497 93.9001 42.3997 93.1001 49.5497C92.3501 56.6997 88.5501 63.3997 84.9001 70.3997C81.3001 77.3997 77.7501 84.6997 71.9501 87.7997C66.1501 90.8497 58.1001 89.6997 50.9001 88.1997C43.7001 86.6497 37.4001 84.6996 31.3001 81.7496C25.2001 78.8496 19.3501 74.9496 16.0001 69.4996C12.6501 64.0496 11.8001 57.0496 12.1501 50.1996C12.5501 43.3997 14.0501 36.7496 17.1001 30.7497C20.1501 24.7497 24.6501 19.3497 30.4001 14.4497C36.1001 9.59965 43.0501 5.24965 50.5501 4.29965C58.0501 3.29965 66.1501 5.69965 72.7001 10.0497Z" fill="#8B7DAB"/>
</g>
<mask id="mask0_60_6" style="mask-type:alpha" maskUnits="userSpaceOnUse" x="37" y="34" width="32" height="32">
<rect x="37" y="34" width="32" height="32" fill="#8B7DAB"/>
</mask>
<g mask="url(#mask0_60_6)">
<path d="M58.333 50.9003C58.1775 50.9003 58.0275 50.8781 57.883 50.8337C57.7386 50.7892 57.6108 50.7114 57.4997 50.6003C55.5886 48.867 53.9163 47.1948 52.483 45.5837C51.0497 43.9725 50.333 42.467 50.333 41.067C50.333 39.8225 50.7552 38.7781 51.5997 37.9337C52.4441 37.0892 53.4886 36.667 54.733 36.667C55.4441 36.667 56.1108 36.817 56.733 37.117C57.3552 37.417 57.8886 37.8225 58.333 38.3337C58.7775 37.8225 59.3108 37.417 59.933 37.117C60.5552 36.817 61.2219 36.667 61.933 36.667C63.1775 36.667 64.2219 37.0892 65.0663 37.9337C65.9108 38.7781 66.333 39.8225 66.333 41.067C66.333 42.467 65.6163 43.9725 64.183 45.5837C62.7497 47.1948 61.0775 48.867 59.1663 50.6003C59.0552 50.7114 58.9275 50.7892 58.783 50.8337C58.6386 50.8781 58.4886 50.9003 58.333 50.9003ZM58.333 47.7337C59.6441 46.4892 60.8608 45.2503 61.983 44.017C63.1052 42.7837 63.6663 41.8003 63.6663 41.067C63.6663 40.5559 63.5052 40.1392 63.183 39.817C62.8608 39.4948 62.4441 39.3337 61.933 39.3337C61.6219 39.3337 61.3275 39.3948 61.0497 39.517C60.7719 39.6392 60.533 39.8225 60.333 40.067L58.333 42.467L56.333 40.067C56.133 39.8225 55.8941 39.6392 55.6163 39.517C55.3386 39.3948 55.0441 39.3337 54.733 39.3337C54.2219 39.3337 53.8052 39.4948 53.483 39.817C53.1608 40.1392 52.9997 40.5559 52.9997 41.067C52.9997 41.8003 53.5608 42.7837 54.683 44.017C55.8052 45.2503 57.0219 46.4892 58.333 47.7337ZM55.5997 61.2003L63.533 58.7337C63.4219 58.5337 63.2608 58.3614 63.0497 58.217C62.8386 58.0726 62.5997 58.0003 62.333 58.0003H55.5997C54.9997 58.0003 54.5219 57.9781 54.1663 57.9337C53.8108 57.8892 53.4441 57.8003 53.0663 57.667L51.1663 57.0337C50.8108 56.9226 50.5552 56.7003 50.3997 56.367C50.2441 56.0337 50.2219 55.6892 50.333 55.3337C50.4441 54.9781 50.6608 54.717 50.983 54.5503C51.3052 54.3837 51.6441 54.3559 51.9997 54.467L53.3997 54.9337C53.7775 55.0448 54.2052 55.1337 54.683 55.2003C55.1608 55.267 55.8108 55.3114 56.633 55.3337H56.9997C56.9997 55.0892 56.9275 54.8559 56.783 54.6337C56.6386 54.4114 56.4663 54.267 56.2663 54.2003L48.4663 51.3337H46.333V58.667L55.5997 61.2003ZM54.8997 63.8003L46.333 61.4003C46.1552 61.9781 45.8052 62.4448 45.283 62.8003C44.7608 63.1559 44.2219 63.3337 43.6663 63.3337H40.9997C40.2663 63.3337 39.6386 63.0726 39.1163 62.5503C38.5941 62.0281 38.333 61.4003 38.333 60.667V51.3337C38.333 50.6003 38.5941 49.9725 39.1163 49.4503C39.6386 48.9281 40.2663 48.667 40.9997 48.667H48.4663C48.6219 48.667 48.7775 48.6837 48.933 48.717C49.0886 48.7503 49.233 48.7892 49.3663 48.8337L57.1997 51.7337C57.933 52.0003 58.5275 52.467 58.983 53.1337C59.4386 53.8003 59.6663 54.5337 59.6663 55.3337H62.333C63.4441 55.3337 64.3886 55.7003 65.1663 56.4337C65.9441 57.167 66.333 58.1337 66.333 59.3337C66.333 59.8226 66.2052 60.2059 65.9497 60.4837C65.6941 60.7614 65.2997 60.9892 64.7663 61.167L56.433 63.767C56.1886 63.8559 55.933 63.9003 55.6663 63.9003C55.3997 63.9003 55.1441 63.867 54.8997 63.8003ZM40.9997 60.667H43.6663V51.3337H40.9997V60.667Z" fill="#8B7DAB"/>
</g>
</svg>
