<svg width="1280" height="520" viewBox="0 0 1280 520" fill="none" xmlns="http://www.w3.org/2000/svg">
<rect opacity="0.1" width="1280" height="520" rx="12" fill="#E9B5AC"/>
<mask id="mask0_29_2" style="mask-type:alpha" maskUnits="userSpaceOnUse" x="0" y="0" width="1280" height="520">
<rect width="1280" height="520" rx="12" transform="matrix(-1 0 0 1 1280 0)" fill="#E9B5AC"/>
</mask>
<g mask="url(#mask0_29_2)">
<path opacity="0.2" fill-rule="evenodd" clip-rule="evenodd" d="M1005.39 629.6C1028.11 635.398 1008.78 582.514 1002.59 559.891C998.031 543.257 960.695 527.22 974.54 516.938C1006.74 493.027 1059.89 518.406 1091.56 493.811C1107.12 481.735 1096.68 441.741 1077.58 436.929C1041.92 427.943 1005.1 478.465 971.486 463.554C949.775 453.924 987.546 415.622 979.315 393.342C973.639 377.976 952.07 363.727 936.773 369.587C917.304 377.044 924.448 418.348 903.961 422.207C878.463 427.009 860.295 389.234 834.351 388.876C812.583 388.576 782.467 399.198 777.827 420.468C772.338 445.628 813.146 462.991 812.567 488.737C812.067 510.975 773.633 521.043 775.064 543.241C776.36 563.338 806.017 568.63 818.724 584.254C830.582 598.833 834.77 618.331 847.432 632.217C861.348 647.477 881.516 683.746 896.348 669.376C928.397 638.325 896.939 558.927 938.861 543.635C973.191 531.112 969.978 620.567 1005.39 629.6Z" fill="#E9B5AC"/>
<path opacity="0.2" fill-rule="evenodd" clip-rule="evenodd" d="M712.142 97.5244C734.722 91.182 691.536 55.0499 674.861 38.5555C662.599 26.4271 622.246 31.2069 629.095 15.3796C645.022 -21.4252 703.742 -26.022 718.876 -63.1597C726.308 -81.3952 697.271 -110.812 678.328 -105.431C642.952 -95.3827 636.328 -33.2206 599.759 -29.3254C576.141 -26.8098 589.701 -78.8655 571.433 -94.0451C558.834 -104.515 533.03 -106.069 522.712 -93.3466C509.581 -77.154 536.42 -44.9559 520.606 -31.3704C500.925 -14.4629 466.304 -38.093 443.657 -25.4308C424.656 -14.8066 403.885 9.45003 410.502 30.1907C418.329 54.7244 462.351 49.3575 474.722 71.9435C485.408 91.452 457.158 119.388 469.496 137.896C480.666 154.653 508.996 144.408 527.813 151.585C545.372 158.282 558.747 173.074 576.656 178.768C596.338 185.026 631.939 206.351 637.598 186.491C649.828 143.576 582.886 90.5434 611.544 56.3394C635.014 28.3291 676.959 107.406 712.142 97.5244Z" fill="#E9B5AC"/>
</g>
</svg>
